<svg id="圖層_1" data-name="圖層 1" xmlns="http://www.w3.org/2000/svg" viewBox="0 0 212.48 40.24"><defs><style>.cls-1{fill:#eee;}.cls-2{fill:#b94100;}.cls-3{fill:none;stroke:#fff;stroke-miterlimit:10;stroke-width:0.48px;}.cls-4{fill:#c6a648;}.cls-5{fill:#709b12;}.cls-6{fill:#edc300;}.cls-7{fill:#666ba1;}.cls-8{fill:#4991b8;}</style></defs><title>footerTBOCC</title><path class="cls-1" d="M53.84,27.51a2.15,2.15,0,0,0-.77.14,1.62,1.62,0,0,0-.6.4,1.72,1.72,0,0,0-.39.64,2.66,2.66,0,0,0-.14.88,2.51,2.51,0,0,0,.13.86,1.58,1.58,0,0,0,1,1,2.43,2.43,0,0,0,.79.12,3.52,3.52,0,0,0,.64-.05,3.76,3.76,0,0,0,.62-.14v.87a5.33,5.33,0,0,1-.63.14,5.27,5.27,0,0,1-.7,0,3.62,3.62,0,0,1-1.24-.2,2.35,2.35,0,0,1-.89-.57,2.33,2.33,0,0,1-.54-.88,3.39,3.39,0,0,1-.18-1.13,3.52,3.52,0,0,1,.19-1.18,2.7,2.7,0,0,1,.56-.94,2.64,2.64,0,0,1,.91-.63,3.17,3.17,0,0,1,1.23-.23,4.68,4.68,0,0,1,.67.05,4,4,0,0,1,.57.13v.87a4.26,4.26,0,0,0-.62-.15,3.6,3.6,0,0,0-.56,0"/><path class="cls-1" d="M57.76,32.41a2.3,2.3,0,0,1-1-.2,1.48,1.48,0,0,1-.6-.56,1.67,1.67,0,0,1-.16-.41,2.49,2.49,0,0,1-.05-.5V28.29h1v2.35A1.75,1.75,0,0,0,57,31a1,1,0,0,0,.09.26.66.66,0,0,0,.28.27,1,1,0,0,0,.44.09,1,1,0,0,0,.45-.1.67.67,0,0,0,.29-.31,1.32,1.32,0,0,0,.09-.54V28.29h1v2.45a1.73,1.73,0,0,1-.18.83,1.36,1.36,0,0,1-.24.35,1.38,1.38,0,0,1-.36.26,2.09,2.09,0,0,1-.46.17,2.65,2.65,0,0,1-.58.06"/><rect class="cls-1" x="60.65" y="26.3" width="0.98" height="6.01"/><path class="cls-1" d="M65.22,32.31a3.27,3.27,0,0,1-.4.07l-.43,0a1.83,1.83,0,0,1-.83-.16,1,1,0,0,1-.45-.47,1.44,1.44,0,0,1-.1-.6V29.1h-.75v-.81H63V27.16h1v1.13h1.16v.81H64v1.95a.66.66,0,0,0,.07.35.55.55,0,0,0,.49.19,2,2,0,0,0,.34,0l.32-.07Z"/><path class="cls-1" d="M67.76,32.41a2.25,2.25,0,0,1-1-.2,1.44,1.44,0,0,1-.61-.56,1.67,1.67,0,0,1-.16-.41,2.49,2.49,0,0,1,0-.5V28.29h1v2.35A1.75,1.75,0,0,0,67,31a.72.72,0,0,0,.08.26.66.66,0,0,0,.28.27,1,1,0,0,0,.44.09,1.08,1.08,0,0,0,.46-.1.71.71,0,0,0,.28-.31,1.32,1.32,0,0,0,.09-.54V28.29h1v2.45a1.86,1.86,0,0,1-.17.83,1.4,1.4,0,0,1-.25.35,1.38,1.38,0,0,1-.36.26,1.91,1.91,0,0,1-.46.17,2.58,2.58,0,0,1-.58.06"/><path class="cls-1" d="M73,29.07h-.09a2.15,2.15,0,0,0-.79.13,1.07,1.07,0,0,0-.53.42v2.69h-1v-4h.81l.09.56h0a1.19,1.19,0,0,1,.48-.49,1.49,1.49,0,0,1,.73-.17H73Z"/><path class="cls-1" d="M75.66,31.62a3.21,3.21,0,0,0,.6-.06,5.83,5.83,0,0,0,.63-.16v.78a2.63,2.63,0,0,1-.59.16,4.32,4.32,0,0,1-.82.07,2.73,2.73,0,0,1-.81-.11A1.79,1.79,0,0,1,74,32a1.76,1.76,0,0,1-.45-.64,2.39,2.39,0,0,1-.17-.94,2.54,2.54,0,0,1,.16-1,1.82,1.82,0,0,1,1-1.09,1.9,1.9,0,0,1,.71-.13,2.23,2.23,0,0,1,.7.11,1.41,1.41,0,0,1,.56.37,1.79,1.79,0,0,1,.36.64,2.86,2.86,0,0,1,.13.93c0,.14,0,.25,0,.35H74.39a1.17,1.17,0,0,0,.12.48.91.91,0,0,0,.27.31.93.93,0,0,0,.39.18,1.88,1.88,0,0,0,.49.06M75.26,29a.88.88,0,0,0-.33.06.92.92,0,0,0-.25.19,1.1,1.1,0,0,0-.17.28,1.14,1.14,0,0,0-.08.33H76a.88.88,0,0,0-.05-.33.67.67,0,0,0-.14-.28.71.71,0,0,0-.23-.19.81.81,0,0,0-.33-.06"/><path class="cls-1" d="M84.91,29.35a3.91,3.91,0,0,1-.24,1,3.3,3.3,0,0,1-.44.81l.4.41c.12.14.23.25.33.35l.24.25.12.12H83.91l-.15-.19-.24-.25a3,3,0,0,1-.86.41,3.31,3.31,0,0,1-.93.13,2.19,2.19,0,0,1-.7-.1,1.57,1.57,0,0,1-.54-.3,1.35,1.35,0,0,1-.35-.47,1.54,1.54,0,0,1-.12-.61,1.42,1.42,0,0,1,.09-.52,1.72,1.72,0,0,1,.23-.42,2.26,2.26,0,0,1,.35-.34,4.21,4.21,0,0,1,.41-.28l-.3-.3a2.35,2.35,0,0,1-.23-.32,1.58,1.58,0,0,1-.16-.35,1.75,1.75,0,0,1,0-.4,1.32,1.32,0,0,1,.11-.57,1,1,0,0,1,.32-.42,1.43,1.43,0,0,1,.52-.27,2.4,2.4,0,0,1,.69-.09,2.84,2.84,0,0,1,.69.08,1.48,1.48,0,0,1,.52.25,1,1,0,0,1,.33.41,1.25,1.25,0,0,1,.12.56,1.36,1.36,0,0,1-.09.51,1.27,1.27,0,0,1-.23.41,2.2,2.2,0,0,1-.35.33l-.4.28.46.48.55.57a2.66,2.66,0,0,0,.23-.54,3,3,0,0,0,.12-.64Zm-3.09,2.26a1.88,1.88,0,0,0,.57-.09,2,2,0,0,0,.55-.27l-.32-.33-.32-.32L82,30.28,81.71,30a3.15,3.15,0,0,0-.27.19,1.45,1.45,0,0,0-.21.22.72.72,0,0,0-.14.24.6.6,0,0,0-.06.27.62.62,0,0,0,.07.31.56.56,0,0,0,.16.21.75.75,0,0,0,.25.13,1.06,1.06,0,0,0,.31.05M81.37,28a.85.85,0,0,0,0,.23,1.13,1.13,0,0,0,.12.21,1.24,1.24,0,0,0,.19.22l.24.23.27-.18a1.49,1.49,0,0,0,.22-.21.79.79,0,0,0,.14-.23.58.58,0,0,0,0-.26.5.5,0,0,0-.16-.39.73.73,0,0,0-.47-.14.77.77,0,0,0-.27,0,.55.55,0,0,0-.2.11.36.36,0,0,0-.12.16.54.54,0,0,0,0,.21"/><polygon class="cls-1" points="90.69 32.31 89.68 32.31 89.68 27.61 87.89 27.61 87.89 26.75 92.48 26.75 92.48 27.61 90.69 27.61 90.69 32.31"/><path class="cls-1" d="M96.44,30.3a2.35,2.35,0,0,1-.14.86,1.87,1.87,0,0,1-.4.67,1.76,1.76,0,0,1-.64.43,2.23,2.23,0,0,1-.83.15,2.26,2.26,0,0,1-.85-.15,1.68,1.68,0,0,1-.64-.43,1.87,1.87,0,0,1-.4-.67,2.71,2.71,0,0,1,0-1.72,2,2,0,0,1,.41-.67,1.65,1.65,0,0,1,.63-.43,2.24,2.24,0,0,1,.84-.15,2.3,2.3,0,0,1,.85.15,1.65,1.65,0,0,1,.63.43,1.81,1.81,0,0,1,.4.67,2.35,2.35,0,0,1,.14.86m-1,0a1.89,1.89,0,0,0-.08-.56,1.27,1.27,0,0,0-.21-.42.75.75,0,0,0-.32-.24.9.9,0,0,0-.4-.09.87.87,0,0,0-.4.09.75.75,0,0,0-.32.24,1.27,1.27,0,0,0-.21.42,1.91,1.91,0,0,0-.07.56,2,2,0,0,0,.07.57,1.17,1.17,0,0,0,.21.4,1,1,0,0,0,.32.25.91.91,0,0,0,.41.09.9.9,0,0,0,.4-.09.93.93,0,0,0,.31-.25,1.17,1.17,0,0,0,.21-.4,2,2,0,0,0,.08-.57"/><path class="cls-1" d="M99.09,32.41a2.25,2.25,0,0,1-1-.2,1.44,1.44,0,0,1-.61-.56,1.34,1.34,0,0,1-.15-.41,1.9,1.9,0,0,1-.06-.5V28.29h1v2.35a1.75,1.75,0,0,0,0,.35,1,1,0,0,0,.08.26.63.63,0,0,0,.29.27.94.94,0,0,0,.43.09,1.08,1.08,0,0,0,.46-.1.65.65,0,0,0,.28-.31,1.3,1.3,0,0,0,.1-.54V28.29h1v2.45a1.86,1.86,0,0,1-.17.83,1.4,1.4,0,0,1-.25.35,1.52,1.52,0,0,1-.35.26,2.17,2.17,0,0,1-.47.17,2.58,2.58,0,0,1-.58.06"/><path class="cls-1" d="M104.34,29.07h-.09a2.15,2.15,0,0,0-.79.13,1.07,1.07,0,0,0-.53.42v2.69h-1v-4h.81l.09.56h0a1.26,1.26,0,0,1,.48-.49,1.51,1.51,0,0,1,.73-.17h.26Z"/><path class="cls-1" d="M104.92,26.3h1v1.07h-1Zm0,2h1v4h-1Z"/><path class="cls-1" d="M108.81,31.14a.31.31,0,0,0-.07-.21.72.72,0,0,0-.19-.14l-.28-.1-.33-.08-.41-.13a1.13,1.13,0,0,1-.35-.21.83.83,0,0,1-.24-.31,1,1,0,0,1-.09-.46,1.35,1.35,0,0,1,.12-.59,1.08,1.08,0,0,1,.33-.4,1.23,1.23,0,0,1,.47-.24,1.85,1.85,0,0,1,.58-.08,3.85,3.85,0,0,1,.69.06,4.22,4.22,0,0,1,.59.15v.8l-.29-.08-.31-.07-.31-.05-.29,0a1.12,1.12,0,0,0-.29,0,.46.46,0,0,0-.2.09.35.35,0,0,0-.11.13.33.33,0,0,0,0,.15.32.32,0,0,0,.07.22.48.48,0,0,0,.2.14,1.43,1.43,0,0,0,.27.09l.28.07A3.17,3.17,0,0,1,109,30a1.25,1.25,0,0,1,.38.2.89.89,0,0,1,.27.33,1.08,1.08,0,0,1,.1.51,1.38,1.38,0,0,1-.12.59,1.22,1.22,0,0,1-.36.42,1.59,1.59,0,0,1-.56.25,2.59,2.59,0,0,1-.7.08,3.54,3.54,0,0,1-.69-.06,2.6,2.6,0,0,1-.51-.15v-.79a3.38,3.38,0,0,0,.6.16,3.25,3.25,0,0,0,.51.05,1.72,1.72,0,0,0,.34,0,1,1,0,0,0,.28-.09.62.62,0,0,0,.18-.14.38.38,0,0,0,.06-.22"/><path class="cls-1" d="M115.81,29.86v-.24c0-.08,0-.14,0-.19a.51.51,0,0,0-.18-.3.58.58,0,0,0-.37-.12,1.26,1.26,0,0,0-.27,0,1.53,1.53,0,0,0-.27.11,1.4,1.4,0,0,0-.26.16,1.52,1.52,0,0,0-.22.22v2.77h-1V29.62c0-.08,0-.14,0-.19a.51.51,0,0,0-.18-.3.59.59,0,0,0-.38-.12,1.27,1.27,0,0,0-.26,0,1.53,1.53,0,0,0-.27.11,1.4,1.4,0,0,0-.26.16,1.52,1.52,0,0,0-.22.22v2.77h-1v-4h.82l.09.56h0a1.27,1.27,0,0,1,.22-.25,1.14,1.14,0,0,1,.3-.21,1.79,1.79,0,0,1,.37-.15,1.86,1.86,0,0,1,.42,0,1.53,1.53,0,0,1,.72.17,1.18,1.18,0,0,1,.48.55h0a2.35,2.35,0,0,1,.26-.29,1.54,1.54,0,0,1,.32-.23,1.55,1.55,0,0,1,.8-.2,1.33,1.33,0,0,1,.72.18,1.15,1.15,0,0,1,.45.48.89.89,0,0,1,.08.17c0,.07,0,.14,0,.21a2.06,2.06,0,0,1,0,.26c0,.1,0,.2,0,.32v2.5h-1Z"/><path class="cls-1" d="M124.26,28.23a1.38,1.38,0,0,1-.16.67,1.32,1.32,0,0,1-.54.5h0a1.91,1.91,0,0,1,.38.18,1.52,1.52,0,0,1,.3.26,1.31,1.31,0,0,1,.19.35,1.37,1.37,0,0,1,.07.42,1.6,1.6,0,0,1-.29.89,1.71,1.71,0,0,1-.44.4,2.14,2.14,0,0,1-.68.29l-.22,0-.27,0-.34,0h-2V26.76h1.93a3.34,3.34,0,0,1,1,.12,1.71,1.71,0,0,1,.84.57,1.44,1.44,0,0,1,.26.78m-2.09.81a1.89,1.89,0,0,0,.62-.08.68.68,0,0,0,.33-.26.82.82,0,0,0,.09-.38.69.69,0,0,0-.11-.4.64.64,0,0,0-.38-.25l-.26-.05h-1.21V29Zm-.92.85v1.57h.67l.46,0,.32,0a1.17,1.17,0,0,0,.36-.13.8.8,0,0,0,.22-.17.61.61,0,0,0,.13-.22,1,1,0,0,0,0-.25.68.68,0,0,0-.13-.4.79.79,0,0,0-.4-.27l-.29-.05-.41,0Z"/><path class="cls-1" d="M127.19,32.41a2.3,2.3,0,0,1-1-.2,1.48,1.48,0,0,1-.6-.56,1.35,1.35,0,0,1-.16-.41,2.49,2.49,0,0,1,0-.5V28.29h1v2.35a1.75,1.75,0,0,0,0,.35,1,1,0,0,0,.09.26.61.61,0,0,0,.28.27,1,1,0,0,0,.44.09,1.06,1.06,0,0,0,.45-.1.61.61,0,0,0,.28-.31,1.16,1.16,0,0,0,.1-.54V28.29h1v2.45a1.73,1.73,0,0,1-.17.83,1.36,1.36,0,0,1-.24.35,1.38,1.38,0,0,1-.36.26,2.09,2.09,0,0,1-.46.17,2.65,2.65,0,0,1-.58.06"/><path class="cls-1" d="M132.43,29.07h-.08a2.2,2.2,0,0,0-.8.13,1.09,1.09,0,0,0-.52.42v2.69h-1v-4h.82l.09.56h0a1.33,1.33,0,0,1,.48-.49,1.54,1.54,0,0,1,.73-.17h.26Z"/><path class="cls-1" d="M135.08,31.62a3.05,3.05,0,0,0,.6-.06,4.85,4.85,0,0,0,.63-.16v.78a2.51,2.51,0,0,1-.58.16,4.39,4.39,0,0,1-.82.07,2.65,2.65,0,0,1-.81-.11,1.72,1.72,0,0,1-.67-.35,1.91,1.91,0,0,1-.46-.64,2.4,2.4,0,0,1-.16-.94,2.76,2.76,0,0,1,.15-1,1.93,1.93,0,0,1,.43-.68,1.69,1.69,0,0,1,.61-.41,1.85,1.85,0,0,1,.7-.13,2.3,2.3,0,0,1,.71.11,1.37,1.37,0,0,1,.55.37,1.66,1.66,0,0,1,.37.64,2.86,2.86,0,0,1,.13.93c0,.14,0,.25,0,.35h-2.64a1.17,1.17,0,0,0,.13.48.81.81,0,0,0,.27.31.88.88,0,0,0,.39.18,1.86,1.86,0,0,0,.48.06M134.69,29a.84.84,0,0,0-.33.06.79.79,0,0,0-.25.19.88.88,0,0,0-.17.28,1.14,1.14,0,0,0-.08.33h1.58a1.14,1.14,0,0,0-.05-.33.82.82,0,0,0-.14-.28A.71.71,0,0,0,135,29a.88.88,0,0,0-.33-.06"/><path class="cls-1" d="M139.74,31.88h0a1.2,1.2,0,0,1-.2.18,1.67,1.67,0,0,1-.26.17,1.15,1.15,0,0,1-.34.13,1.23,1.23,0,0,1-.39,0,1.61,1.61,0,0,1-.54-.09,1.12,1.12,0,0,1-.42-.25,1.3,1.3,0,0,1-.28-.41,1.32,1.32,0,0,1-.11-.53,1.59,1.59,0,0,1,.12-.59,1.27,1.27,0,0,1,.33-.43,1.47,1.47,0,0,1,.51-.27,1.93,1.93,0,0,1,.65-.1,2.33,2.33,0,0,1,.48,0,3,3,0,0,1,.39.08v-.17a.86.86,0,0,0,0-.27.57.57,0,0,0-.15-.23.76.76,0,0,0-.28-.16,1.22,1.22,0,0,0-.41-.06,3.05,3.05,0,0,0-.6.06,5.24,5.24,0,0,0-.65.2v-.76a3.43,3.43,0,0,1,.64-.21,3.38,3.38,0,0,1,.72-.07,2.27,2.27,0,0,1,.77.11,1.69,1.69,0,0,1,.55.29,1.19,1.19,0,0,1,.33.45,1.47,1.47,0,0,1,.11.56v1.51c0,.27,0,.5,0,.69s0,.36,0,.51h-.89Zm-.08-1.28-.32-.07-.37,0a1,1,0,0,0-.57.14.5.5,0,0,0-.21.44.61.61,0,0,0,0,.24.55.55,0,0,0,.13.17.66.66,0,0,0,.19.09.59.59,0,0,0,.23,0,.86.86,0,0,0,.28,0l.25-.1.2-.14a1,1,0,0,0,.15-.14Z"/><path class="cls-1" d="M143.52,32.41a2.25,2.25,0,0,1-1-.2,1.42,1.42,0,0,1-.76-1,1.9,1.9,0,0,1-.06-.5V28.29h1v2.35a1.75,1.75,0,0,0,0,.35,1.6,1.6,0,0,0,.08.26.69.69,0,0,0,.29.27.94.94,0,0,0,.43.09,1.08,1.08,0,0,0,.46-.1.65.65,0,0,0,.28-.31,1.3,1.3,0,0,0,.1-.54V28.29h1v2.45a1.86,1.86,0,0,1-.17.83,1.4,1.4,0,0,1-.25.35,1.52,1.52,0,0,1-.35.26,2.17,2.17,0,0,1-.47.17,2.52,2.52,0,0,1-.58.06"/><path class="cls-1" d="M152.45,30.3a2.58,2.58,0,0,1-.14.86,1.89,1.89,0,0,1-.41.67,1.65,1.65,0,0,1-.63.43,2.24,2.24,0,0,1-.84.15,2.3,2.3,0,0,1-.85-.15,1.65,1.65,0,0,1-.63-.43,1.74,1.74,0,0,1-.4-.67,2.71,2.71,0,0,1,0-1.72,2,2,0,0,1,.4-.67,1.76,1.76,0,0,1,.64-.43,2.23,2.23,0,0,1,.83-.15,2.26,2.26,0,0,1,.85.15,1.68,1.68,0,0,1,.64.43,1.81,1.81,0,0,1,.4.67,2.58,2.58,0,0,1,.14.86m-1,0a1.91,1.91,0,0,0-.07-.56,1.27,1.27,0,0,0-.21-.42.75.75,0,0,0-.32-.24.91.91,0,0,0-.41-.09.93.93,0,0,0-.4.09.79.79,0,0,0-.31.24,1.27,1.27,0,0,0-.21.42,1.89,1.89,0,0,0-.08.56,2,2,0,0,0,.08.57,1.17,1.17,0,0,0,.21.4,1,1,0,0,0,.32.25.9.9,0,0,0,.4.09,1,1,0,0,0,.41-.09.93.93,0,0,0,.31-.25,1.17,1.17,0,0,0,.21-.4,2,2,0,0,0,.07-.57"/><path class="cls-1" d="M155.84,27.09l-.33-.06-.33,0a.85.85,0,0,0-.29,0,.54.54,0,0,0-.22.13.57.57,0,0,0-.14.24,1.16,1.16,0,0,0,0,.35v.53h1.11v.81h-1.11v3.21h-1V29.1h-.68v-.81h.68v-.48a2,2,0,0,1,.12-.73,1.37,1.37,0,0,1,.33-.5,1.32,1.32,0,0,1,.5-.29,2.06,2.06,0,0,1,.62-.09,3,3,0,0,1,.42,0,1.62,1.62,0,0,1,.35.09Z"/><path class="cls-1" d="M161.17,27.51a2.1,2.1,0,0,0-.76.14,1.48,1.48,0,0,0-.6.4,1.88,1.88,0,0,0-.4.64,2.66,2.66,0,0,0-.14.88,2.78,2.78,0,0,0,.13.86,1.65,1.65,0,0,0,.37.62,1.58,1.58,0,0,0,.59.38,2.39,2.39,0,0,0,.79.12,3.59,3.59,0,0,0,.64-.05,3.64,3.64,0,0,0,.61-.14v.87a5.16,5.16,0,0,1-.62.14,5.37,5.37,0,0,1-.7,0,3.58,3.58,0,0,1-1.24-.2,2.32,2.32,0,0,1-1.44-1.45,3.39,3.39,0,0,1-.18-1.13,3.52,3.52,0,0,1,.2-1.18,2.68,2.68,0,0,1,.55-.94,2.74,2.74,0,0,1,.91-.63,3.22,3.22,0,0,1,1.24-.23,4.65,4.65,0,0,1,.66.05,4,4,0,0,1,.57.13v.87a4,4,0,0,0-.62-.15,3.52,3.52,0,0,0-.56,0"/><path class="cls-1" d="M164.34,27.94c0,.21,0,.38,0,.51a3.29,3.29,0,0,1,0,.36h0a2.28,2.28,0,0,1,.22-.23,1.35,1.35,0,0,1,.27-.2,1.6,1.6,0,0,1,.35-.14,1.86,1.86,0,0,1,.42,0,1.67,1.67,0,0,1,.39,0,1,1,0,0,1,.35.12,1.27,1.27,0,0,1,.53.53,1.69,1.69,0,0,1,.12.36,3.23,3.23,0,0,1,0,.48v2.59h-1V29.86a2.41,2.41,0,0,0,0-.31.83.83,0,0,0-.05-.2.53.53,0,0,0-.25-.26.91.91,0,0,0-.37-.08,1.19,1.19,0,0,0-.53.14,1.49,1.49,0,0,0-.45.39v2.77h-1v-6h1Z"/><path class="cls-1" d="M168.07,26.3h1v1.07h-1Zm0,2h1v4h-1Z"/><path class="cls-1" d="M172.55,31.88h0a1.2,1.2,0,0,1-.2.18,1.3,1.3,0,0,1-.26.17,1.2,1.2,0,0,1-.33.13,1.29,1.29,0,0,1-.4,0,1.51,1.51,0,0,1-.53-.09,1.09,1.09,0,0,1-.43-.25,1.3,1.3,0,0,1-.28-.41,1.32,1.32,0,0,1-.1-.53,1.41,1.41,0,0,1,.12-.59,1.16,1.16,0,0,1,.33-.43,1.42,1.42,0,0,1,.5-.27,2,2,0,0,1,.65-.1,2.49,2.49,0,0,1,.49,0l.38.08v-.17a.65.65,0,0,0-.05-.27.57.57,0,0,0-.15-.23A.69.69,0,0,0,172,29a1.22,1.22,0,0,0-.41-.06,3.05,3.05,0,0,0-.6.06,5.81,5.81,0,0,0-.65.2v-.76a3.53,3.53,0,0,1,.65-.21,3.23,3.23,0,0,1,.71-.07,2.27,2.27,0,0,1,.77.11,1.59,1.59,0,0,1,.55.29,1.34,1.34,0,0,1,.34.45,1.47,1.47,0,0,1,.1.56v1.51c0,.27,0,.5,0,.69s0,.36,0,.51h-.89Zm-.08-1.28a2.21,2.21,0,0,0-.32-.07l-.37,0a1,1,0,0,0-.57.14.5.5,0,0,0-.21.44.47.47,0,0,0,.05.24.52.52,0,0,0,.12.17.66.66,0,0,0,.19.09.62.62,0,0,0,.23,0,.82.82,0,0,0,.28,0l.25-.1.2-.14a1,1,0,0,0,.15-.14Z"/><path class="cls-1" d="M174.06,28.29h1.06l.6,1.45c.22.56.39,1,.48,1.23h0c.07-.2.21-.59.43-1.15l.63-1.53h1.06l-2.59,6h-1l.92-2.15Z"/><path class="cls-1" d="M178.93,26.3h1v1.07h-1Zm0,2h1v4h-1Z"/><path class="cls-1" d="M186.1,27.51a2.1,2.1,0,0,0-.76.14,1.58,1.58,0,0,0-.61.4,2,2,0,0,0-.39.64,2.66,2.66,0,0,0-.14.88,2.51,2.51,0,0,0,.13.86,1.53,1.53,0,0,0,.37.62,1.5,1.5,0,0,0,.59.38,2.37,2.37,0,0,0,.78.12,3.63,3.63,0,0,0,.65-.05,3.88,3.88,0,0,0,.61-.14v.87a4.92,4.92,0,0,1-.63.14,5.12,5.12,0,0,1-.69,0,3.68,3.68,0,0,1-1.25-.2,2.35,2.35,0,0,1-.89-.57,2.33,2.33,0,0,1-.54-.88,3.39,3.39,0,0,1-.18-1.13,3.52,3.52,0,0,1,.19-1.18,2.86,2.86,0,0,1,.56-.94,2.64,2.64,0,0,1,.91-.63,3.17,3.17,0,0,1,1.23-.23,4.68,4.68,0,0,1,.67.05,4,4,0,0,1,.57.13v.87a4.26,4.26,0,0,0-.62-.15,3.6,3.6,0,0,0-.56,0"/><path class="cls-1" d="M192.08,30.3a2.58,2.58,0,0,1-.14.86,1.89,1.89,0,0,1-.41.67,1.73,1.73,0,0,1-.63.43,2.24,2.24,0,0,1-.84.15,2.3,2.3,0,0,1-.85-.15,1.65,1.65,0,0,1-.63-.43,1.89,1.89,0,0,1-.41-.67,2.59,2.59,0,0,1-.13-.86,2.35,2.35,0,0,1,.14-.86,2,2,0,0,1,.4-.67,1.76,1.76,0,0,1,.64-.43,2.23,2.23,0,0,1,.83-.15,2.26,2.26,0,0,1,.85.15,1.76,1.76,0,0,1,.64.43,2,2,0,0,1,.4.67,2.58,2.58,0,0,1,.14.86m-1,0a1.91,1.91,0,0,0-.07-.56,1.27,1.27,0,0,0-.21-.42.82.82,0,0,0-.32-.24,1,1,0,0,0-.41-.09.93.93,0,0,0-.4.09.82.82,0,0,0-.32.24,1.49,1.49,0,0,0-.2.42,1.89,1.89,0,0,0-.08.56,2,2,0,0,0,.08.57,1.17,1.17,0,0,0,.21.4.93.93,0,0,0,1.44,0,1.17,1.17,0,0,0,.21-.4,2,2,0,0,0,.07-.57"/><path class="cls-1" d="M194.73,32.41a2.3,2.3,0,0,1-1-.2,1.48,1.48,0,0,1-.6-.56,1.35,1.35,0,0,1-.16-.41,2.49,2.49,0,0,1-.05-.5V28.29h1v2.35a1.75,1.75,0,0,0,0,.35,1,1,0,0,0,.09.26.61.61,0,0,0,.28.27,1,1,0,0,0,.44.09,1,1,0,0,0,.45-.1.61.61,0,0,0,.28-.31,1.16,1.16,0,0,0,.1-.54V28.29h1v2.45a1.73,1.73,0,0,1-.17.83,1.36,1.36,0,0,1-.24.35,1.38,1.38,0,0,1-.36.26,2.09,2.09,0,0,1-.46.17,2.65,2.65,0,0,1-.58.06"/><path class="cls-1" d="M198.49,28.85h0a1.71,1.71,0,0,1,.22-.25,1.41,1.41,0,0,1,.31-.21,1.55,1.55,0,0,1,.81-.2,1.54,1.54,0,0,1,.43,0,1.2,1.2,0,0,1,.37.15,1.32,1.32,0,0,1,.3.28,1.21,1.21,0,0,1,.26.68,3.49,3.49,0,0,1,0,.35v2.61h-1V29.85a2.35,2.35,0,0,0,0-.28,1.18,1.18,0,0,0,0-.2.48.48,0,0,0-.23-.27.7.7,0,0,0-.37-.09,1.21,1.21,0,0,0-.55.14,1.41,1.41,0,0,0-.46.39v2.77h-1v-4h.81Z"/><path class="cls-1" d="M204.75,32.31a3.08,3.08,0,0,1-.39.07l-.43,0a1.81,1.81,0,0,1-.83-.16.93.93,0,0,1-.45-.47,1.44,1.44,0,0,1-.1-.6V29.1h-.75v-.81h.75V27.16h1v1.13h1.17v.81h-1.17v1.95a.77.77,0,0,0,.07.35.58.58,0,0,0,.5.19l.34,0,.31-.07Z"/><path class="cls-1" d="M205,28.29h1.06l.6,1.45q.34.84.48,1.23h0c.07-.2.21-.59.44-1.15l.62-1.53h1.07l-2.59,6h-1l.92-2.15Z"/><polygon class="cls-1" points="157.97 6.84 156.25 6.84 156.25 7.77 154.26 7.77 154.26 6.84 152.53 6.84 152.53 7.77 150.44 7.77 150.44 8.93 152.53 8.93 152.53 9.7 154.26 9.7 154.26 8.93 156.25 8.93 156.25 9.7 157.97 9.7 157.97 8.93 159.8 8.93 159.8 7.77 157.97 7.77 157.97 6.84"/><polygon class="cls-1" points="58.08 9.61 51.2 9.61 51.2 10.73 66.87 10.73 66.87 9.61 59.93 9.61 59.93 8.79 67.58 8.79 67.58 7.67 59.93 7.67 59.93 6.82 58.08 6.82 58.08 7.67 50.36 7.67 50.36 8.79 58.08 8.79 58.08 9.61"/><path class="cls-1" d="M65.68,17.62H60v4.94h7.3V19.05a1.35,1.35,0,0,0-.4-1,1.78,1.78,0,0,0-1.25-.42M65.61,21a.47.47,0,0,1-.47.45h-3a.45.45,0,0,1-.42-.4V19.19a.39.39,0,0,1,.4-.39h3a.47.47,0,0,1,.47.39Z"/><path class="cls-1" d="M120.49,6.27h-2.06a24.76,24.76,0,0,0,1.25,2.6h-7.93v1.29h2.58a21.6,21.6,0,0,0,4.81,7.78,13.49,13.49,0,0,1-7.28,3.37l0,1.3c3.49,0,6.86-2.17,8.55-3.53,1.64,1.43,4.79,3.51,8.21,3.51V21.31a12.56,12.56,0,0,1-6.93-3.39,19.36,19.36,0,0,0,4.7-7.76h2.54V8.87h-7.1a10.67,10.67,0,0,1-1.33-2.6m-.08,10.47a17.69,17.69,0,0,1-3.91-6.58h7.65a17,17,0,0,1-3.74,6.58"/><path class="cls-1" d="M134.55,6.72a19.53,19.53,0,0,1-4,5.86h2.07v10h1.78V12h-.87a31,31,0,0,0,3.56-5.28Z"/><path class="cls-1" d="M140.38,20.68V15.51h1.45a15.62,15.62,0,0,0,5.83-7.12h-2.6a11.34,11.34,0,0,1-2.49,4.39,17.93,17.93,0,0,1-2.19,2.16V6.72h-1.86V20.65a1.8,1.8,0,0,0,1.92,1.88h7.8V21.25H141a.55.55,0,0,1-.59-.57"/><path class="cls-1" d="M187,7.7h-2.13a15,15,0,0,1-1.74,5.2h1.5A21.35,21.35,0,0,0,187,7.7"/><path class="cls-1" d="M183.51,20.64V15.12h4.81V13.78h-7.6V6.85h-1.89v6.93H171.3v1.34h4.83a6.15,6.15,0,0,1-.94,4.18,5.21,5.21,0,0,1-3.92,2.06l0,1.11c2.07,0,4.69-.8,5.89-2.86a8.81,8.81,0,0,0,.86-4.49h3.58v5.54a2,2,0,0,0,.47,1.4,1.87,1.87,0,0,0,1.4.54h5.29V21.23h-4.62a.61.61,0,0,1-.65-.59"/><path class="cls-1" d="M176.62,12.9a24.66,24.66,0,0,1-2.08-5.2h-2a31.9,31.9,0,0,0,2.59,5.2Z"/><path class="cls-1" d="M209.08,13.64a1.75,1.75,0,0,0-1.4-.58H194.8V11.78h12.67a1.69,1.69,0,0,0,1.19-.45,1.3,1.3,0,0,0,.38-.94V9.09h0v-2H193v2h0v4.1c0,2.43,0,6.44-1.11,9h1.3a21.27,21.27,0,0,0,1.6-7.89h12.53a.34.34,0,0,1,.37.36v6.21a.41.41,0,0,1-.45.4h-3.18l0,1.26h3.64a1.87,1.87,0,0,0,1.27-.43,1.49,1.49,0,0,0,.5-1.16v-6.1a1.83,1.83,0,0,0-.4-1.22M194.8,8.8a.4.4,0,0,1,.42-.39h11.69c.22,0,.32.12.32.28v1.5a.28.28,0,0,1-.3.31H194.8Z"/><path class="cls-1" d="M205.44,20.26a1.35,1.35,0,0,0,.32-.87v-1.9h0v-2H198a1.61,1.61,0,0,0-1,.33,1.18,1.18,0,0,0-.52.95v1.93h0v2h7.78a1.53,1.53,0,0,0,1.14-.45M204,19.09a.33.33,0,0,1-.36.34h-5a.34.34,0,0,1-.38-.33v-2a.37.37,0,0,1,.38-.34h5a.36.36,0,0,1,.4.36Z"/><path class="cls-1" d="M166.25,21V17a1.49,1.49,0,0,0,.93-.45,1.27,1.27,0,0,0,.36-.87V8.51h0V7.07H162a1.54,1.54,0,0,0-.95.36,1.34,1.34,0,0,0-.54,1v8.59h1.77c0,2.29-.3,3.94-1.84,4.31h0v1.23h0s3.38-.23,3.38-5.54h.75V21a1.5,1.5,0,0,0,.45,1.13,1.51,1.51,0,0,0,1.12.46h2.33v-1.3h-1.81a.4.4,0,0,1-.37-.34m-.44-5.54a.41.41,0,0,1-.38.39h-2.86c-.2,0-.38-.12-.38-.27V14.05h3.62Zm0-2.62h-3.62V11.18h3.62Zm0-2.82h-3.62V8.69a.4.4,0,0,1,.44-.38h2.8c.16,0,.38.17.38.33Z"/><path class="cls-1" d="M156.88,20h2.71V18.78h-2.71v-.89h2.71V16.72h-2.71v-.9h2.74V14.67H157a11.09,11.09,0,0,1-.36-1.18h-1.73c.08.33.24.9.32,1.18h-1.55c.14-.31.32-.83.44-1.2h-1.75a9.62,9.62,0,0,1-2,3.61h1.09v2.27h0v2.81h8.27V21h-2.79Zm-1.71,1h-1.45a.53.53,0,0,1-.54-.52V20h2Zm0-2.23h-2v-.89h2Zm0-2.06h-2v-.9h2Z"/><path class="cls-1" d="M155.91,10.42a.79.79,0,0,0-.24.53v1.23a.83.83,0,0,0,.3.57,1.1,1.1,0,0,0,.69.27h2.13a1.08,1.08,0,0,0,.69-.27.92.92,0,0,0,.26-.61V11s0,0,0-.07v-.77h-3.15a1.06,1.06,0,0,0-.67.26m1.23,1a.29.29,0,0,1,.3-.26H158a.24.24,0,0,1,.27.26v.27a.3.3,0,0,1-.31.27h-.52a.25.25,0,0,1-.28-.27Z"/><path class="cls-1" d="M154.93,10.16h-3.32a.9.9,0,0,0-.6.25.83.83,0,0,0-.27.59v1.14a.89.89,0,0,0,.31.63,1.07,1.07,0,0,0,.66.25h2.21a1,1,0,0,0,.77-.3.9.9,0,0,0,.24-.65v-.94s0-.09,0-.13h0Zm-1.51,1.57a.27.27,0,0,1-.3.25h-.56c-.19,0-.31-.11-.31-.24v-.29a.24.24,0,0,1,.24-.25h.63c.14,0,.3.11.3.24Z"/><path class="cls-1" d="M63.67,14.56h3V13.43h0s0-.09,0-.14v-.64a1.14,1.14,0,0,0-.42-1,1.64,1.64,0,0,0-1-.31H52.77a1.41,1.41,0,0,0-.88.29,1,1,0,0,0-.41.83v.93h0v1.12h2.94a8.08,8.08,0,0,0,.68,1.06H50.34v1.14h2.87c0,.27,0,.66,0,.87H50.44V18.8H53s-.34,2.7-2.54,2.88v.94a3.15,3.15,0,0,0,1.66-.33,5,5,0,0,0,2.58-3.21.64.64,0,0,0,0-.07l.05-.21h1.85c.22,0,.47.2.47.38V21a.41.41,0,0,1-.43.4H54.84v.86l2.28.33a1.81,1.81,0,0,0,1.25-.4A1.46,1.46,0,0,0,58.82,21v-3.4h-3.9c0-.29,0-.65,0-.87H67.82V15.62H63.09c.14-.25.44-.77.58-1.06M53.62,13.44a.35.35,0,0,1-.33-.29v-.34a.31.31,0,0,1,.33-.29H64.46a.28.28,0,0,1,.3.27v.32a.36.36,0,0,1-.36.33H53.62Zm7.48,2.18H57.16a8.08,8.08,0,0,1-.75-1.06H61.7a7.39,7.39,0,0,1-.6,1.06"/><path class="cls-1" d="M84.84,15.31h1.94a19.9,19.9,0,0,1-1.18-1.7H84.08a10.33,10.33,0,0,0,.76,1.7"/><path class="cls-1" d="M78.74,10H71.9v1h6.84v.85h-7.3V13H87.82V11.9H80.58v-.85h6.73V10H80.58v-.8H88V8.11H82.85a15.13,15.13,0,0,0,1.21-1.28H81.75a9.17,9.17,0,0,1-1,1.28H78.58a13.79,13.79,0,0,1-1-1.28H75.43c.36.39.85,1,1.09,1.28H71.16v1.1h7.58Z"/><path class="cls-1" d="M88.24,16.93V15.79h-4.8c-.12-1.26-.15-2.35-.15-2.35H81.43a17.34,17.34,0,0,0,0,2.35H76.81v-1c.82-.05,2-.16,2.66-.23V13.22a37.46,37.46,0,0,1-7.69.85v.87c.83,0,2.44,0,3.27,0v.85H71.12v1.14h3.93v1.41c-1,.12-3,.23-3.93.3v1.59a33.9,33.9,0,0,0,3.93-.54v1.12a.41.41,0,0,1-.42.39l-1.92.32,0,.84h2.42A1.83,1.83,0,0,0,76.4,22a1.29,1.29,0,0,0,.41-1V19.35a26.64,26.64,0,0,0,3.1-.76v-.87c-.75.12-2.24.32-3.1.4V16.93h4.72a8.52,8.52,0,0,0,.69,2.57,1.32,1.32,0,0,0,.12.22,1.7,1.7,0,0,0,.2.29,19.56,19.56,0,0,1-2.67.75v1.18a21.87,21.87,0,0,0,3.78-1l.24.16a6.16,6.16,0,0,0,.63.32l.29.13.61.24.14,0a10.26,10.26,0,0,0,2.51.48V21.23l-.6-.11-.17-.05a6.64,6.64,0,0,1-1.93-.79,15.25,15.25,0,0,0,2.07-1.11V17.41a15,15,0,0,1-3.18,1.91.1.1,0,0,0,0-.05,2.92,2.92,0,0,1-.21-.4h0a9.13,9.13,0,0,1-.45-1.94Z"/><path class="cls-1" d="M107.72,16.9h-1.67a21.15,21.15,0,0,0,2,5.26h1.45a23.14,23.14,0,0,1-1.8-5.26"/><path class="cls-1" d="M93.11,17.08a12,12,0,0,1-1.59,4.28h1.32a8.13,8.13,0,0,0,1.94-4.28Z"/><path class="cls-1" d="M99.93,19.42a7.12,7.12,0,0,1-.34-.87,7.6,7.6,0,0,1-.34-1.47H97.73a6.71,6.71,0,0,0,1,2.78h1.42l-.21-.44"/><path class="cls-1" d="M106.57,15.12c.14.25.4.74.56,1h2a10.57,10.57,0,0,1-2-2.94h-1.44c.22.56.5,1.19.74,1.7h-3.18l5-4.93h-2.23l-1.41,1.39h-1.73l2.9-2.83a13,13,0,0,0,3-.81V6.8a38.24,38.24,0,0,1-8.41.71V9c.93-.06,2.2-.16,2.88-.22l-2.45,2.38a.81.81,0,0,0-.06,1,.86.86,0,0,0,.76.41h1.83L101,14.83a.72.72,0,0,0-.14.87.79.79,0,0,0,.7.39h2.13V21a.41.41,0,0,1-.42.37h-1.37v1.25h2a1.33,1.33,0,0,0,1.5-1.48v-5h.65Z"/><path class="cls-1" d="M101.5,16.9a18.11,18.11,0,0,1-1.12,3.23h0a13.28,13.28,0,0,1-.67,1.22h1.4a12.86,12.86,0,0,0,2.08-4.46Z"/><path class="cls-1" d="M100.29,15.09H94.08a.39.39,0,0,1-.38-.36V7.14H92.14v6.62a4.83,4.83,0,0,0,.27,2,1.72,1.72,0,0,0,1.33.54h1.79v4.59c0,.31-.3.43-.57.43H93.8v1.25h1.87a1.67,1.67,0,0,0,1.16-.42,1.27,1.27,0,0,0,.41-1V16.3h3.05Z"/><path class="cls-1" d="M96.17,14.3h3.62v-1h0V8.86c0-1-.16-1.52-.5-1.79a1.63,1.63,0,0,0-1.09-.34H96.13a1.69,1.69,0,0,0-1,.29c-.33.23-.51.75-.51,1.76V14.3Zm0-6.2a.29.29,0,0,1,.32-.33h1.37a.32.32,0,0,1,.32.31v.83h-2Zm0,1.85h2v1.14h-2Zm0,2.15h2v.78a.34.34,0,0,1-.36.34H96.51a.32.32,0,0,1-.32-.34Z"/><path class="cls-2" d="M18.71,16.76a16,16,0,0,1-6.38-.62c-4-1.06-4-6.51-4-6.51l-1.61-.2s-2.35,6.85,3.31,10.9a4.23,4.23,0,0,1-3.58,4.3C3.91,25.16,2,23,2,23L.32,24s3.77,7,10.61,5.11a15.26,15.26,0,0,1,3.59,5.68L19.37,36A32.76,32.76,0,0,1,17,27.49a19.9,19.9,0,0,1,1.67-10.73"/><path class="cls-3" d="M18.71,16.76a16,16,0,0,1-6.38-.62c-4-1.06-4-6.51-4-6.51l-1.61-.2s-2.35,6.85,3.31,10.9a4.23,4.23,0,0,1-3.58,4.3C3.91,25.16,2,23,2,23L.32,24s3.77,7,10.61,5.11a15.26,15.26,0,0,1,3.59,5.68L19.37,36A32.76,32.76,0,0,1,17,27.49,19.9,19.9,0,0,1,18.71,16.76Z"/><path class="cls-4" d="M37.5,23.52l-1.21-1.64s-6.94,7.94-10.6,2.62C24,22.09,24.61,17.35,27.1,13.12l-1.63-1.06a18,18,0,0,0-4,8.15c-1.21,5.62,0,8.27.39,11.59.34,2.69-.47,5.05-.58,6.58-.08,1.11.42,1.3,1.31.76A23.65,23.65,0,0,1,25.73,38a18.85,18.85,0,0,1,3.61-.88,59.6,59.6,0,0,1-1-6.44,15.27,15.27,0,0,0,9.15-7.11"/><path class="cls-3" d="M37.5,23.52l-1.21-1.64s-6.94,7.94-10.6,2.62C24,22.09,24.61,17.35,27.1,13.12l-1.63-1.06a18,18,0,0,0-4,8.15c-1.21,5.62,0,8.27.39,11.59.34,2.69-.47,5.05-.58,6.58-.08,1.11.42,1.3,1.31.76A23.65,23.65,0,0,1,25.73,38a18.85,18.85,0,0,1,3.61-.88,59.6,59.6,0,0,1-1-6.44A15.27,15.27,0,0,0,37.5,23.52Z"/><path class="cls-4" d="M31.09,22a2.09,2.09,0,1,1-1.81-2.32A2.09,2.09,0,0,1,31.09,22"/><path class="cls-3" d="M31.09,22a2.09,2.09,0,1,1-1.81-2.32A2.09,2.09,0,0,1,31.09,22Z"/><path class="cls-2" d="M19.47,13.4a2.28,2.28,0,1,1-2-2.53,2.27,2.27,0,0,1,2,2.53"/><path class="cls-3" d="M19.47,13.4a2.28,2.28,0,1,1-2-2.53A2.27,2.27,0,0,1,19.47,13.4Z"/><path class="cls-5" d="M34.6,7.75c.24-1.75-.17-3.46-.44-3.57s-5,4.12-4.91,7.28c0,1.88.39,2.59.93,2.74.76.21,3.92-2.85,4.42-6.45"/><path class="cls-3" d="M34.6,7.75c.24-1.75-.17-3.46-.44-3.57s-5,4.12-4.91,7.28c0,1.88.39,2.59.93,2.74C30.94,14.41,34.1,11.35,34.6,7.75Z"/><path class="cls-6" d="M24.13,3.37C23.69,1.66,22.66.23,22.37.24c-.44,0-3,5.68-1.79,8.59.74,1.73,1.35,2.26,1.91,2.19.78-.1,2.55-4.12,1.64-7.65"/><path class="cls-3" d="M24.13,3.37C23.69,1.66,22.66.23,22.37.24c-.44,0-3,5.68-1.79,8.59.74,1.73,1.35,2.26,1.91,2.19C23.27,10.92,25,6.9,24.13,3.37Z"/><path class="cls-7" d="M42.63,17.33c1.28-1.22,2-2.82,1.87-3.07s-6.44.15-8.37,2.67c-1.14,1.48-1.29,2.28-1,2.73.47.64,4.84.19,7.46-2.33"/><path class="cls-3" d="M42.63,17.33c1.28-1.22,2-2.82,1.87-3.07s-6.44.15-8.37,2.67c-1.14,1.48-1.29,2.28-1,2.73C35.64,20.3,40,19.85,42.63,17.33Z"/><path class="cls-8" d="M39.15,33.36c1.63-.69,2.89-1.92,2.85-2.21s-6.07-2.16-8.77-.5c-1.6,1-2,1.66-1.88,2.2.21.77,4.45,1.92,7.8.51"/><path class="cls-3" d="M39.15,33.36c1.63-.69,2.89-1.92,2.85-2.21s-6.07-2.16-8.77-.5c-1.6,1-2,1.66-1.88,2.2C31.56,33.62,35.8,34.77,39.15,33.36Z"/></svg>