<svg id="圖層_1" data-name="圖層 1" xmlns="http://www.w3.org/2000/svg" viewBox="0 0 166.67 40"><defs><style>.cls-1{fill:#fff;}.cls-1,.cls-3{fill-rule:evenodd;}.cls-2{fill:#002566;}.cls-3,.cls-4{fill:#eee;}</style></defs><title>footerMOC</title><path class="cls-1" d="M12.79,1.25s-.52-.23-2.39.3S6,2.34,4.45,6.77L4,8a21,21,0,0,0-.75,2.14c-.46,1.53.52,21,1.82,22L8,34.33s7.56,4.23,10.48,1.72,16.18-8.34,16.46-12.28,2.65-4.18-1.43-11.19S16.46.91,12.79,1.25Z"/><path class="cls-2" d="M36.91,19.53,33.5,8.31c-1.22-4-5.4-7.21-9.32-7.21h-11c-.2,0-.41,0-.61,0a6.64,6.64,0,0,0-1,.15c1.61.29,2.87,1.08,3.16,1.79,0,0,3,4.69-1.23,13.53a13.08,13.08,0,0,0-1.65-8.7,12.26,12.26,0,0,1,.39,8.49s-.56-4.68-6.44-8.54A3.44,3.44,0,0,1,4.55,6.59,8.44,8.44,0,0,0,4,7.93c1.74.88,6.78,3.8,7.85,8.19,0,0-2.38-2.75-4.78-3s-2.16-1.3-2.59-1.8a8.2,8.2,0,0,1-1-1.57l-3,9.81A11.65,11.65,0,0,0,4,31.23l1.13.87A8.84,8.84,0,0,0,7,28.48a2.29,2.29,0,0,1,.56-1.74l.82-1.11a5.29,5.29,0,0,1,1.19-3.49,10.69,10.69,0,0,0,1.56-2.28,11.88,11.88,0,0,1-.84-1.15c-2.37-3.64-2-4.24-2-4.24s.52-.54,4,3.38a4.19,4.19,0,0,0,3.05,2.33c2.25.39,5.17,2.5,5.42,3.64s-2,.63-2.93.53a4.28,4.28,0,0,1-2.55-1.44,5.7,5.7,0,0,0-1.42,1.92,4.34,4.34,0,0,1-2.71,2.35c-.58.38-.27.71-1,1.65a2.19,2.19,0,0,1-1.68.89,16.51,16.51,0,0,1-2.6,3l.34.27c3-.78,3.42-1.57,3.42-1.57-.27-1.32,1.95-1.28,2.45-1.29s.31.36.31.36c-1.18,2.35-2.19,1.8-2.19,1.8a29.69,29.69,0,0,1-3.26,1.09l1.17.05c1.09,0,2.21,0,3.3,0l.42,0h.08a2.17,2.17,0,0,0,1-.29c.1-1.34,2.21-.63,2.7-.48s.2.44.2.44c-1.76,1.88-2.58,1-2.58,1a3.28,3.28,0,0,1-.52,0c-.6,0-2.56.14-4.91,0l5.16,4a9.93,9.93,0,0,0,11.51,0l9-6.93C36.52,28.77,38.12,23.51,36.91,19.53Zm-21-16.37s5.06,1.63,7.63,3.48c0,0-2,3.41-10.11,10.68C13.39,17.32,18.22,8.36,15.87,3.16Zm-.58,15.5a36,36,0,0,1,4.06-5.95,40.64,40.64,0,0,0,4.18-6s6.26,5.12,5.07,7.52C28.6,14.19,22.46,12.35,15.29,18.66ZM29,25.17c-1.58-.52-1.66,0-1.71.3a2,2,0,0,1-.28.66c-1.36,2.21-4.85-.35-5.67-2.67S17,19.53,17,19.53c7.83-2.7,15.2,3.56,15.2,3.56C32.48,24.58,30.54,25.68,29,25.17Zm3.87-3s-7.23-6.46-15.92-2.8c0,0,5.56-5.42,12.68-4.6C29.59,14.74,34.85,18.83,32.83,22.14Z"/><path class="cls-3" d="M61.23,2c.05,0,.11,0,.16,0s0,.06.07,0,0,.05.09,0,0,.05.09,0,0,0,0,0,0,0,0,0,0,0,.06,0,0-.06,0-.06l0,0s0,0,.05,0,.09,0,.12,0,0,0,0,0,0,0,.07,0,0,0,0,0l0,0c.06,0,.26,0,.35,0s0,0,.05.05h.2s.08,0,.11-.06.08,0,.12.08,0,0,.08,0,0,0,0,0,.09.11.12,0,0,.07.08.08.11,0,.13,0,.09,0,.1,0,.06.1.13.08,0,0,0,0,.08,0,.11,0,0,0,0,0,0,0,.05,0,0,0,0,0,0,0,0,0a.48.48,0,0,0,.12,0,.56.56,0,0,0,.13,0s.07.07.1.1.14,0,.18,0h.08s0,.13.09.09,0,.06.07.06,0,.06.07.09.06,0,.09.05.07,0,.08,0a.31.31,0,0,1,.09.11c.06,0,.08.06.13,0a.87.87,0,0,1,.09.11s.05,0,.06,0,0,0,0,0,0,0,0,.06,0,.12,0,.18,0,0,.05.06,0,.12,0,.17a1.69,1.69,0,0,1,.08.24s0,0,0,0,.08.2.07.33,0,.08,0,.12,0,0,0,.06v0l0,0s0,.07.05.1,0,.09,0,.14,0,0,0,0l0,0c0,.08.05.07,0,.14s0,0,0,0,0,0,0,0,0,0,0,.07v0s0,.09.11.07,0,.09,0,.1h.09c0,.06.1,0,.14.1h.06s0,.05.05.07h0s.09,0,.1.06h0s0,0,0,0h.11s.11,0,.15,0,0,0,.07,0,0,0,.05,0,0,0,.06,0,.1.12.11,0,.23,0,.29,0,0,0,.06,0,.07.08.11.11,0,0,.09,0l.06.06h.22s0,.06.07.07,0,0,.07,0,.11,0,.13,0a.27.27,0,0,1,.18.05h.26s0,.09.06.1,0,0,0,0,0,0,0,0h.1a.05.05,0,0,0,0,0s0,0,0,0,0,0,0,0h.08s0,0,0,0,0,0,0,0l.06,0c.07,0,.13.08.21,0l.12.14s.06,0,.09,0,.09,0,.14,0l.15.14c.07,0,.1,0,.14,0s0,.06.08.08,0,0,0,0l.06.06s0,0,.1,0,.07.12.12.17a.38.38,0,0,1,.24,0s0,0,0,0,.08.12.13.13.06,0,.1,0,0,0,0,0,.09,0,.11,0,.15.1.22.14,0,0,.06,0,0,0,.08.07,0,0,.08.05,0,0,0,0,0,0,0,0h.2s0,0,0,0,.11,0,.14,0,.16,0,.14-.06h.08a.6.6,0,0,0,.08.08c.08,0,.09.07.14.1h.17s.06.08.09.09.06,0,.13,0,0,.1,0,.13h.21s0,0,0,0h0a.07.07,0,0,0,0,0s.08,0,.1,0h.08s0,0,.06,0l.08.07a.14.14,0,0,1,.14.05s0,0,.09,0S74,8,74,8s0,0,0,0,0,0,.06,0,0-.06.06-.06,0,0,0,0,.06-.05.09,0,0,.06.08.08,0,0,0,0l.08.08h.06c0,.06.07.09.11.14h0s0,0,0,.06l.1.11c0,.13.1.18.16.26s0,.07,0,.09a.22.22,0,0,0,0,.08s0,.1,0,.12a.33.33,0,0,0,0,.14s0,0,0,0,0,.07,0,.09,0,0,0,0,0,0,0,.05,0,0,0,.08-.06,0-.07,0-.08.1-.14.14,0,0,0,0-.06,0-.11,0,0,.11-.07.13v0a.43.43,0,0,1-.07.1h-.08s0,.15-.11.12a.5.5,0,0,0-.12.13c-.09,0-.14,0-.18.09h0s0,0-.07,0l0,0h-.08s0,.06-.09,0,0,0-.06.05-.11,0-.11.05-.13,0-.18,0-.06,0-.08,0,0,0,0,0a.4.4,0,0,1-.22-.05c-.07,0-.15,0-.18-.05s0,0-.06,0a.19.19,0,0,0-.17-.12s0,0,0,0h-.13a.2.2,0,0,0-.13,0s0,0-.06,0-.21,0-.26-.05h0s-.07-.06-.11-.09-.1,0-.13-.05-.08,0-.1,0a.11.11,0,0,0-.11,0s0-.14-.09-.1l0,0s0,0,0,0h0s0-.05,0-.05,0,0-.07,0h0s0,0-.07-.06-.07.07-.12,0h-.13s0-.07-.08-.05,0-.08-.06-.1-.12,0-.16,0-.13,0-.16,0a.44.44,0,0,1-.26,0h0s-.1-.08-.12,0a.11.11,0,0,1-.12-.05.1.1,0,0,1-.13-.05s0,0,0,0-.08-.12-.15-.15h-.34s-.1-.12-.14-.05h-.26s0,0-.07,0,0,0,0,0,0,0,0,0a0,0,0,0,1,0,0h-.08l0,0h-.08s-.06,0-.08.08h0s-.08,0-.1,0h-.07c-.06,0,0,.09-.08.12h0c-.07.06-.11.12-.17.18s0,0,0,0l-.11.12c0,.09,0,.11,0,.18s0,0-.06.06,0,.08-.08.11,0,.07,0,.07l0,0a.68.68,0,0,1,0,.14s0,0,0,0,0,0,0,.06-.08,0-.07.06,0,0-.06.09a.08.08,0,0,1-.08.09s-.07,0-.05.08,0,.05,0,.07,0,0-.08,0-.06.07-.1.1-.1.06-.15.09-.08.09-.11.15,0,0-.1,0l-.1.07v.09h-.06s0,0-.06.06,0,0,0,0-.17.15-.23.27-.05,0-.06.05v0s0,0,0,.07,0,.08,0,.14a.88.88,0,0,1,0,.15.14.14,0,0,0-.1.07h0s-.07.09-.12.11v.33s0,0,0,0,0,.08,0,.13-.06,0,0,.09-.06.06-.07.09,0,0,0,.1,0,0,0,.06,0,0,0,0l-.05.06c0,.09,0,.14,0,.23l0,0c0,.11,0,.2,0,.33l0,0v.07s0,0,0,.09,0,0,0,0,0,0,0,0,0,0,0,0l0,0a.33.33,0,0,0,0,.1c0,.05.07.06.09.1v0l.16.18a.07.07,0,0,0,.08.09s0,0,0,0a.11.11,0,0,0,.07.06s0,0,0,.07,0,.05,0,.07.14.07.22,0,.08.16.18.15l0,.05s0,0,0,0,.06.07.1.1h0l.08.07c.1,0,.1.14.19.12s0,.12.07.1.06.12.14.14,0,.05.05.07,0,0,0,0,.08.09.12.13a.07.07,0,0,0,.08.09c0,.06.07.15.14.15s.05.11.11.09v.07s0,0,0,0,.12.12.16.19.09,0,.09.09,0,0,.07,0,.06.06.13.07,0,0,0,.05.09.06.14.09a.11.11,0,0,1,.13.05c.1-.05.13.07.18.09h.08s0,.06.08.07.06,0,.1,0a.5.5,0,0,1,.07.08h0s0,0,0,0,0,0,0,0,0,0,0,0,0,0,0,0,.07,0,.09,0a1.06,1.06,0,0,1,.15.15c.05,0,.09,0,.11,0s.06,0,.08,0l0,0s0,0,0,0,.06.07.1.1,0,0,.07,0h0s0,0,0,0,0,0,0,0l0,0s0,0,0,0,.07.06.13.05,0,0,.05,0v0c0,.05,0,.1.1.1a.63.63,0,0,1,.12.11c.08,0,.09.07.13.1s.09.07.14.1.16.13.23.14,0,0,0,0a.13.13,0,0,1,.12,0h.33s0,0,0,0,.18,0,.22,0,.08,0,.1,0,0,0,0,0,.1,0,.13-.08.1,0,.19,0a.07.07,0,0,1,.11,0c.07,0,.14,0,.18.05s0,0,0,0,.08,0,.11.06.08,0,.11,0,.06.06.1,0,.13,0,.16,0h.08v0l.07.08h0s0,0,.08.06,0,0,0,0,0,.06.09.05a1.33,1.33,0,0,1,.16.17s.11.15.15.15,0-.06.07-.06,0,0,.06.06,0,0,.07,0,.08,0,.12.06,0,0,0,0,0,0,0,0,0,0,0,0a.24.24,0,0,0,.12,0l0-.05s.1,0,.13,0,.06.06.1.09h0s0,0,.07,0,0,0,0,0,0,0,.08,0,0,.05.07,0,0,.11.1.07,0,.05.06.06.13.1.19,0,0,.07.08.08.11,0,.14,0,0,0,.06,0l0,0s0,0,.08,0,0,.08,0,.1.13,0,.16,0h.08s.08,0,.1,0h0s0,0,.08.07.15,0,.22,0,0,0,.06,0,0,0,.08,0,0,0,0,0a.33.33,0,0,1,.14,0s.05.06.08,0,0,.08.09.08,0-.06.07-.06,0,0,0,0,0,0,0,0,0,0,0,0,.05,0,.06-.06c.17,0,.4,0,.63,0,0,0,0,.05.06,0a.21.21,0,0,0,.15.07s0,0,.06,0,0,0,.07,0h0s0,0,0,0h.08a.34.34,0,0,0,.06.06s0,0,0,0l.06.05s.08.05.14,0,0,0,0,0h.2a.6.6,0,0,0,.19,0s0,0,0,0,0,.06.06,0,.09.13.14.05a.48.48,0,0,0,.17,0s.09,0,.11.06,0,0,.05,0,0,.06.07.09.06,0,.09,0,0,0,0,0,0,0,0,0,0,0,0,0,0,0,.09,0,0,.05.08.08,0,0,.07,0,0,.05.07,0,.06.11.11.08l0,0s0,0,0,0,0,0,.06,0h.68s.07,0,.08-.05h.14s0,.05.06.05,0,0,.07-.05.06,0,.08,0,0-.05,0-.06.13,0,.14-.05a.06.06,0,0,0,.08-.08l.09-.11s.1,0,.12,0,0,.11.12.07,0,0,0,0,0,0,0,0,0,0,.06-.06.06,0,.07,0,.2,0,.29,0a.07.07,0,0,0,.14,0c.12,0,.25,0,.38,0s0,0,0,0a.14.14,0,0,0,.18,0,.05.05,0,0,0,.09,0,.05.05,0,0,0,.09,0s0,0,0,0,0,0,0,0,.06.07.09,0a.05.05,0,0,0,.09,0c.06.05.16,0,.21.08s.11,0,.16,0a0,0,0,0,1,0,0l0,0s.08,0,.12,0,.08,0,.1.06h.08s0,.07.1.05v0a.7.7,0,0,0,.13.16.1.1,0,0,0,0,.08s0,0,0,0,0,.08,0,.11,0,.1,0,.19a.21.21,0,0,1,.08.12s0,.08,0,.09,0,0,0,.05,0,.13,0,.19,0,0,0,0-.09.08-.07.13,0,0,0,0,0,0,0,.06-.06.1-.08.14,0,0,0,0l-.1.11c0,.05,0,.1-.07.09s-.19.19-.28.28,0,0,0,0S84.09,22,84,22s0,0,0,.05a.08.08,0,0,0-.11.09h0s-.07.11-.14.1,0,0,0,0-.15,0-.13.09l-.1.1c-.07,0-.1.06-.16.05a.32.32,0,0,0-.1.1H83s0,0-.06,0,0,.05-.08.08-.06.06-.13,0-.1.07-.11.14-.08.07-.11.1-.11,0-.09.08-.08,0-.09.06h0s0,.05-.07.08v.06c-.07,0-.17,0-.15.09s-.08.1-.12.13v.11a.77.77,0,0,0-.16.15s0,0-.1,0,0,0,0,.05a.19.19,0,0,0-.11.12s0,0,0,.05h0a2.61,2.61,0,0,0-.23.24s-.08,0-.07.07-.13,0-.13.06,0,0,0,.05-.09,0-.13.07,0,0,0,0,0,.17-.14.15,0,.06-.09,0a.53.53,0,0,0-.17.19s0,0,0,0v.11c-.06,0-.08,0-.11.07s0,0,0,0a.34.34,0,0,1-.06.06c0,.06,0,.05,0,.12s-.06,0-.11,0l0,0v0c0,.08-.1.06-.13.11s0,0,0,0,0,0,0,.05h0a.18.18,0,0,0,0,.07s0,0-.07.06-.09,0-.13,0l-.06,0,0,.05s0,0,0,0,0,.06-.06.06,0,0,0,0a.09.09,0,0,0-.11,0c-.05,0-.11,0-.16,0s0,.05,0,.06-.16-.05-.18,0a.32.32,0,0,0-.32.09c-.13,0-.12.1-.21.1s-.06.06-.1.1h0a.33.33,0,0,1-.16.07c-.06,0,0,.09-.08.13s-.07,0-.08.05h0c-.06.08-.2,0-.24.09h-.39s0,0,0,0,0,0,0,0,0-.09-.09-.05,0-.06,0-.08l-.08,0s0-.06-.07-.08-.13,0-.19,0,0-.06-.07-.06,0,0,0-.07h-.07a.23.23,0,0,0-.18-.09c-.06,0-.09-.11-.15-.15a1,1,0,0,0-.17,0s-.06-.07-.1-.1-.1-.08-.15-.12h-.07s0-.09-.09-.07a0,0,0,0,0,0,0c-.07-.1-.16-.17-.23-.26s0,0,0,0a.12.12,0,0,0-.12-.13s0,0,0-.07a.93.93,0,0,0-.13-.15c0-.08-.06-.1-.09-.14s0,0,0,0,0-.06-.08-.06-.06-.08-.1-.12-.07,0-.12,0,0-.05-.07-.05,0-.06,0-.08,0,0,0,0,0-.06-.09-.06-.11-.11-.17-.16,0-.11-.07-.09,0-.07,0-.12,0,0-.05,0a0,0,0,0,1,0,0s-.06,0,0-.09,0-.05-.07-.08,0,0,0,0-.07-.14-.16-.14,0-.05,0-.07,0,0,0,0,0-.06,0-.08,0-.05-.08-.08-.06,0-.07,0a.6.6,0,0,1-.08-.08c0-.05,0-.11-.08-.09a.94.94,0,0,0-.1-.1s0,0-.07,0l-.06-.05c-.07,0,0-.07-.14-.05s0-.13-.07-.09l-.11-.11h-.06a0,0,0,0,0,0,0c0-.14-.12-.18-.22-.19s0,0,0,0,0-.06,0-.06,0,0,0-.06v0s0,0,0,0-.07-.06-.11-.1,0,0,0,0-.06-.09-.11-.1,0-.05,0-.05S72.06,22,72,22h0a.16.16,0,0,1-.08-.08c0-.06,0-.09-.08-.09s0-.07-.1-.07v0l-.24-.26h0a1.94,1.94,0,0,0-.23-.26v-.07s-.11,0-.08-.11-.09-.08-.12-.13,0,0-.07,0,0-.11,0-.18,0,0,0,0v0s0-.06-.07-.06V20.5s0-.11-.11-.13v0a.12.12,0,0,0-.06-.06s0,0-.05,0,0,0,0-.05h-.09c0-.11,0-.22-.12-.18s0-.16-.12-.13,0-.11-.08-.09,0-.16-.11-.12l-.1-.1h-.06c0-.09,0-.1-.08-.14a.11.11,0,0,1-.13-.05.12.12,0,0,1-.13-.05.18.18,0,0,1-.13,0s0,0,0,0-.11-.06-.13,0-.14,0-.18,0-.31.07-.37,0-.08,0-.12,0,0-.06-.07,0l-.12-.12s0,0-.06,0-.11-.13-.16-.2,0,0,0,0a.3.3,0,0,0-.08-.08s-.06-.1-.12-.09-.1-.07-.16-.1-.07-.07-.09-.12h-.08a.21.21,0,0,0-.18-.09s0-.05,0-.06,0,0,0,0,0-.05-.08-.07,0,0,0-.06a.13.13,0,0,0-.15-.05c-.07-.06-.1-.19-.22-.15s0,0-.06-.05-.06-.07-.13,0a.22.22,0,0,0,0-.06h-.33s0,0,0,0-.29,0-.38-.08-.09,0-.13,0a.15.15,0,0,0,0-.06.4.4,0,0,0-.11,0s0,0,0-.05-.05,0-.05,0a.07.07,0,0,0-.08-.09s0-.08,0-.1-.09-.05-.15,0,0-.05,0-.07-.07-.06-.12,0l0-.06c0-.11-.09-.12-.14-.19s0,0,0,0-.06-.09-.12-.1a.06.06,0,0,0,0-.05s0,0,0,0L64.7,17c-.06,0-.06-.06-.12,0a.6.6,0,0,1-.08-.08h0c0-.06-.1,0-.14-.1h0c-.06,0-.09-.12-.16-.15s0-.05,0-.05,0,0-.06,0,0,0,0,0-.13,0-.17,0,0-.05-.05-.05-.11-.09-.2-.08,0,0,0,0,0,0-.06,0,0,0,0,0l0,0s0,0-.08,0-.06-.09-.09-.15a1.83,1.83,0,0,1-.33,0l0,0h-.35c-.08,0-.14,0-.18.05s0,0-.1,0-.14.15-.21.22a.07.07,0,0,0-.08.09c-.06.07-.13.12-.19.19s0,0,0,0-.11,0-.14,0-.14.06-.18.1,0,0-.06,0l0,0a.47.47,0,0,0-.12,0c-.1,0-.14,0-.2.06h0s-.05,0-.05.08-.07.07-.11.1-.07,0-.09,0a.48.48,0,0,0-.12,0s-.09,0-.13,0,0,0-.07,0-.05,0-.07,0,0,.05-.06.06-.11,0-.11,0-.07.07-.1.1-.06,0-.1.05,0,0-.07,0,0,.17-.14.15,0,.05-.08.07a.21.21,0,0,0-.18,0v.05a.15.15,0,0,0-.11.07h0s-.1,0-.12.08-.05,0-.07,0,0,0,0,0,0,0-.07,0-.11.06-.17.1-.19,0-.17.1-.11,0-.12,0h0s0,.05-.05.05-.06,0-.08,0-.06,0-.08.07a.1.1,0,0,0-.11.11s0,0,0,0,0,.06-.07.06v.06s0,0-.06,0l-.1.1a.07.07,0,0,0-.08.09s-.1,0-.07.07L57.7,19c-.13,0-.2.15-.29.2v0s0,0,0,.05a.13.13,0,0,0-.09.1c-.06,0-.07.06-.12.09h0a.19.19,0,0,1-.09,0s0,0,0,0,0,0,0,0a0,0,0,0,0,0,.05s-.08,0-.11,0,0,0-.05,0-.06,0-.08.07h-.22a0,0,0,0,0-.06,0s0,0,0,0l-.05,0s0,0-.06.05h-.11l0,0s0,0,0,0l0,0s0,0-.05,0-.06.06-.08.08-.12-.07-.14,0,0,0,0,0-.09,0-.1.06-.13,0-.16.06-.06,0-.06,0H55s-.09,0-.1,0h-.15c-.07,0-.16,0-.18,0s-.07,0-.13,0,0,0,0,.06-.09.05-.16,0,0,0-.06,0a1.06,1.06,0,0,0-.15.15.11.11,0,0,0-.16.1c0,.07-.11.09-.13.18h-.06s0,0-.05.05h0a.29.29,0,0,1-.14,0,0,0,0,0,0,0,.05c-.05-.06-.09,0-.11.05h0s-.12,0-.16.08,0,0,0,0,0,.05-.06.07-.11.09-.1.19-.07,0-.09.06-.4-.05-.45.12c0,0,0,0,0,0s-.09.1-.13.15-.12,0-.12.05,0,0-.06.06a0,0,0,0,0,0,0,.25.25,0,0,1-.13.05.52.52,0,0,0-.1.11h0a.5.5,0,0,0-.11.1s-.11.05-.1.1,0,0-.06,0-.05,0-.05.08,0,0-.07.05-.06,0-.11,0l0,.06c-.05,0-.05,0-.1,0a.46.46,0,0,0-.12.12c-.05,0-.15,0-.16.05h0s-.05.05-.08.07a.14.14,0,0,0-.15.07h0a.34.34,0,0,0-.06.06c-.06,0-.11,0-.16,0s0,0-.06,0a.1.1,0,0,0-.06.05.07.07,0,0,0-.07,0H50a.44.44,0,0,0-.21.17c-.06,0-.06,0-.1,0a.2.2,0,0,0-.08.08s-.1,0-.1,0-.2.11-.28.17,0,0-.07,0h0s0,0,0,0H49S49,23,49,23.06s-.1,0-.11,0-.18,0-.21.05-.07,0-.12,0,0,0-.08.08a.17.17,0,0,0-.17.09h0s-.06.06-.1.09h0s0,0-.05.06-.07.06-.07.13h-.06s-.06.08-.1.1,0,.15-.08.14a.06.06,0,0,0,0,.05h-.05a.91.91,0,0,0-.17.17,0,0,0,0,0-.07,0s-.14,0-.16.05,0,.05-.08.06a.19.19,0,0,0-.16.09.12.12,0,0,0-.08,0l0,0s0,0,0,0,0,0-.07,0a.15.15,0,0,0,0,.06h0s0,0-.06.05-.2,0-.27,0-.07,0-.08,0-.06.05-.09.05,0-.05-.07,0,0,0-.06,0,0,0,0,0,0-.09-.1,0l0,0s0-.08-.09-.05,0,0,0,0l0,0s-.09,0-.14,0,0,0,0,0l-.12,0s-.06-.08-.1-.1,0,0,0,0l-.06-.06c-.07,0-.08-.06-.13-.09h-.08s0,0-.06-.06-.05,0-.1,0l-.33-.36h0c0-.07-.08-.1-.11-.15s0-.08,0-.13a.25.25,0,0,1,0-.19s0,0,0-.07l0,0s0,0,0,0,0-.1,0-.12v-.31s0,0,0,0,0-.07,0-.11a0,0,0,0,0,0,0V22s0-.09,0-.14,0,0-.08-.08-.05-.11,0-.21,0,0-.06,0,0-.15-.08-.21,0-.05,0-.08,0-.13,0-.22S44,21,44,21l0,0s.07-.08,0-.1,0,0,0,0,0-.06,0-.08,0,0,0,0v-.08s0,0,0-.06,0,0,0,0,0,0,0,0,0-.08,0-.13,0,0,0-.05,0,0,0,0,0-.06,0-.07,0,0,0-.05,0,0,0-.05,0-.14,0-.18,0-.13,0-.18,0,0,0-.05,0,0,0,0,0-.08,0-.08a2.44,2.44,0,0,0,0-.26s0,0,0-.08l-.07-.08V19s0,0-.06,0-.12-.13-.16-.2,0-.17-.11-.16a.18.18,0,0,0-.08-.13c.07,0,0-.11,0-.14a0,0,0,0,0,0,0s-.05,0,0-.1a.16.16,0,0,1-.05-.11s0,0,.05-.06,0,0,0,0,0,0,0-.05,0,0,0,0a.16.16,0,0,0,0-.06s0-.05-.07-.08a.07.07,0,0,0,0-.1s0,0,0,0a.27.27,0,0,0,0-.09l0,0v0c.06-.14.13-.28.28-.28s0-.05.06-.06.11,0,.1,0H44a.16.16,0,0,1,.12,0s0,0,0,0,0,0,.06-.05.07,0,.1.05.17,0,.2.08a.06.06,0,0,1,.07,0h.08c.05,0,.05.09.11.1s0,0,0,.05.08,0,.07.06,0,0,0,0a0,0,0,0,0,.09,0l.08.08s0,0,0,0,0,.07.09.05.06.09.12.1,0,0,0,.05,0,0,.06,0,0,0,0,0,.09.09.17.05.08.25.16.17c0,.1,0,.14.11.11s.08.09.11,0l.1.11a0,0,0,0,0,0,0,.18.18,0,0,0,.05.07c.07,0,.09.06.17,0a.08.08,0,0,0,0,.07s0,0,.05,0,0,0,0,.05.06,0,.08,0,.06.09.12.1.06.06.06.1.06,0,.1.05.11.1.18.14,0,0,0,0a.74.74,0,0,0,.12.13s0,0,.07,0,0,.08,0,.07a1.42,1.42,0,0,1,.13.12h.05c0,.06.07.08.1.11s0,0,.07,0h.12s.07,0,.1.05a.12.12,0,0,1,.13,0,.4.4,0,0,0,.11,0l0,0s0,0,.06,0,0,0,.06,0h.49s0,.07.1,0,0,0,0,0l.05,0a0,0,0,0,0,0,0s.06,0,.1,0,0,0,0,0,0,0,0,0a.11.11,0,0,0,.14-.11c0-.08.13,0,.13-.08s.09,0,.12-.06h0a.13.13,0,0,0,.07,0s0,0,.08,0,0,0,.05,0h0l0,0s0,0,0,0,0,0,0,0,.06,0,.07,0H50s0,0,0-.05.06,0,.09,0,.06,0,.07,0,.11-.13.15-.15.11,0,.13-.05.14-.06.19,0,.05,0,.08,0,.11.08.13,0,.07,0,.09,0,.15,0,.18,0,.06,0,.1,0,0-.06.06-.06,0,0,.05,0,.07-.11.14-.1a.28.28,0,0,0,.09-.1.12.12,0,0,0,.16-.07s.1.05.09,0,.07-.07.11-.1h0a.34.34,0,0,0,.09-.08s0,0,.06,0,.06,0,.08,0,0,0,0,0,0,0,0,0a.12.12,0,0,0,.1,0,.07.07,0,0,1,0-.08s0,0,.08,0,.12,0,.16,0a.17.17,0,0,0,.12-.1s0,0,.07,0l0,0s0,0,0,0a.2.2,0,0,0,.11,0s0,0,0,0,.07,0,.08,0,0,0,.08-.08.11-.05.17,0a.17.17,0,0,0,.06-.06s0,0,0,0,0,0,0-.05,0,0,0-.05.05,0,.07-.05,0,0,0-.08a.15.15,0,0,0,.16-.1c0,.1.09,0,.16,0s0,0,.08,0,.07-.06.09-.1.08,0,.1,0,0,0,0,0h.15s0,0,0,0,0,0,.06,0,0-.07,0-.07.08.08.08,0,.05,0,.07-.05h0a.5.5,0,0,0,.11-.1h.16a.21.21,0,0,1,.13-.05s0,0,.06-.05a.85.85,0,0,0,.16,0s0,0,0,.05h.13s.09,0,.13,0,0,0,.05-.05.19.05.22,0,0,0,0,0,0,0,0,0H56s0-.07.09-.05a0,0,0,0,0,0,0s0,0,.06,0,0,0,0,0,.06,0,.08,0,0-.05.08-.08a0,0,0,0,0,0,0,.32.32,0,0,0,.1-.1s0,0,.07,0,.1,0,.09-.05.05,0,.06-.08h0l.1-.1h0c0-.05.12-.07.15-.15s0,0,0,0a1,1,0,0,1,.16-.12c0-.06,0-.08,0-.14s0,0,.08,0,.12-.07.14-.14.07,0,.09,0h.08s0-.09,0-.11a.18.18,0,0,0,.18-.1s.08,0,.1,0l.08-.08s.05,0,.08,0,0,0,.08-.07.09,0,.08-.07,0,0,.08,0a.37.37,0,0,0,.12-.13s.06,0,.11,0,0-.06.07-.07h.08s0,0,0-.05.2.05.23,0,0,0,.1,0,.08-.06.1-.12,0,0,0,0a1.49,1.49,0,0,0,.18-.17s0,0,0-.08.09,0,.07-.08.09,0,.1-.06,0-.11,0-.16,0,0,0-.06a.1.1,0,0,0-.05-.13s0-.05,0-.08,0-.15,0-.21-.1-.12-.13-.15h0s0,0,0,0-.06,0-.1,0h-.07s0-.07-.09-.05-.11-.14-.16-.07,0-.07,0-.07,0,0,0,0,0,0,0,0h0s0,0-.05-.05h-.12s-.06-.06-.1,0,0-.07,0-.09-.05,0-.07,0-.08,0-.08-.11-.05-.1-.12-.1l-.1-.1s-.07-.05-.1,0,0-.23-.17-.25,0-.06-.07-.09,0,0,0,0a.29.29,0,0,1,0-.14s0-.06-.06-.06,0-.08,0-.12,0-.12-.05-.14,0-.06,0-.13,0,0,0,0-.09-.08-.09-.17,0,0,0,0,0-.06-.07-.09a.2.2,0,0,0-.09-.19s0,0,0,0a.29.29,0,0,1,0-.14c-.08-.07-.13-.17-.22-.23s-.08-.09-.12-.14-.13-.07-.21,0-.08-.09-.11,0h0l0,0s-.07,0-.11,0h-.1s0,.05-.08.08-.1,0-.13,0-.07,0-.07.08-.12,0-.15.07-.06,0-.11,0,0,.09-.08.1l0,0s-.07.06-.09.06,0,0,0,0-.08.11-.14.14h-.13l0,0s-.06,0-.08,0,0,0-.08,0,0,0-.06-.05,0,0,0,0,0-.05-.08,0,0,0-.08,0-.06,0-.11,0-.09,0-.11,0-.07,0-.09,0-.09,0-.14,0-.05,0-.08,0,0,0-.05,0,0,0,0,0h0s0,0,0,0,0,0,0,0,0,0-.06,0-.23,0-.29.07a.09.09,0,0,1,0,.08s-.07,0-.09,0-.07,0-.09,0h-.2a0,0,0,0,0-.07,0s0,0,0,0,0,0,0,0,0,0-.07,0h-.35s0,0,0,0l0,0c-.09,0-.18,0-.26,0l0,0s-.06,0-.07,0-.11,0-.15,0-.07,0-.08,0,0-.08-.06-.1,0,0-.06,0a.07.07,0,0,0-.08-.09l-.08-.07s0,0,0,0,0,0-.07,0,0-.06-.05-.08h0s0-.11-.08-.08,0,0,0-.06,0-.08-.09-.09,0,0,0,0a.12.12,0,0,0-.09-.1v-.07s0,0-.05,0,0-.06-.08,0v-.06a.35.35,0,0,1-.06-.17s0-.05-.07-.08S51,10.3,51,10.25s0,0,0,0a.71.71,0,0,0-.07-.09s0,0,0-.11,0,0,0,0v0s0,0,0,0,0-.14,0-.16,0,0,0-.06a.16.16,0,0,0,0-.12.71.71,0,0,0,.07-.09s0-.07,0-.07.06,0,0-.08.12-.08.12-.17,0,0,0-.06.05,0,.1,0L51.25,9c.07,0,.08,0,.16,0s.06,0,.11,0,0,0,.06,0,0,0,.06-.05h0s.1-.07.09-.14a.13.13,0,0,0,.15-.08s0,0,.07,0,.11,0,.14,0,.06,0,.06,0,0,0,0,0,.16,0,.21,0,.07.09.1.1h.25s0,0,.06.05.18,0,.21-.05h0s0,0,.06-.06.05,0,.07,0,.06,0,.1,0,.15.06.16,0,.14,0,.16-.05.08,0,.12,0a.29.29,0,0,1,.18,0,.07.07,0,0,1,.11,0h.13c.06,0,.14,0,.15,0s.1-.1.15-.15.12,0,.14,0h.12s.1,0,.11-.05.26.06.3-.07.05,0,.07,0,.05,0,.1,0,.07-.07.1-.1h0s0-.07.1,0,0,0,.05,0a.1.1,0,0,0,.13-.05c.07,0,.06-.07.13,0s0-.07.07-.08.13,0,.13-.07h.11s0,0,0,0,.06,0,.08,0,0,0,.08-.08a2,2,0,0,0,.25,0s0,0,0,0,.08,0,.11,0,0,0,0,0,.05,0,.08,0,0,0,.05,0,.15,0,.19-.11,0,0,0,0,.06,0,.07,0,0,0,0,0,0,0,0,0,.07-.09.11-.1h.25s0,0,0,0a.11.11,0,0,0,.13,0s0,0,0,0,0,0,0,0,.05,0,.09,0,0,0,0,0a.07.07,0,0,0,.11,0h.08l0,0s0,0,0,0h0s0,0,0,0,0,0,.05,0,.07,0,.1,0,0,0,0,0,0,0,0,0,0,0,0,0l0,0h.08s0,0,.06,0,0,0,.06,0H59s.06-.09.1-.11,0,0,.06,0h.08s0,0,.11,0l.07,0s0,0,0,0,0,0,0,0,0,0,.06,0,.1,0,.2,0,0,0,0,0,0,0,0,0,.07-.07.13,0L60,6.55s0,0,.06,0,.06,0,.08,0,0,0,0,0,0,0,0,0v0s0,0,.05,0h0s0,0,0-.07.14-.14.2-.23h0a.06.06,0,0,0,0,0c.08,0,.12-.11.18-.17s0-.11.06-.17V5.6s0,0,0,0,.07-.15.09-.25,0,0,0,0,0,0,0,0,0,0,0,0,0,0,0-.06-.05,0-.05-.07l0,0s0,0,0-.07,0-.06,0-.1a.53.53,0,0,1,0-.19s0,0,0,0,0,0,0,0,0-.14-.09-.1,0-.14-.11-.12a.25.25,0,0,0-.19-.09c0-.06,0-.06,0-.12a0,0,0,0,0-.06,0s0-.07-.09-.07S60.2,4,60.16,4s-.1,0-.15-.08h0c0-.07-.06-.09-.09-.14h-.08s0,0,0,0,0,0,0-.06v0s0,0,0,0,0-.06,0-.08-.06,0-.08-.09,0-.12,0-.14,0,0,0,0,0,0,0-.06,0-.14,0-.17.1-.07.06-.16,0-.12.1-.16,0,0,0,0a.87.87,0,0,0,.09-.11h0c0-.06.12-.08.12-.17h0A.07.07,0,0,0,60,2.3s.06-.06.1-.09,0,0,0,0,.07-.07.11-.08h0s0-.06,0-.06l0,0h.07s0,0,0,0,.11,0,.11,0h.32c0,.08.09,0,.1,0s.11,0,.16,0S61.21,2,61.23,2Zm1,7.45s0-.05,0-.06-.09,0-.13,0l0,0s-.07,0-.12,0a.26.26,0,0,0-.12.09s0,0-.07,0h-.21a.94.94,0,0,1-.1.1c-.05,0-.06,0-.08,0h-.13s0,0,0,0h0l0,0h-.12l0,0s0,0-.06-.05a.08.08,0,0,0-.1,0s0,0-.08,0,0,0,0,0a1,1,0,0,1-.17,0s0,0-.07,0a1.42,1.42,0,0,1-.12.13s-.08,0-.12,0l-.06.06c-.06,0,0,.06-.12,0l-.12.13s0,0-.05,0-.12.11-.12.15,0,0-.08.05,0,0,0,0-.07.06-.1.11,0,.09-.14.08a0,0,0,0,1,0,0v.19s0,.1,0,.14-.07,0-.07.09,0,0,.07.1,0,.08,0,.13a0,0,0,0,0,0,0v.12a1.31,1.31,0,0,1,.11.12.05.05,0,0,0,.06.07s.07.08.12.12.07,0,.09.05v0s0,.07,0,.11h.06s0,0,0,0a2.06,2.06,0,0,0,.25.26h0s0,0,0,.05h.05a.07.07,0,0,0,.09.09s0,0,.05,0h0s0,0,0,.05a1,1,0,0,0,.18,0s.08,0,.1.06h.13a.1.1,0,0,0,.13.05.5.5,0,0,0,.07.08s0,0,.08,0,0,0,0,0,.05.05.08.06h0a.32.32,0,0,0,.1.1c.06,0,.1.06.17,0s0,0,0,.07a.23.23,0,0,0,.08.09s0,0,.06,0h0s0,.05.06.05.05,0,.09,0,0,0,.07.06.06,0,.09,0,0,0,.05,0,0,0,0,0l0,0c.05,0,.11,0,.16,0l0-.06a1,1,0,0,0,.17,0s.06,0,.11,0a.68.68,0,0,0,.12-.12s.09,0,.15,0,.11,0,.16,0l0,0s0,0,0,0,.09-.13.19-.1l.13-.14h0s.06-.08.1-.09,0,0,.06,0v-.09s.06,0,.07-.08.07-.09.09-.15,0-.07.06-.11v-.13s0-.08,0-.13l0,0s0,0,0,0,0,0,0-.05,0-.06,0-.07.06,0,.06-.09,0,0,0,0,0-.05,0-.07,0-.08,0-.12l0,0s0-.07-.05-.1,0-.18,0-.27,0-.12,0-.19,0-.16,0-.23,0-.13-.06-.14,0,0,0,0a1.58,1.58,0,0,1-.12-.15s-.11-.13-.15-.14h-.08s0,0,0,0h-.06s0,0,0-.06a.26.26,0,0,1-.15,0,2.09,2.09,0,0,0-.25,0s0,0-.07,0a.1.1,0,0,0,0-.08h-.09c0-.05-.08-.06-.13-.07s0,0,0,0-.11-.05-.2-.05,0,0,0,0S62.23,9.5,62.19,9.49Z"/><path class="cls-3" d="M142.86,0s.21.08.12.12,0,0,0,0,0,0,0,0,.33.06.25,0c.15-.16,0,.09.13,0h0s0,0,0,0,0,0,0,0h0c.08-.08.21.12.14.15a.88.88,0,0,0,.23.16s0,0,0,0,0,0,0,0a.06.06,0,0,0,.09,0h0c.07,0,.1,0,.07,0s0,0,0,0l0,0c.06,0,.08,0,.06,0s0,0,0,0h0c.06,0,.07,0,0,0s.27.32.21.19c.19.08.24.11.16.11s.08,0,0,0,.09,0,.05,0,.09.07.05.05,0,.18,0,.13.15.11.16.18,0,0,0,0,0,0,0,0,0,0,0,0,0,0,0,0h0s0,0,0,0,0,0,0,0,.11,0,.08,0,0,0,0,0,0,.07,0,0,0,0,0,0h0a0,0,0,0,1,0,0s0,0,0,0,0,0,0,.06,0,0,0,0l0,0s0,0,0,0h0c0,.09,0,.1,0,.06s.06.13.08.13a.47.47,0,0,1,.18.12s0,0,0,0,0,0,0,0,0,0,0,0v0c.18,0,.25,0,.21.11s.15.1.1.08.06.1,0,0,.21.1.21.05.06,0,0,0,.06,0,0,0l.18.13s0,.07,0,.09,0,0,0,0,0,.11,0,.09l0,0s.08.08,0,.06c.12,0,.15,0,.1,0s0,.07,0,.07c-.28,0,.21.2,0,.17,0,0,0,0,0,0s0,0-.06,0h0s0,0,0,0h0c.06,0,.07,0,0,0s.27,0,.18.09,0,0,0,0c0,.2-.09.25-.12.18s0,0,0,0h0c0,.13,0,.17,0,.14s0,0,0,0h0c0,.05,0,.06,0,.05s-.07,0-.07,0,0,0,0,0h0s0,0,0,.06,0,0,0,0,0,.13,0,.12,0,.08,0,.06,0,0,0,0-.06.1,0,.08-.09,0,0,0-.08,0-.07,0,0,.06,0,0l0,0s0,0,0,0-.17.09-.11.07-.06,0,0,0,0,0,0,0h0c0-.1,0,0,0,0s0,0,0,.07,0,0,0,0a.26.26,0,0,1-.12.15s0,.09,0,.05l0,0h0s0,0,0,0,0,0,0,0,0,0,0,0,0,0,0,0,0-.06,0,0h0c-.07.06-.1.07-.1,0s0,.07,0,.1,0,0,0,0,0,0,0,0h0s-.05,0,0,0-.29,0-.22,0,0,0,0,0,0,0,0,0,0,0,0,0,0,0,0,0,0,0,0,0,0,0,0,0h0c-.05,0-.06,0,0,0s-.06-.09-.09,0,0,0,0,0-.13,0-.15,0h-.07s0,0,0,0,0,0,0,0,0,0,0,0,0,0,0,0,0,0,0,0h0s0,0,0,0,0,0,0,0,0,0,0,0-.14,0-.07,0,0,0,0,0h0c.07,0-.17-.07-.08-.06s0,0,0,0,0,0,0,0,0,0-.05,0,0,0,0,0,0,0-.05,0h0s0,0,0,0l0,0c-.16,0-.2,0-.13,0s0,.08,0,0-.06,0,0,0,0,0,0,0,0,0,0,0c-.19-.05-.24-.11-.16-.17s0,0,0,0,0-.07,0,0-.1,0-.07,0,0-.07,0,0h0s0,0,0,0,0,0,0,0,0,0,0,0,0,0,0,0,0,0,0,0a1.85,1.85,0,0,1-.41-.34s0,0,0,0,0,0,0,0-.07,0-.07,0,0,0,0,0h0s0,0,0,0,0,0,0,0a0,0,0,0,0,0,0s0,0,0,0,0,0,0,0-.06,0,0,0l-.08,0c-.07,0-.09,0-.05,0a0,0,0,0,1,0,0s0,0,0,0,0,0,0,0-.06.05,0,0,0,0,0,0v0c-.1.08-.12.11-.07.09s0,0,0,0a0,0,0,0,1,0,0h0s0,0,0,0c-.05-.17-.33.12-.33.12s0,0-.05,0h0c.06,0-.22,0-.13-.06s-.35.35-.28.15c0,0,0,0,0,0s0,0,0,0h0c-.19-.13-.25-.18-.16-.14-.11,0-.14.07-.09.07h0s0,0,0,0h0c0,.05,0,.07-.07.06h0q-.6,0-.39,0c0,.05,0,.06,0,0s-.22.08-.26,0-.08,0-.05,0,0,0,0,0,0,0,0,0-.17.09-.12.09-.14,0-.14.11h0a0,0,0,0,0,0,0s0,0-.06,0,0,0,0,0,0,0-.09,0,0,0,0,0a0,0,0,0,0,0,0s-.33.12-.32.08-.11,0-.09.07-.2-.06-.13-.08,0,0,0,0h0s0,0,0,0,0,0,0,0,0,0-.07,0,0,0,0,0,0,0,0,0,0,0,0,0a.22.22,0,0,1-.22,0h0c-.05,0-.06,0-.11,0s0,0,0,0,0,0,0-.05l0,0s-.07-.06,0,0h0c0-.06-.11,0-.06.08s0,0,0,0v0s0,0,0,0,0,0,0,0-.07-.15-.06,0-.05,0,0,0-.17-.07-.17-.06,0,0,0,0,0,0,0,0l-.09.09v0s0,0,0,0,0,0,0,0,0,0,0,0h0c0,.06,0,.07,0,0s-.08,0-.08,0,0,0,0,0-.22.09-.13.06,0,0,0,0h0s0,0,0,0v0c0,.14,0,.17,0,.13s0,0,0,0h0c0,.11,0,.15,0,.09l0,0s0,0,0,0l0,0s0,0-.06,0,0,0,0,0h0v0a.73.73,0,0,0-.17.07c0-.09-.18,0-.17,0s-.14-.12-.07,0,0,0,0,0,0,.15,0,.11-.09,0-.06,0-.15,0-.13,0-.08,0,0,0-.07-.11-.07-.07,0,0,0,0h0c0-.12-.23.14-.19,0s0,0,0,0,0,0,0,0-.13.21-.09.11,0,0,0,0,0,0,0,0l-.08,0s-.1-.07-.06-.09c.18.46-.32.09-.27,0s-.25,0-.23.16-.21.07-.17,0-.15,0-.15,0a.19.19,0,0,1-.14.07v0s0,0,0,0-.1,0-.07,0,0,0,0,0h0q-.13.09-.06.09h-.06s0,0,0,0h0c-.14,0-.18-.06-.12-.11H136c0,.09-.15,0-.12,0s0,0,0,0,0,0,0,0-.2-.26-.06-.16c0,0-.05,0-.06,0h0s0,0,0-.06,0,0,0,0-.07-.07,0,0l-.07,0s-.09,0-.07,0,0-.09,0-.09,0,0-.05,0,0,0,0,0a0,0,0,0,1,0,0h0s0,0,0-.06h0c-.06,0,0-.16-.09-.12s0-.17,0-.14c0-.13.11-.37,0-.21,0,0,0,0,0,0h0s-.07,0,0,0-.06,0,0,0-.06-.19,0-.11.11-.07.06-.08h0s0,0,0,0,0,0,0,0c0-.14,0-.19,0-.14s0,0,0-.07-.08.09-.09.05,0,0,0,0,0,0,0,0c-.08.18-.06,0-.06,0s0,0,0-.06h0q0-.23-.06-.15s0,0,0-.06,0,0,0,0,0,0,0,0,0,0,0,0l0,0s0,0,0,0,0,0,0-.08,0,0,0,0,0,0,0-.07,0,0,0,0,0,0,0,0,0,0,0,0,0,0,0,0V3s0,0,0-.06h0a.09.09,0,0,0,0-.05c-.19,0,.2-.23.1-.13s0,0,0,0,0,0,0,0,.08-.07.06,0a.1.1,0,0,1,0,0c0-.12.07-.18.08-.23s0,0,0-.05,0,0,0,0,0,0,0-.05,0,0,0,0,0,0,0-.06,0,0,0,0h0s0,0,0,0v0a.23.23,0,0,0,.14-.07s0,0,0,0,0,0,0,0,0,0,0,0,0,0,0,0,0,0,0,0,0-.16.08-.12V2s0,0,0,0h0s0,0,0,0c.11-.21.14-.26.11-.18s0-.16,0-.12,0-.11,0-.09,0-.12,0-.07,0,0,0,0,0,0,0,0v0h0s0,0,0,0,0,0,0-.06,0,0,0,0,.09-.12.14-.09,0,0,0,0c.05.18.19.13.25,0s0,0,0,0l0,0s.07-.14.06-.08,0,0,0,0,.22.13.2,0c0,0,0,0,0,0s0,0,0,0a0,0,0,0,0,0,0s0,0,0,0h0s0,0,0,0,0,0,0,0,.11-.08.08,0l.05,0s0,0,0,0,.12-.07.09-.12c.19-.11,0,.05.1,0h0s0,0,0,0,0,0,0,0c.15-.07.2-.07.16,0s0,0,.05,0,0,0,0,0,.08.05,0,0,.06,0,0,0,.06-.1,0,0,0,0,.06,0,0,0,0,0,0,0,0,0,0,0,0,0,0,0,0,0h0A.1.1,0,0,0,137.5,1l0,.05s0-.07.07-.05,0,0,0,0c.15,0,.2,0,.13,0s0-.05.08,0,0,0,0,0,0,0,0,0a.08.08,0,0,1,0-.1s0,0,0,0,0-.07.07-.08,0,0,0,0h0l.16-.08s0,0,0,0,0,0,0,0,0,0,0,0h0s.06,0,0,0,.05.06.06,0,0,0,0,0,.13,0,.08,0,.08,0,.07,0,0,0,0,0,0,0,0,0,.12-.06.09,0,0,0,.06,0,0,0,0,0,0,0,.05,0,0,0,0,0,.11.06.12.06,0,0,0,0-.09-.11,0-.09,0,0,0,0,0,0,0,0v0l.05-.08s0,0,.05,0,0,0,0,0,0,0,0,0,0,0,0,0,.16.06.1.09h0s.2-.27.2,0c0,0,0,0,0,0s0,0,0,0,0,0,.06,0l0,0c.12,0,.16,0,.1,0s0,0,.06,0l0,0c.12-.1.15-.05.13-.1l0,0s0,0,0,0,.08-.07,0-.05,0,0,0,0h0c.11,0,.14,0,.09,0s.1,0,.08.05,0,0,0,0,0,0,0,0,.1.07.06.1c.17.05.22,0,.17,0s0,0,0,0,.1,0,.08,0,0,0,.06,0,0,0,0,0,0,0,0,0,0,0,0,0,0,0,0,0,0,0,0,0,.08,0,0,0c-.07-.32.09-.13.12-.12s0,0,0,0,0,.06,0,0,0,.09,0,.07.09,0,0,0,.11,0,.07,0h0c.07,0,.08,0,.06,0a.62.62,0,0,1,.11-.09c.05,0,.06,0,0,0s0,0,0,0,0,0,0,0,0,0,.06,0,0,0,0,0,0,0,0,0h0c.11-.06.14-.06.1,0s.2,0,.16,0,0,0,0,0,0,0,0,0c.24-.13.31-.13.19,0a.23.23,0,0,0,.07-.07s0,0,0,0,0,0,0,0,0,0,0,0a0,0,0,0,0,0,0s0,0,0,0,0,0,0,0,0-.11.08-.07,0,0,0,0,0,0,0,.05a0,0,0,0,0,0,0s0,0,0,0a0,0,0,0,1,0,0s0,0,.07,0,.09,0,.07,0,0,0,.06,0,0,0,0,0,0,0,0,0l0,0c.09,0,.11,0,.07-.05s0,0,0,0,.08-.08.05,0,0-.1.08-.07,0,0,0,0l0-.05s0,0,0,0a.15.15,0,0,0,.07-.05h0s0-.07.06,0,0,0,0,0,.06,0,.06,0,0,0,0,0,0,0,0,0,0,0,0,0,0,0,0,0,.13,0,.08,0c.06.24.25-.21.18,0,0,0,0,0,0,0s0,0,0,0,0,0,0,0,0,.08,0,.08.09,0,0,0,.13-.19.08-.07c.09,0,.13-.06.09,0s0,0,0,0,0,0,0,0v0l0,0s0,0,0,0,.05-.09,0-.06l.05,0s-.08,0,0,0a0,0,0,0,0,0,0,.08.08,0,0,1,0,0h0s0,0,.06,0,0,0,0,0,.14,0,.11,0,0-.12,0-.05,0-.06,0,0,0,0,0,0,.09,0,.07,0,0,0,0,0Z"/><path class="cls-3" d="M160.29,4.67s0,0,0,0,0,0,.08,0h0s0,0,.08,0,.1,0,0,0,0,0,0,0h0s0,0,0,0,0,0,0,0a0,0,0,0,1,0,0c.11,0,.15,0,.1,0s0,0,.06,0,0,0,0,0,.21.2.09.21,0,.11.1.11,0,0,0,0c.15,0,.1.1.14,0s0,0,0,0,0-.15.08-.13,0,0,0,0,.06,0,.05,0,0,0,0,0,0,0,0,0h0c.14,0,.18,0,.15.08s0,0,0,0h0c0-.11.13,0,.15,0s0,0,0,0,0,0,0,0l0,0s0,0,0,0h.1s0,0,0,0,0,0,0,0,.27,0,.25.08,0,0,.05,0,0,0,0,0,0,0,.07,0,0,0,0,0a.19.19,0,0,0,.14,0s0,.05,0,0,0,0,0,0,.22.09.13.14c.08,0,.1,0,.08.07s0,0,0,0h0l0,0s0,0,0,0,0,0,0,0,0,0,0-.06v0c.12-.11.37.16.32.09a.34.34,0,0,0,.16.13c-.06.09,0,.13.09.11s0,0,0,0,0,0,0,0,0,0,.05,0,0,0,0,0l.16,0c.12,0,.16,0,.11,0s0,0,.05,0,0,0,0,0,0,0,0,0,0,0,0,0,.18.17.18.17c.23-.23.15-.09.38,0h0q.3,0,.21.15l0,0h0c.08,0,.11,0,.08,0h0s0,0,0,0h0s0,0,0,0a.15.15,0,0,1,.06.09h0s0,0,0,0h0s.06.07,0,0c0,.14,0,0,0,0s0,0,0,0v0h0q0,.16,0,.09s0,0,0,0a.53.53,0,0,0,.12-.14s0,0,0,0,0,0,.07,0c.13.32.21,0,.17,0s0,0,.19-.07.12,0,.08,0,.1,0,.06,0h0s0,0,0,0,0,0,0,0,.26,0,.39.08l0,0c.11,0,.14,0,.11.06s.12,0,.05,0c.09,0,.11,0,.08,0a.13.13,0,0,0,.07-.06s0,0,0,0,.05,0,.06,0h0c.06.07.06.1,0,.07s0,0,0,0v0s0,0,.06,0,0,0,0,0,0,0,0,0v0c.13,0,.16,0,.1,0,.12,0,.17-.06.13,0s0,0,0,0,0,0,0,0,.07.07.06.07,0,0,0,0,0,0-.05,0,0,0,0,0,.06.1.05.12h0c.05,0,.06,0,0,0s0,0,.06,0h0s.06,0,0,0,.14,0,.06,0,0,0,0,0a0,0,0,0,1,0,0c-.32.11.08.12,0,.14h0a0,0,0,0,1,0,0s0,.22,0,.16,0,0,0,.06,0,0,0,0,.06,0,0,0,.06,0,0,0,.09,0,.05,0h0s0,0,0,0,0,0,0,0,0,0,0,0h0c0,.05,0,.07,0,.06h0l0,0a.15.15,0,0,1,0,.19,0,0,0,0,0,0,0c0,.08,0,.1,0,.06-.35.28.15.09,0,.13s.07.06.06.18h0s0,0,0,0h0c0,.08,0,.1,0,.07s-.08.1-.06,0,0,.12,0,.08h0s.06,0,0,0,0,0,0,0a.06.06,0,0,1,0,.06c-.07,0-.06,0,0,0l0,0s0,0,0,0,0,.13,0,0,0,0,0,0,0,0,0,0h0s-.05,0-.05,0,0,0,0,0-.07.54-.14.42c-.05.08-.08.08-.06,0a.25.25,0,0,1,0,.07s0,0,0,0v0c.08,0,0,.11,0,.14s-.17.06-.16.05,0,0,0,0,0,0,0,0h0s-.13.07-.13,0-.18.12-.11.1c-.09.08-.1.11-.06.09s0,0,0,0h0s0,.06-.05,0,0,0,0,0l0,0h0s-.2-.14-.19-.07h0s0,0,0,0,0,.13,0,.11,0,0,0,0-.09.23-.05.11,0,0,0,0,0,0,0,0-.12-.08-.12-.09,0,0,0,0V9c-.22.14-.31.16-.26.06s-.07.06-.06,0-.08,0-.05,0-.09,0-.06-.05,0,0,0,0,0,0,0,0h0c-.09-.05-.11-.07-.07-.05-.13,0-.16-.05-.1,0s0,0-.05,0h0c.07.12-.17,0-.1,0s-.11-.05-.06-.07,0,0,0,0h0c0-.05-.11,0-.08,0s-.12-.09-.07-.07,0,0,0,0,0,0,0,0,0,0,0,0-.09,0-.08,0,0,0,0,0h0s0,0,0,0h0s0,0-.1,0,0,0,0,0c-.21.07-.28.1-.19.09h0c-.16,0-.21.07-.14.09h0c0-.11-.13.09-.11,0s0,0,0,0,0,0,0,0h0s-.32.17-.18.14,0,0,0,0h0l0,0s0,0,0,0,0,0,0,0h0a.07.07,0,0,0-.07,0s0,0,0,0,0,0,0,0,0,0,0,0-.06,0,0,0,0,0,0,0h0c-.08.07-.08.07,0,0s-.06.05-.08.06,0,0,0,0-.2.07-.13.11-.07.09-.06,0,0,0,0,0l0,0,0,0c0-.13,0-.16,0-.09s0,0-.05,0,0,0,0,0-.21-.06-.21-.08,0,0,0,0h0s0,0,0,0,0,0,0,0l0,0v0s0,0,0,0h0s0,0,0,0,0,0,0,0,0,0,0,0h0s0,0,0,0-.15.14-.12,0,0,0,0,0,0-.06,0,0,0,0,0,0a.1.1,0,0,1-.14-.07s-.19.13-.08.12h0l0,0h0l0,0h0s0,0,0,0h0s0,0,0,0h0s0,0,0,0,0,0,0,0,0,0,0,0h0s0,0-.09,0,0,0,0,0,0,0,0,0,0,0,0,0a.09.09,0,0,0-.06,0s0,0,0,0c-.17.15-.22.19-.17.11-.05.07-.07.09-.05,0l-.15.15s0,0,0-.06-.14.08-.13,0h0l0,0s0,0,0,0l0,0a0,0,0,0,1,0,0,.09.09,0,0,0-.08.08s0,0,0,0,0,0,0,.05,0,0,0,0-.06.09,0,0,0,.05,0,0,.26.38,0,.27c0,0,0,0,0,0h0s0,0,0,0h0c0,.09,0,.12,0,.08s0,0,0,.06,0,0,0,0,0,.12,0,.09,0,.07,0,.11.06,0,0,0,.06.09.11.1,0,0,0,0,.07,0,0,0,0,0,0,0,0,0,0,0,0,0,.08,0h0c.16.06.2.08.14.08s.13.1.16.05,0,0,0,0,0,0,.06,0c-.29-.05.19.31.13.18h0s0,0,.05,0v0l0,0v0c0,.06,0,.09.07.07s0,0,0,0l0,0h0s0,0,0,0,0,0,0,0,.16.08.1.06c.14.24.15.29.05.14s.12.22.12.19l0,0,0,0s.05,0,0,0,.11.07.11.07.09.22.15.13q0,.11,0,.06a.23.23,0,0,1,.07.07h0s0,0,0,0,.07,0,0,0,.1.06.14,0,0,.12,0,.1.12.2.16.19,0,0,0,0,0,0,0,0,0,0,0,0h0c.1,0,.14,0,.11,0s0,0,0,0h0s.27.29.24.31,0,.17,0,.17.1.07,0,.09.11.06.11.13,0,0,0,0v0s0,0,0,0h0c.06,0,.08.06.05.08s.2.15.12.19.05,0,.05,0,0,.15,0,.12,0,0,0,0,0,0,0,0,0,0,0,0h0s0,0,0,.05,0,0,0,0,0,0,0,0h0l0,.07c0-.06.08.1,0,.09s0,0,0,0-.07,0-.07,0l0,0v0s0,0-.07,0h0s0,0-.05,0,0,0,0,0,0,.08,0,.06.12,0,.15.07,0,0,0,0,0,.1,0,.08,0,0,0,0,0,0,0,0,0,0,0,.06,0,0,0,0,0,.08,0,.08h0c0,.23,0,.31,0,.22q0,.19,0,.09s0,0,0,0,0,.05,0,0,0,.05,0,0,0,.06,0,.06,0,.07,0,0a.06.06,0,0,1,0,.05s0,0,0,0,.06.33.09.23v0s0,.14,0,.14,0,0,0,0,0,0,0,0,0,.07,0,.06h0c0,.06,0,.07,0,.05s-.05,0,0,0,0,0,0,0a.27.27,0,0,1,0,.09s0,0,0,0,0,.13,0,.13,0,0,0,0,0,0,0,0h0a.32.32,0,0,1-.08.14v0s0,.07,0,0,0,.07,0,.05,0,0,0,.06h0s0,0,0,0h0c0,.05,0,0,0,.09s0,0,0,0l0,0c0,.09-.08.23-.07.25s-.1.11,0,.08-.06.15,0,.13,0,.09,0,.07,0,0,0,0,0,0,0,0a.2.2,0,0,1-.16.08s0,.06,0,0-.07,0-.07,0,0,0,0,0,0,0,0,0c-.17,0-.21.06-.12.08a.32.32,0,0,0-.15.13s0,0,0,0,0,0,0,.05,0,0,0,0,0,0,0,0v0s0,0-.08,0,0,0,0,0a0,0,0,0,0,0,0s0,0,0,0h0s0,0,0,0,0,0,0,0,0,0,0,.05,0,0,0,0,0,.08-.06.09.06,0,0,.06,0,0,0,0-.11.15-.09.16-.06,0,0,0-.13,0-.12,0,0,0,0,0,0,0-.05,0,0,.18,0,0l0,0s0,.06,0,0,0,0,0,0h-.06c-.27.13.07.08-.05.15s0,0,0,0h0c-.06.16-.08.21-.05.15a.17.17,0,0,1-.14,0s0,0,0,0,0,0,0,0,0,0,0,0l0,0v0s0,0,0,0,0,0,0,0,0,0-.08.06,0,0,0,0l-.07.12v0s0,0,0,0,0,0,0-.06-.07.05-.05.07,0,0,0,0a0,0,0,0,1,0,0s0,.06,0,.09h0c-.06,0-.08,0-.06,0s0,0,0,0,0-.05-.06,0,0,0,0,0-.15,0-.11,0c-.16.18-.24.2-.23.08s-.08,0,0,0v0h0s0,0,0,0-.06.1-.06.05-.06.08-.08.07-.12,0-.07,0h-.05s0,0,0,0,0-.12-.11-.06,0,0,0,0,0,0,0,0h0s0,0,0,0h0s0,0,0,0,0,0,0,0,0,0,0,0h-.07s0,0,0,0,0,0-.06,0,0,0,0,0,0,0-.06,0,0,0,0,0-.13,0-.12,0-.12,0-.07,0h0c-.06,0-.08,0,0,0s0,0,0,0,0,0,0,0,0,0,0,0,0,0,0,0,0,0,0,0,0,0,0,0,0,0,0,0,0,0,0,0,0,0,0-.05h0c0-.07-.11-.06-.06-.09s0,0,0-.06-.16.07-.11,0,0,0-.05,0,0,0,0,0a.68.68,0,0,0-.14,0s0,0,0,0-.11,0-.09,0l0,0s0,0,0,0,0,0,0,0,0,0,0,0l0,0c-.05,0,0-.12-.12-.06s0,0,0,0,0,.06,0,0,0,0,0,0,0,0,0,0l-.06,0c0,.06-.21,0-.16,0s0,0,0,0,0,0,0,0-.1.15-.07.09-.1.06-.08,0a.14.14,0,0,0-.14,0s0,0,0,0,0,0,0,0,0,0,0,0l0,0s0,0,0,0,0,0,0,0-.08,0,0,0,0,0,0,0v0h0s0,0,0,0,0,0,0,0-.1.11-.07.07a.07.07,0,0,0-.06,0s0,0,0,0,0,0,0,0,0,0,0,0-.14.06-.07.05,0,0,0,.06-.09,0,0,0h0s0,0,0,.05.11,0,.06,0,0,0,0,0,0,0,0,0,0,0,0,0-.1.07-.08.07-.06-.07-.1-.05,0,0,0,0,0,0,0,0,0,0,0,0c.37.48-.37-.06-.24,0s0,0,0,0-.12,0-.08,0h0s0,0-.05,0h0s0,0,0,0,0,0,0,0,0,0,0,0,0,0,0,0,0,0-.05,0a0,0,0,0,0,0,0s0,0,0,0,0,0,0,0,0,0,0,0,0,0,0,0,0,0,0,0,0,0,0,0-.14,0-.09,0c-.16,0-.21,0-.14,0s-.08,0,0,0,0,0,0,0,0,0,0,0,0,0,0,0-.26.27-.2.1c0,0,0,0,0,0s0,0,0,0-.11.06-.09,0,0,.08,0,.07,0,0,0,0-.08,0,0,0-.42.21-.31.16,0,0,0,.06,0,0,0,0,0,0,0,0-.07.18-.23.16,0,.17,0,.17,0,0,0,0,0,0,0,0a1.12,1.12,0,0,1,0,.15s.07,0,0,0,0,0,0,0,0,0,0,0,0,0,0,0-.09.11-.07.11,0,0,0,0-.05,0-.09.07,0,0,0,0,0,.17,0,.24,0,0,0,0,.12,0,.07.07,0,0,0,0,0,0-.05.05,0,0,0,0,0,0,0,0,.06,0,0,.1,0,0,0,0,0,0,0,0,0,0,0,0,0,.08,0,.06,0,0,0,0h0c0,.2,0,.26,0,.17-.06.11-.1.13-.09.08s0,0,0,0h0s0,0,0,0,0,0,0,0l-.08.07v0h0c0-.06,0,.16,0,.19s-.08.14-.08.07,0,0,0,.08h0s0,.2,0,.15c0,.12,0,.15,0,.1s0,.11,0,.07c0,.12,0,.15,0,.11s0,0,0,0h0c.05.11.08.15.08.1h0s0,0,0,0,0,0,0,0,0,0,0,0h0s0,0,0,0,0,0,0,0c.06.16.06.22,0,.18s0,.07,0,0,0,0,0,0h0c-.08,0,0,.14,0,.16s0,0,0,0,0,0,0,0l0,.12c-.07,0,.06.08,0,.05a1.3,1.3,0,0,0,0,.14s0,0,0,0,0,0,0,0,0,.07,0,.05l0,0h0s0,0,0,0,0,0,0,0,0,0,0,.09l0,0a.89.89,0,0,1,0,.11s0,0,0,0,0,0,0,0,0,.05-.05.11,0,0,0,0,0,.07,0,0,0,0,0,0,0,0,0,0,0,0,0,0,0,0,0,0v0c.06-.07.12.09,0,.06s0,.09,0,.06,0,0,0,.08l0,0v.1c.08,0,0,.08,0,.1s0,0,0,.11,0,0,0,0,0,0,0,.06,0,0,0,0a.09.09,0,0,0,0,0s0,0,0,0,0,0,0,0,0,0,0,0,0,0,0,0h0c-.08.1-.1.14,0,.12s0,0,0,0h0s0,0,0,.1h0s0,0,0,0h0c0,.14.15.06.2.12s0,0,0,0h0c0,.06,0,.07,0,0s0,0,0,.07,0,0,0,0,0,0,0,0h0c.05,0,.06.06,0,0v0s0,0,0,0,0,0,0,0l0,0c0,.22,0,.3,0,.22q.08.32,0,.21s0,0,0,0,0,0,0,0,0,0,0,0,0,0,0,0,0,0,0,0,0,0,0,0V24s0,0,0,.07,0,0,0,0-.09.2-.05.14,0,0,0,0,0,0,0,0,0,.06,0,0,0,.09,0,.06,0,.13,0,.09h0c.09,0,.12,0,.08,0s0,0,0,.05,0,0,0,0,0,0,0,0,.08,0,0,0,0,.08,0,.07-.11.13-.05.08,0,0,0,0l.05,0s0,0,0,0-.08.06-.05.09,0,.1-.08.08,0,0,0,0h0v0s0,0,0,0,0,.12,0,.09.15.1.11.11,0,0,0,0,0,0-.06,0,.14.09.14.15a0,0,0,0,1,0,.06c.06,0,0,.21,0,.2s0,0,0,0,0,0,0,0l-.05.05s0,0,0,0,0,.06,0,.1.15,0,.09,0,0-.05,0,.05,0,0,0,0-.06,0,0,0h0s0,0,0,0,0,.08,0,.06-.12.13-.11.06,0,0-.06.05,0,0,.05,0-.05.14-.05.09,0,.17-.08.12,0,0,0,0,0,0,0,0c0,.18,0,.26-.06.21s0,.06,0,0,0,0,0,0,0,0,0,0-.06.12,0,.09-.09.16-.09.05h0s0,0,0,0h0s-.05.18-.05.14,0,0,0,0,0,0,0,0,0,0,0,0,0,0,0,0,0,0,0,0,0,0,0,0,0,0-.08.06,0,0,0,0,.07,0,0,0,0,0,0,.05-.12,0-.07,0-.06,0,0,0-.07,0,0,0a0,0,0,0,0,0,0s0,0,0,0-.07.07,0,0,0,.1,0,.07c0,.15-.26.27-.25.24-.09.15-.12.19-.08.12s0,0,0,0,0,0,0,0,0,0,0,0,0,0,0,0,0,0,0,0-.11,0-.08,0,0,0-.05,0v0c-.05,0-.12,0-.08-.06s0-.06-.07,0,.07-.06,0-.07,0,0,0,0,0,0,0,0,0,0,0,0-.09,0-.07,0-.12-.11-.07-.13,0,0,0,0,0,0,0,0c-.16-.05-.2-.08-.11-.08h0s0,0,0,0,0,0,0,0h0s-.05-.09-.05,0,0,0,0,0h0s0,0,0-.06,0,0,0,0-.05-.12,0-.11h0s0,0,0,0a.52.52,0,0,0-.33-.11c.12,0-.1,0,0-.05s0,0,0,0h0s0-.15,0-.13-.46-.06-.28,0c0,0,0,0,0,0s0,0,0,0-.06-.13,0-.13-.08-.1-.13,0,0-.06,0-.07-.16.05-.09,0,0,0,0,0,0,0,0,0-.12-.11-.06,0a.23.23,0,0,1-.13-.19s0,0,0,0,0-.06,0,0,0,0,0,0h0s0,0,0,0,0,0,0,0,0-.18,0-.12,0,0,0,0,0,0,0,0l0,0s0,0,0,0a.18.18,0,0,1,.07-.05h0c.15-.08-.14,0-.07-.06a.1.1,0,0,0-.11,0s0,0,0,0-.12-.42,0-.18c0,0,0,0,0,0h0a.18.18,0,0,1,.12-.08l0,0a0,0,0,0,1,0,0s-.14-.08-.14-.1,0,0,0,0h0s0,0,0,0,0-.05,0-.07,0,0,0,0-.08,0,0,0,0,0,0,0,0,0,0,0,0,0,0,0h0s0,0,0,0a.42.42,0,0,1,0-.14h0c0-.17,0-.17,0-.16s0-.09,0-.06,0,0,0-.05l0,0c-.05,0-.05-.06,0-.07h0s0,0,0,0a0,0,0,0,0,0,0s0,0,0,0,.06-.09,0-.09c.5-.39-.07-.11,0-.19s0,0,0,0,0,0,0,0h0l0-.16c.05,0,0,0,.06-.05s0,0,0,0a.23.23,0,0,0,0,0s-.05-.05,0,0c0-.13,0-.05-.07-.08s0,0,0,0-.08-.14,0-.11,0-.13,0-.08,0-.21,0-.17-.05,0,0,0h0s0-.05,0-.05v0a.07.07,0,0,1,0-.1s-.12-.07-.06-.08l0,0s0,0,0,0v0c-.06,0-.07,0,0-.09l0,0s0,0,0,0h0s0,0,0,0-.07,0,0-.06h0c-.06-.1,0-.19-.09-.14v0h0c-.09-.11-.08-.13-.05-.2s0,0,0,0,0,0,.05-.07h0s0,0,0,0a0,0,0,0,1,0,0c0-.05,0-.05,0,0s0,0,0-.06,0,0,0,0,0-.1,0-.1,0,0,0,0c.08-.19,0-.16-.12-.16s0,0,0,0v0l0,0s0,0,0,0,.11,0,.06,0a.05.05,0,0,1,.05,0s0,0,0,0,0,0,0,0a.27.27,0,0,0,0-.2s.06,0,0-.05h0s0,0,0-.05a.09.09,0,0,0,.05-.08s0,0,0,0v0h0c.05-.34.26,0,.06-.06,0,0,0,0,0,0s0,0,0,0,0,0,0,0h0s0-.09,0-.1,0,0,0,0,0-.06,0-.1,0,0,0,0,0-.11,0-.06,0-.06,0-.05,0,0,0,0,0,0,0-.06h0s0,0,0,0a.4.4,0,0,1-.06-.26h0v0s0,0,0,0,0,0,0,0-.21-.26-.15-.37v0c0-.07,0-.08,0,0h0s0,0,0,0,.19-.1.15-.11,0,0,0,0,0,0,0,0,0,0,0,0h0c0-.07,0-.09-.07-.07s0,0,0,0,0,0,0,0,0,0,0,0h0s0-.13,0-.12,0,0,0,0,0,0,0,0,0,0,0,0,0,0,0,0,.08-.05.09-.13,0-.07,0,0a0,0,0,0,1,0,0c0,.07,0,.1,0,.06h0s0,0,0,0h0s-.07.12-.06.05a.16.16,0,0,0,0-.07s0,0,0,0h0s0,0,0,0,0,0,0,0h0s0,0,0-.05h0c.1-.19.12-.26,0-.24s0,0,0,0,0,0,0,0l0,0s0,0,0,0-.05-.16,0-.17,0,0,0,0,0,0,0,0h0s0,0,0,0,0,0,0,0,.08.05.07,0-.07-.26,0-.24,0,0,0,0,0-.11.06-.13,0,0,0,0h0s0,0,0-.06,0,0,0,0,.06-.06,0-.08,0-.11.07-.07,0,0,0,0v0c0-.06,0-.09,0-.05s0,0,0,0-.05,0,0,0h0s0,0,0,0a.41.41,0,0,0-.09-.19s0,0,0,0h0v0s0,0,0,0a.05.05,0,0,0,.06-.06s0,0,0,0v0c0,.06.06-.16-.06-.05s0,0,.06-.05,0,0,0,0a.09.09,0,0,1,0-.11.1.1,0,0,1,0,0h0s0,0,0,0h0s0,0,0-.06h0s0,0,0,0,0,0,0,0,0,0,0,0,0,0,0,0,0,0,0,0,0,0,0,0,.09-.16,0-.17,0,0,0,0h0c.05,0,.05-.28,0-.27h0s0,0,0,0l0,0s0,0,0,0,0,0,0,0h0s0,0,0,0,0,0,0,0,0,0,0,0h0c0,.05,0-.12,0-.1s0,0,0,0,0,0,0,0,0,0,0,0,.17-.28.08-.24a.08.08,0,0,1,0-.06s0,0,0,0,0,0,0,0h0s-.06-.28-.08-.19c0-.13,0-.17,0-.14a.08.08,0,0,0,0-.09s0,0,0,0,0-.12,0-.12,0,0,0,0,0,0,0,0,0-.05,0,0,.06,0,0-.06,0,0,0,0l0,0s0,0,0,0,0,0,0,0-.15-.26-.16-.26,0,0,0,0,0-.08,0-.06c.06-.2.09-.26.08-.18a.09.09,0,0,1,.06-.07h0c-.11,0,0-.13,0-.07s0,0,0,0,0,.06,0,0,0,0,0,0,0,0,0,0,0,0,0,0v0c.06,0,.06-.05,0,0s0-.05,0,0,.16-.12.11-.06,0,0,0,0h0s0,0,0-.05,0,0,0,0,0,0,0,0l0,0s0,0,0,0,0-.08,0-.07,0-.09,0-.05,0,0,0,0h0v0h0s0,0,0,0,0,0,0,0-.06-.28,0-.28v0s0,0,0,0v0l0,0h0s0-.08,0-.08,0,0,0,0-.15-.3-.14-.32,0,0,0,0h0s0,0,0,0,0,0,0-.05a0,0,0,0,0,0,0s0,0,0,0,0,0,0,0,0-.12,0-.08,0-.15,0-.13,0,0,0,0a1.07,1.07,0,0,1,0-.28c0-.07,0-.09,0,0v0a.05.05,0,0,0,.08,0s0,0,0,0,0-.16,0-.13,0-.07,0,0,.05,0,0,0h0c0-.09-.06-.06-.06-.06l0,0h0c0-.14,0-.18,0-.12s0,0,0-.08h0s0,0,0,0,0-.18,0-.2,0,0,0-.05,0,0,0,0,0,0,0,0,0,0,0,0,.07-.17,0-.11.05-.07,0-.05-.05,0,0,0v0c-.08-.09-.09-.12,0-.1l0,0,0,0a.05.05,0,0,1,0-.05s0,0,0,0,.19-.25,0-.22,0,0,0,0,0,0,0,0a0,0,0,0,0,0,0l0,0c0,.05,0,.08,0,.07s0,0,0,0,0,0,0-.07h0v0s0,0,0,0-.06,0-.05,0h0s0,0,0,0,0,0,0,0h0v0s0,0,0,0a.14.14,0,0,1,0-.11s0,0,0,0,0-.08,0-.06,0,0,0,0h0s0,0,0,0,0,0,0,0,0,0-.08,0-.06-.21-.06-.19-.08,0-.07-.07a.09.09,0,0,0,0,.05c0-.13-.06-.16-.11-.12s0,0,0,0a0,0,0,0,0,0,0c0-.14,0-.18,0-.13s0,0,0,0-.08-.11-.11-.06,0-.11,0-.08,0-.1,0-.08,0-.1,0-.06l0,0s0,0,0,0c.13-.15.17-.18.13-.11s.06-.1,0-.12,0,0,0,0h0c0-.05,0-.06,0,0s-.05,0,0,0,0,0,0,0,0,0,0,0,0,0-.05-.14h0s0,0,0,0l.12-.12c0-.05,0-.13-.06-.12h0c0-.07,0-.09,0-.06s.12-.25.13-.18.12,0,.07,0a0,0,0,0,0,0,0c.12-.13.15-.17.09-.14s0-.08,0,0c0-.2,0-.27.08-.2.12-.27.12-.37,0-.31s0,0,0-.06h0s-.12-.47-.1-.29c0,0,.05,0,0,0s0,0,0,0,0,0,0,0l0,0c0-.11,0-.14,0-.1s0-.08,0-.05,0-.11,0-.09,0-.09,0-.09,0,0,0,0a0,0,0,0,1,0,0s0,0,0,0,.07,0,.06-.06h0s0,0,0,0l-.05,0a.05.05,0,0,0-.07,0h0c-.08.13-.08,0-.07,0s0,0,0,0,0,.1-.06.08,0-.23.1-.17,0,0,0-.05h0s0,0,0,0,0,0,0,0,0,0,0,0h0s0,0,0,0,0,0,0,0,0,0,0,0,0,0,0,0,0,0,0-.05h0s0,0,0,0,0,0,0,0a0,0,0,0,1,0-.07s0,0,0,0,0,0,0,0h0s0,0,0,0l0,0h0s0,0,0,0,0,0,0,0,0-.11,0-.07,0,0,0,0,0,0,0,0,0,0,0,0,0,0,0,0,0,0,0,0-.08-.19-.1-.09v0h0c0-.15,0-.19-.06-.13s0,0,0,0,0,0,0,0l0,0c0-.08-.08.06,0-.06h0v0s.08-.09,0-.1.06-.07,0-.08.09.05.09,0h0s0,0,0,0,0,0,0,0,0,0-.06-.06,0,.05-.05,0,0,0,0,0-.05,0,0,0-.22,0-.13-.06c-.08-.08-.1-.1,0-.09s-.12,0-.07,0v0s0,0,0,0l0,0c-.07-.12-.09-.16-.07-.1s0,0,0,0h0c0-.08,0,0,0,0s-.19.11-.19.15,0-.07,0-.07v0s-.05,0,0,0,0,0-.05,0h0c-.18.09-.25.1-.2,0s-.09,0-.06,0,0,0,0,0,0,0,0,0,0,0,0,0,0,0,0,0,0,0,0,0l0,0s0,0,0,0h0c-.08-.06-.11-.13-.21-.09a2,2,0,0,0-.32.11h0a1.91,1.91,0,0,1-.29.05s0,0,0,0v0c0-.07,0-.12-.1-.1s0,0,0,0,.13,0-.07,0c0,0,0,0,0,0s0,0,0,0h0s0,.07,0,0h0s0,0,0,0,0,0,0,0,0,0,0,0h0s0,0,0,0v0s0,0,0,0h0s0,0,0,0,0,0,0,0c-.22,0-.3,0-.22,0s0,0,0,0v0s0,0,0,0,0,0,0,0-.09,0-.05,0,0,0-.09,0,0,0,0,0-.06,0,0,0-.16,0-.2,0,0,0,0,0-.07,0,0,0-.09-.09,0-.07-.15-.19,0-.07c0-.07,0-.09,0,0s0,0,0-.06h0s0,0,0,0-.07,0-.05,0c-.06.18,0-.22,0-.13s0-.06-.08,0v0s0,0,0,0,0,0,0,0v0s0,0,0,0l0,0s0,0,0,0,0,0,0,0,0,0,0,0l0,0s0,0,0,0,0-.13,0-.08.07-.09.1-.11,0,0,0,0,0-.08,0,0,0,0,0,0,0,0,0,0c0-.15,0-.19,0-.13s0,0,0-.06,0,0,0,0,0,0,0,0,0-.07,0-.07,0,0,0,0,0-.14,0-.17l0,0h0s0,0,0,0,0,0,0,0,.05,0,0,0,.1-.1.09,0,0-.27.05-.26c.17,0,.22,0,.15,0s.06,0,.08,0h0s0-.1,0-.08,0,0,0,0,0,0,0,0,.09,0,.09,0,.13,0,.1,0,.08-.07,0,0,.05,0,.07,0v0l0,0s.05,0,0,0c.14-.16.19-.2.14-.13s0,0,0,0,0,0,0,0,0,0,0,0,0,0,0,0,0,0,.05,0,0,0,0,0,0,0,0,0h0c.07,0,.09,0,.07,0,.13-.12.18-.14.13-.07s0,0,.07-.06,0,0,0,0,0-.06.06,0,0,0,0,0,0,0,0,0,0,0,0,0,.13-.06.1,0,0,0,.07,0,0,0,0,0,0,0,0,0h0s0,0,0,0,.18-.13.1-.1.23,0,.19.09,0,0,0,0h0s0,0,0,0h0s0,0,0,0h0s0,0,0,0,0,0,0,0,0,0,0,0h0s0,0,0,0,0,0,0,0,0,0,0,0c.16-.11.19-.12.12,0s0,0,.05,0h0s0,0,0,0,0,0,0,0c.19-.13.25-.16.22-.07l.05,0h0c.12,0,.16-.06.12,0s0,0,0,0,0,0,0,0,0,0,0,0v0h.07s0,0,0,0,0,0,0,0,0,0,0,0q.09-.3,0-.18c.09-.07.12-.09.09,0q.21,0,.12,0h0c.07,0,.08,0,0,0s0,0,0,0,0,0,0,0,0,0,0,0,0,0,0,0h0s.15-.28.08-.09a.46.46,0,0,0,.07-.07h0c.15,0,.19,0,.14-.06l0,0,0,0c-.06.18.33,0,.24,0s.1-.06,0-.09h0s0,0,0,0,.1-.09.09-.09,0-.1.08,0,.11.06.09,0,.08,0,.09.06h0s.08,0,.06,0,0-.09,0-.08.17-.12.14,0,0,0,0,0,0,0,0,0,0,0,0,0,0-.07,0,0h0c.12,0,.16,0,.11,0s.07,0,0,0,.09,0,.07,0,.07,0,.06-.09a.06.06,0,0,1,.09,0c-.05,0,.08,0,0,0s0-.07,0,0,.13.06.08.15,0,0,.05,0l-.05,0a.13.13,0,0,1,.06,0s0,0,0,0,.07.07.11,0,0,0,0,0,0,0,0,0v0s0,0,0,0h0s0,0,0,0,0,0,0,0,.07-.06,0,0,.06,0,.06-.07l.1,0s0,0,0,0l0,0s0,0,0,0,.11-.09.06-.1h0s.26,0,.2,0h0s0,0,0,0,0,0,0,0,0,0,.1,0,0,0,0,0h0c0,.1.19-.15.17,0s.08,0,.11,0,.14,0,.1,0l0,0v0s.05,0,0,0l0,0s0,0,0,0,0,0,0,0,0,0,0,0h0s0,0,0,0,0,0,0,0,.07,0,.09,0,0,0,0,0,.33-.12.21-.07c.13,0,.18,0,.13.07s.05,0,.09,0h0c.08,0,.1,0,.07,0s.14-.11.1,0l.07,0s0,0,0,0l0,0c-.06,0,.07.11.07.09h0s0,0,0,0,0,0,0,0,0,0,0,0c.06.25.25-.17.2-.06h0s0,0,0,0,0,0,0,0,0,0,0,0,0,0,0,0,0,0,0,0,0,0,.05,0h0c.06-.07.09.16.15.13s0,0,0,0,0,0,.07,0,0,0,0,0,.19,0,.12,0c.09,0,.11,0,.07,0,.21-.09.29-.08.25,0a.28.28,0,0,0,.28,0s0,0,0,0c.15,0,.19,0,.14,0s.07,0,0,0,0,0,.05,0,0,0,0,0,0,0,0,0,0,0,0,0,.11,0,.06,0l.08,0c.08,0,.12,0,.11,0s.12-.06.08-.06.09-.06.06,0,0,0,0,0h0s.17.06.1.08q.18-.08.12,0c.1,0,.13-.06.1,0s0,0,0,0h0s0,0,0,0,0,0,0,0,.13,0,.09,0c.17.07.22.09.15,0s.13-.07.1,0,0,0,0,0,0,0,0,0,0,0,.05,0,0,.06,0,0h0s.06-.07.1,0h0c.09,0,.11,0,.07,0s0,0,.05,0,0,0,0,0,0,0,0,0h.05s0,0,0,0,0,0,0,0,0,0,0,0,.12,0,.07,0c.16-.2,0,0,.1,0l0,0,.05,0h0s0,0,0,0h0l.19-.08s0,0,0,0,.05,0,0,0,0,0,0,0S160.27,4.68,160.29,4.67Zm-6.12,10.82,0,.06Zm.57-10.2-.06-.06Zm2.88,2.58s-.1,0-.05,0,0,0,0,0,0,0,0,0a.09.09,0,0,0-.09-.08s0,0,0,0-.07-.07-.07,0l0,0c-.06,0-.06,0,0,0s-.06,0-.09.06,0,0,0,0l0,0q-.06-.09,0-.06s0,0,0,0,0,0,0,0a.18.18,0,0,0-.07,0s0,0,0,0,0,.12,0,.11.1,0,0,0c0-.31-1.05,0-.78.07-.7.42.43,1.87.34,2s0,0,0,0,.07-.1.07-.06c.07-.16.79-.19,1-.14a8.21,8.21,0,0,1,.95-.4s0,0,.06,0h0c.06-.08,1.45-.69.88-.84a1.38,1.38,0,0,0-1.37-.82l0,0s0,0,0,0M158.4,12h0c-.11,0-.18.29-.27.21h0s0,0,0,0-.14,0-.09,0,0,0-.08,0,0,0,0,0h0s-.12.08-.07,0v0a0,0,0,0,1,0,0s0,.07,0,.07,0,0,0,.05l0,0v0h0s0,0,0,0h0s0,0,0,0h0c-.07,0-.09,0-.06-.06-.46-.08-1.7.31-1.11,1.16,0,0,0,0,0,.06s0,0,0,0l0,0v0c0,.06,0,.08,0,0s0,0,0,0,0,0,0,0h0a.09.09,0,0,1,0,.05s0,0,0,0,0,0,0,0v0s0,0,0,0h0v0h0a.06.06,0,0,1,0,.07s0,0,0,0a1.11,1.11,0,0,1,0,.17s0,0,0,0,0,0,0,.05h0s0,.05,0,.09.07,0,0,0a0,0,0,0,0,0,0c0,.06,0,.07,0,0,.08.4.07.52-.05.36.07,0,0,.06.06.09h0s.06,0,.07,0h0s0,0,0,0h0c0,.1,0,.14,0,.09l.06.05c0,.06,0,.07,0,.09s0,0,0,0,.18.1.11.08h0s0,0,.07,0,.06.13.05.13,0,0,0,.06l0,0s0,0,0,0h0c.08.07.1.08.05.07.1.09.11.12.06.08s0,.07.08.06,0,0,0,0,0,0,0,0,0,0,0,0,0,0,0,0,0,0,0,0,.1.09.1,0,0,0,0,0h0c.07,0,.09,0,.08.05s0,0,0,0,0,0,0,0,0,0,0,0v0s0,0,0,0,0,0,0,0l0,0c.17-.08.22-.09.15-.06a.07.07,0,0,1,.1.06h0s0,0,0,0v0s0,0,0,0h0s0,0,0,0h0c.09,0,.11,0,.06-.05.12-.13,0,.1.11,0s0,0,0,0l0,0s0,0,0,0,0,0,0,0,0,.05.11,0a0,0,0,0,0,0,0s0,0,0,0,.14-.08.09-.12h0s0,0,0,0h0c.06,0,0-.21,0-.16s-.06,0,0,0,0,0,0,0,0,0,0-.07h.07s.11,0,.08,0,0,0,0,0h0s0,0,.05,0h0s0,0,0,0,.06,0,.05.07h.1s0,0,.05-.05,0,0,0,.06.09-.1.06-.05.11-.09.1-.06,0,0,0,0h0c.08,0,.09,0,.05,0s.09,0,.06,0,.12,0,.08.05a1.21,1.21,0,0,0,.13-.14c.05-.05.07-.06,0,0s.13-.08.09,0,.05,0,0,0,0,0,0,0c.06-.15.09-.19.09-.13v0h0s0,0,0,0v0s0,0,0,0l0,0h0s0,0,0,0,0,0,0,0,0,0,0,0,0,0,0,0,0,0,0,0,.08-.07.09,0h.05s.16-.09,0,0c0,0,.16-.21.13-.11s0,0,.05,0,0,0-.06,0h0s0,0,0,0,0,0,0,0,0,.13,0,.11.14,0,.09,0,.21-.1.23-.13,0,0,0,0l.12,0s0,0,0,0,.16,0,.11,0c.13.07.11,0,.13.16s0,0,0,.05,0,0,0,0,0,.08,0,.07,0,0,0,0,.17-.1.13,0c.11,0,0,0,.07-.06s0,0,0,0,0,0,0,0c.17-.05.22,0,.18,0s0,0,0,0h0s.05,0,0,0l0,0,.05,0s0,0,0,0,.17,0,.18-.12.06-.16,0-.11,0,0,0,0h0v0s.05,0,0,0,0,0,0,0a0,0,0,0,1,0,0s0-.05,0-.05h0s0,0,0-.05,0,0,0,0,.05-.06,0-.06,0,0,0,0,0,0,0,0,0,0,0,0,0-.19,0-.2.07-.06,0-.08h0v0h0c0-.07,0-.09,0-.07s0,0,0,0h0s0,0,0,0h0s0,0,0,0,0,0,0,0,0,0,0-.07,0,0,0,0h0a0,0,0,0,1,0-.06c.06-.3.06-.41,0-.32a.09.09,0,0,0-.05-.12c-.07,0-.08-.05,0-.05h0s0,0,0,0-.18-.08-.16-.1,0,0,0,0,0,0,0,0-.08-.11-.07-.12-.18,0-.12,0-.11-.1-.08,0-.11-.07-.07-.05,0,0,0,0,0,0,0,0a.09.09,0,0,0,0-.05s0,0,0,0c-.15-.06-.2,0-.16,0s0,0-.05,0,0,0,0,0l-.06,0-.08-.11s0,0,0,0-.13.07-.11.06,0,0-.06,0h0s0,0,0,0,0,0,0,0,0,0,0,0h0s0,0,0,0,0,0,0,0,0,0,0,0l0,0s0,0,0,0,0,0,0,0,0,0,0,0a.14.14,0,0,0,0-.09c-.1,0-.12,0-.08,0s0,0-.06,0,0,0,0,0h-.1v0c-.07,0-.09.05-.09,0s0,0,0,0-.13,0-.09,0,0,0,0,0h0s-.05,0-.07-.05,0,.05.06.05-.1-.25-.11-.19-.05,0-.05,0h0s0,0,0,0,0,0,0,0,0,0-.06,0,0,0,0,0-.09,0-.08,0l0,0a.76.76,0,0,0-.11-.14s0,0,0,0-.24.29-.18.12a.22.22,0,0,1-.11-.08s-.05,0,0,0,0-.06,0,0Z"/><path class="cls-3" d="M141.39,4.8h0s0,0,0,0,0,0,0,0,0,0,0,0,0,0,0,0h0s0,.06,0,0,0,0,0,0,.07-.05,0,0l.13.05c.06,0,.09,0,.06.07s.09,0,0,0,.08,0,0,0h.05s0,0,0,0h0c.05.13.15-.07.11,0,.12,0,.15,0,.11,0s.17,0,.14,0,0,0,0,0,0,0,0,0,0,0,.06,0,0,0,0,0,0,0,0,0c0-.15,0-.11,0,0h0s0,0,0,0,0,0,0,0h0s0,0,0,0,0,0,0,0,.07-.07,0,0,0,0,0,0,0,0,0,0,0,0,.06,0,0,0,0,0,0,0,0,0,0,0,0,0,0,0,.06,0V5s0,0,.11,0,0,0,0,0,0,0,0,0,0,0,0,0,0,0,0,0h0c.08,0,.11,0,.08,0,.17,0,.22.05.16.12s0,0,0,0,0,0,0,0,0,0,0,0,0,0,0,0l.05,0h0c.15-.07.2-.07.15,0s0,0,.08,0,0,0,0,0v0h0l0,0c.09-.1,0,.12.09,0s0,0,0,0h0c0,.16.09-.07.11,0s.22.06.27.08,0,0,0,0,.07.06,0,0,0,0,0,0,0,0,0,0,0,0,.07,0,0,0,0,0,.05.15.11.09,0,0,0,0c.22-.18,0,.23.19,0,0,0,0,0,0,0s0,0,.08,0,0,0,0,0,.11,0,.09-.08,0,0,0,0c.19-.2,0,.26.18.06,0,0,0,0,0,0s0,0,.07,0h0s0,0,0,0,0,0,0,0,.12,0,.08,0,0,0,.1,0,0,0,0,0,0,0,.08,0,0,0,0,0,.05,0,0,0,0,0,0,0,0,0,0,0,.07,0,.07,0,0,0-.05,0,.12-.05.15-.05a.11.11,0,0,1,.06-.11v0c.09,0,.12,0,.09,0h0c-.06.07-.06.1,0,.08-.16.14,0,0,0,.08s0,0,0,0,0,0,0,0h0s0,0,0,0h0s0,0,.05,0,0,0,0,0,0,0,0,0,0,0,0,0,0,0,0,0h0c.08-.06.1-.06.08,0,.16-.1.22-.11.16,0s.18-.06.17,0,.05,0,.1,0,0,0,0,0,.23.07.11.12,0,0,0,0h0a.22.22,0,0,0,.14,0s0,0,0,0,0,0,0,0h0q0-.09.06-.06s0,0,0,0,.21,0,.17.09,0,0,0,0,0,0,0,0,0,0,.07,0h0c.06,0,.07,0,.05,0s.08,0,.06,0,0,0,.06,0,0,0,0,0,0,0,0,0,0,0,0-.06h0s0,0,0,0h0s0,0,0,0,0,0,0,0v0c0,.06,0,.07,0,0s0,.06,0,0,.2.26.31.26.19.17.11.15.12.24.14.2,0,0,.07,0,0,0-.05,0,.12.07.1,0,0,0,0,0,0,0,0,0,0,0,0,0h0s0,0,0,0,.06,0,0,0,0,0,0,0h0c0,.06,0,.09,0,.06s0,0,0,0h0c.05,0,.05.06,0,0s.06,0,0,0h0s0,0,0,0,0,0,0,0a.11.11,0,0,0,0,.16s0,0,0,0,.1.11.12.1,0,.08,0,.05h0s0,0,0,0,0,0,0,.07h0a.05.05,0,0,1,0,.05s0,0,0,0-.05.09-.05.05,0,.09,0,.06v0s0,0,0,0-.08.06-.06.06,0,0,0,0,0,0,0,0,0,.13,0,.11-.2.15-.21.19h0s0,0,0,0v0s-.06,0-.06.08a.2.2,0,0,0,0,.05c0-.05,0-.08,0-.05s-.09.07,0,.06-.1,0-.07,0-.28.18-.28.26,0,0-.08.07h0c-.05,0,0,0-.1,0h0v0s0,0,0,0,0,0,0,0a0,0,0,0,0,0,0s0,0,0,0-.21-.06-.17,0-.15,0-.12,0,0,0,0,0,0,0,0,0,0,.07,0,.06,0,0,0,0,0,0,0,0,0,.09,0,.06-.05.21-.11.11,0,0,0,0,0,0,0,0-.08,0-.05,0,0,0,0,0,0,0,0-.06,0,0,0,0,0,0,0,0c.07-.17-.08,0-.09,0s0,0,0,0,0,0-.05,0,.05.11,0,0h0s0,0,0,0,0,0,0,0-.13.13-.11,0,0,0,0,0,0,0,0,0-.13,0-.1,0-.1,0-.06,0,0,0-.05,0-.11,0-.08,0h0c-.09.16-.13.2-.09.14S145,8,145,8s0,0,0,0,0,0,0,0-.09.07-.09,0-.05.1-.05.07,0,.09,0,.13,0,0,0,0,0,0,0,.06h0s.05.07,0,.06,0,0,0,0,0,.07,0,0,0,0,0,0,0,0,0,0,.09.05,0,.09h0s0,0,0,0-.06.09,0,.08h0l0,0s0,0,0,.05h0s0,0,0,0,0,0,0,0-.07.14,0,.12l0,0s0,0,0,0,0,0,0,0,0,0,0,0,0,0,0,0-.06.09,0,.07,0,.08,0,.06V9h0a.67.67,0,0,1,0,.22s0,0,0,0h0l0,0h0s0,0,0,0h0s0,0,0,0,0,0,0,0-.06.07-.06,0,0,0,0,0v0s0,0-.06.05c.1-.11.12.07.06.06s0,0,0,0,0,0,0,0a.11.11,0,0,0,0,.08h0s0,0,0,0,0,0,0,0,0,.12,0,.08,0,0,0,0h0s0,0,0,0a0,0,0,0,1,0,0c-.06,0-.06.19-.06.19h0c0,.11,0,.14.06.12s0,0,0,0a0,0,0,0,0,0,0s0,0,0,0,0,0,0,0c0,.17,0,.22,0,.15s.07.05,0,.12h0s0,0,0,0h0c.06.09.08.12.08.07s.21.14.13.17c.07,0,.09,0,.06,0a.19.19,0,0,0,.08,0c-.06,0-.07,0-.05,0s0,0,0,0,0,0,0,0,0,0,0,0,.07,0,0,0,0,0,0,0,0,0,0,0,.29,0,.24,0,.08,0,0,0l0-.05s0,0,0,0,.14.12.16.14,0,0,0,0c.15,0,.19.07.13.12s0,0,0,0l0,0c.08,0,.1-.05.06-.06s0,0,0,0,0,0,0,0,.1-.09.09,0,.1.06.06,0,.14,0,.09,0c.1,0,.13,0,.1,0,.13,0,.17,0,.11,0s.32-.23.3-.18,0,0,0,0,0,0,0,0h0l0,0a.29.29,0,0,1,.07-.08.45.45,0,0,1-.07.07s.06-.1.1-.06,0,0,0,0,.1-.05.07,0c.13,0,.16,0,.1,0,.12,0,.16,0,.12,0s0,0,.08,0h0c.23,0,.31,0,.22,0s0,0,0,0,.05-.05,0,0,0-.11,0-.08,0,0,.05,0,0,0,0,0h0s0,0,0,0,0,0,0,0,0,0,0,0,0,0,0,0,.14.09.09.11,0,0,0,0,0,0,0,0,0,0,0,0,0,0,0,0,0,0,0,0,0,0,0,0,0,0,.06,0,0,0,0,0,0,0,0,0,0,0,0,0,.12,0,.07,0,0,0,0,0v0s0,0,0,0,0,0,0,0,.23,0,.13,0c.1,0,.13,0,.1,0s0,0,0,0,0,0,0,0a.05.05,0,0,0,.05,0h0s.12-.05.06,0,.27.32.2.33,0,0,0,0l0,0c.24.18.08.25.11.41h0s0,0,0,.05h0c0,.16,0,.2,0,.13,0,.15,0,.19,0,.13s0,0,0,0h0s0,0,0,.09l0,0c.14,0-.14.29,0,.33,0,.11,0,.17,0,.14s0,0,0,0h0c0,.06,0,.08,0,.05s-.12.2-.07.13c0,.1,0,.13,0,.09s0,.13,0,.08c-.05.1-.05.13,0,.1s0,.06,0,0-.13.08-.11,0,0,0,0,0,0,0,0,0,0,0,0,0h0a.05.05,0,0,0-.08,0h0s0,0,0,0h0a.09.09,0,0,1-.06.06s0,0,0,0-.1.15-.05.12q-.16,0-.09,0s0,0,0,0,0,0,0,0,0-.11,0-.06,0,0,0,0,0,0-.06.06,0,0,0,0-.07.1-.1,0h0s0,0,0,0,0,0,0,0,0,0,0,0v0h0s0,0,0,0,0,0-.05,0,0,0,0,0,0,0-.05,0v0s-.06.06-.05,0,0,0,0,0h0s0,0,0,0h0s-.09-.05-.05-.07,0,0,0,0v0s0,0,0,0,0,0,0,0,0,0-.07,0,0,0,0,0,0,0,0,0,0,0,0,0,0,0-.07,0,0,0,0,0c-.17,0-.22,0-.15,0s-.06,0-.06,0h0s0,0,0,0h0v-.1s-.09,0-.05,0a.13.13,0,0,1-.06,0l0,0s0,0,0,0,0,0,0,0-.11,0-.1,0-.09.07-.06,0l0,0v0l0,0s0,0,0,0-.08,0-.08,0-.38-.55-.12-.34c0,0,0,0,0,0l0,0s0,0,0,0,0,0,0,0-.05.12-.05.09,0,0,0,0v0s0,0,0,0-.07,0,0,0,0,0-.06,0h0l0,0,0,0h0s0,0,0,0q-.27.15-.18.06s0,0,0,0-.09,0-.06-.05l0,0s0,0,0,0,0-.1,0-.06a.14.14,0,0,1-.09-.15s0,0,0,0h0l-.18-.06c0-.07-.16.1-.14.08s0,0,0,0-.12,0-.11,0,0,0,0,0h0s0,0-.06,0h0s0,0-.06,0,0,0,0,0,0,0,0,0v0s0,0,0,0h0s-.16.07-.13.07h0s0,0,0,0h0s0,0,0,0,0,0,0,0-.14,0-.1,0,0,0-.05,0,0,.06,0,.08,0,0,0,0-.06,0,0,0-.28,0-.22,0-.07,0-.05,0a.07.07,0,0,0-.06,0h0s0,0,0,0h0s0,0,0,0,0,0,0,0,0,0,0,0-.06,0,0,0l0,.05v0s0,0-.05,0,0,0,0,0,0,0,0,0,0,0,0,0,0,0,0,0-.14.05-.11,0,0,0,0,0h0c-.1.05-.15,0-.14,0s-.14,0-.12,0-.06,0,0-.07,0,0,0,0,0,0,0,0,0,0,0,0h-.1c.1,0-.13.26-.09.07,0,0,0,0,0,0h0c-.15,0-.2-.06-.14-.11s0,0,0,0,0,0,0,0,0,0,0,0h0v0s0,0,0,0,0,0,0,0,0,0,0,0h0s-.13,0-.08,0,0,0-.06,0h0s0,0,0,0h0s0,0,0,0,0,0,0,0-.12,0-.09,0h0s0,0,0,0,0,0,0,0-.07,0-.14,0,0,0,0,0-.12,0-.11,0,0,.05,0,0v0s0,0,0,0,.08,0,0,0-.06.08-.06.08,0,0,0,0-.12,0-.07,0h0c-.16,0,0,0,0,0s.06,0,0,0,0,0,0,0,0,0,0,0,0,.05,0,0,0,.07,0,0,0,0,0,0,0,0,0,0-.2.06-.2,0h0s0,0,0,0l0,0,0,0v0s-.18,0-.06.14,0,0,0,0h0s0,0,0,0-.1,0-.08,0-.07,0,0,0-.09.13-.08.09,0,.09,0,.06,0,0,0,0,0,0,0,0,0,.08-.06,0,0,0,0,0,0,.12-.07,0c0,.06,0,.09-.07.08l-.16.06c-.07,0-.1,0-.09,0s0,0,0,0l-.09,0c0-.07,0-.09-.07-.05s0,0,0,0-.12,0,0,0,0,0,0,0,0,.07-.06.1,0,0,0,0a.43.43,0,0,0-.26.31c0,.07-.07.08-.07,0s-.08,0-.06.06-.12,0-.13,0-.1,0-.07-.06-.13-.07-.09,0,0,0,0,0,0,0,0,0-.09,0-.07,0,0,0,0,0,0,0,0,0h0s0,.08-.08.09,0,0,0,0h0c0-.09-.13.13-.11.06s0,0,0,0,0,0,0,0-.05,0,0,0-.07,0,0,0c-.15,0-.2.07-.13.09h0c-.05,0-.28.06-.2,0s0,0,0,0h0s0,0,0,0,0,0,0,0,0,0,0,0h0a.38.38,0,0,1-.19,0c.17-.16-.19.16-.14,0s0,0,0,.06l0,0c.06.12-.2.13-.17.15s0,0,0,0-.12.06-.09,0-.08,0,0,.05-.06,0,0,0-.43.17-.37.26-.15.12-.24.13v0c-.08,0-.11,0-.1.07h0s0,0,0,0l0,0v0s0,0,0,0,0,0,0,0v0l0,0v0c0,.06-.16.06-.17.1s-.12.07-.12.05-.07,0,0,0-.06,0-.1,0-.21.08-.17,0,0,0,0,0,0,0,0,0,0,0,0,0h0s0,0,0,0-.06,0,0,0c-.17,0-.22,0-.17,0s0,0,0,0h0s0,0,0,0h0s0,0,0,0,0,0,0,0l-.12,0c-.09,0-.1,0-.06.05s0,0,0,0,0,0,0,0,0,0-.06,0,0,0,0,0,0,0,0,0,0,.1-.08,0h0s0,0,0,0-.11-.06-.05-.08,0,0,0,0-.13.05-.08,0-.07,0-.07,0c-.27.09-.35.17-.25.22s0,0,0,0h0s0,0-.05,0h0c-.06,0-.07,0,0,0-.15-.11-.16.08-.28.16v0s0,0,0,0h-.06s0,0,0,0,0,0,0,0,0,0,0,0h0s-.09.09-.07,0-.14,0-.11,0c-.41,0-.53,0-.39,0-.07-.14-.1-.19-.07-.12s-.08-.1,0-.1-.15,0-.13,0,0,0,0,0,0,0,0,0-.12,0-.11,0-.13.09-.1.09,0,.05,0,0,0,0,0,0a0,0,0,0,0,0,0c-.06.08-.26.26-.32.21s-.08,0-.06,0,.16,0,0,.12c0,0,0,0,0,0s-.06.12,0,.06,0,.05-.08,0l0,0s0,0,0,0a0,0,0,0,0-.07,0s0,0,0,0,0,0,0,0h0c.07-.09-.16,0-.09-.07h-.09v0s0,0,0,0h0l0,0h0c-.06.05-.08.07,0,0s0,0,0,0h0c-.06,0-.35,0-.36,0s0,0,0,0-.07,0,0,0c-.15.1-.22.11-.22,0s-.1.05-.07,0-.09,0-.05,0,0,0-.05,0h0s0,0,0,0h0s0,0-.05,0h0c-.06.07-.06.09,0,.07-.13.12-.18.15-.13.07s0,0-.08,0,0,0,0,0,0,0,0,0-.07.12,0,0,0,0-.05,0,0,0,0,0v0c0,.06-.21.08-.11.14h0c-.14.2-.16.25,0,.14s-.06.2-.08.16-.05,0-.1,0,0,0,0,0h0s0,0,0,0-.11.11-.07.11-.26,0-.23,0,0,0,0,0,0,0,0,0,.08,0,0-.05,0,0,0,0h0s-.11.12-.08.05,0,0,0,0,0,0,0,0h0v0s0,0,0,0h0L132,16v0s0,0,0,0h0c-.06,0-.07,0,0,0a0,0,0,0,1,0,0s0,.06-.05,0-.25,0-.21-.12,0,0-.05,0l0,0s0,0,0,0,0,0,0,0h0s-.07.05-.06,0,0,0,0,0,0,0,0,0a.12.12,0,0,0-.05.05s0,0,0-.05,0,.07-.07,0,0,0,0,0-.05,0,0,0l0,0s0,0,0,0-.13.11-.09,0l0,0s0,0,0,0,0,0,0,0,0,0,0,0,0,0,0,0-.12.29-.17.15h0l0,0h0s0,0,0,0h0c.05-.06-.09,0-.07,0s0,0-.05,0,0,0,0,0-.06,0,0,0,0,0,0,0h0c-.08.06-.11.08-.06.05s.08.17,0,.21,0,0,0,0,0,0,0,0,0,.06-.05,0,0,0,0,0-.18.11-.19.12a0,0,0,0,0,0,0c-.06,0-.08,0-.06,0s0,0,0,0,0,0,0,0,0,0-.05,0-.1,0,0,0-.08,0-.06,0h0c-.16,0-.21,0-.14,0s0,0,0,0,0,0,0,0-.34,0-.2-.1c-.11,0-.14-.05-.09,0v0c-.09.07-.12.07-.09,0-.16,0,0-.05-.08-.1l0,0a.08.08,0,0,1,0,0,0,0,0,0,1,0,0h0c-.05,0-.08,0-.07,0s-.06,0-.05,0-.05-.06,0-.06,0,0,0,0v0s0,0,0,0,0,0,0,0-.07-.08,0,0,0-.08-.06-.05,0,0,0,0,0,0,0,0,0,0,0,0,0,0,0,0,0,0,0,0,0,0,0,0-.06.08,0,0,0,0,0,0,0,0,0,0-.06.05-.09.05,0,0,0,0-.06.08-.07.06,0,0,0,0,0,0,0,0h0c-.06,0-.17,0-.12-.06a.9.9,0,0,0,0-.13s-.22,0-.16,0l-.2-.23h0s0-.09,0-.06-.11-.34-.17-.32h0a.13.13,0,0,0,0-.05l0,0s0,0,0,0,0-.09-.07,0,0,0,0-.05,0,0,0,0a.86.86,0,0,0,0-.17s0,0,0,0h0c0-.07,0-.1,0-.07s0-.06,0-.07h0c0-.05-.1,0-.06,0s0-.07,0,0c0-.13,0-.17,0-.13s0,0,0-.05-.06-.15-.07-.16h0s0,0,0,0h0c0-.21,0-.27-.07-.2s0,0,0-.06h0s0-.3,0-.19.08,0,0-.06,0,0,0,0,0,0,0,0,0,0,0,0,0-.05,0,0c.08-.15.09-.2,0-.15s0,0,0,0,0,0,0,0,0-.15,0-.15.1-.13.08-.09,0,0,0,0h0s0,0,0,0h0l.16-.07s0,0,0,0,.12-.07.1,0l0,0s0,0,0,0,.1-.14.07-.09,0,0,0,0v0c.11-.1.06.34.17,0,.17,0,.21-.07.14-.09v0c.08-.11.1-.14,0-.11s0,0,0,0,0,0,0,0,0,0,0,0,0-.09,0,0,0,0,0,0,0,0,0,0,.08,0,.05,0,.09,0,.06,0,.1,0,.06,0,.11-.07.11,0,0,0,.05,0h0l0,0c-.05-.12,0,0,0-.06s0,0,0,0h0l.07,0h0s0,0,0,0h0s0,0,0,0h0c0,.05.1,0,.11,0l0,.06c.05-.05.19,0,.12,0s0,0,0,0l0,0s0,0,.06,0l0,0s.22.06.18,0,0,0,0,0h0s0,0,0,0,0,0,0,0,.09-.06,0,0c-.07-.19.25-.06.2,0h0s0,0,0,0l0,0s0,0,0,0,0,0,.05-.05,0,0,0,0,0-.11,0-.09,0,0,0,0c.15.09.28-.16.29-.17s0,0,0,0,0-.07,0,0,.15-.1.12-.12v0s0,0,0,0,0,0,0,0,0-.13.1-.16,0,0,0,0,0,0,.05,0l0,0s0,0,.06,0,0,0,0,0h.13v0s0,0,0,0,0,0,0,0,0,0,0,0a.2.2,0,0,0,.06-.07s0,0,0,0,.09,0,.05,0h.07s.12,0,.08.14.11-.06.08,0c.37-.2-.08,0,.19-.05h0s0,0,0,0a.07.07,0,0,0,.08,0s0,0,0,0,0,0,0,0,0,.06,0,0,0,0,0,0,0,0,.06,0h0v0h0s0,0,0,0,0,0,0,0,0,0,0,0l0,0h0s.25-.07.27-.07,0,0,0,0,0,0,0,0,0,0,0,0,.08,0,.09,0,0,0,0,0,.09-.1,0-.09.1-.09.15,0,0,0,0,0,.13,0,.09,0v0h0s0,0,0,0,0-.26,0-.24,0,0,0,0,0,0,0,0a.11.11,0,0,0,.15,0c0-.05,0-.21.05-.14a.08.08,0,0,0,0-.08s0,0,0,0,.15-.17.12-.11,0,0,0,0h0s0,0,0,0h0c0-.06,0-.08,0,0s0,0,0,0c.18-.26.24.24.19.12.07,0,.25.15.21.22s0,.07,0,0,.08.07.06.09.14.07.08.09,0,0,0,0v0l.08-.07h0c0-.06,0-.09,0,0s.13-.07.11-.06,0-.05.07,0,0,0,0,0a1.92,1.92,0,0,0,.32.09s0,0,0,0,.13-.18.09-.09.16-.23.12-.25l0,0s0,0,0,0,0-.1,0-.05.09,0,.07,0h0l.11,0s0,0,0,0,0,0,0,0,0,.08.07,0h0s0,0,0,0h0c0-.08,0-.1,0-.06s.05,0,0,0,.13,0,.08-.06,0,0,0,0,.09,0,.06,0a.08.08,0,0,0,.1,0h0c.06,0,.08,0,.05,0s.13,0,.09,0,.09,0,.11,0h0s0,.07.09,0h0s.09-.1.06-.11,0,0,0,0h0s0,0,0,0h0c-.19,0,.18-.13,0,0h0s0,0,0,0,0,0,.07,0h0c.08,0,.1,0,.07-.05s.06,0,0,0,0,0,.05,0,0,0,0,0,.05,0,0,0,0,0,0,0,.13-.18.1-.07,0,0,0,0,0,0,0,0,.06,0,0,0,0-.05,0-.05,0-.24,0-.14,0,0,.06,0,0,0,0,0,.1,0,0-.07h0s0,0,0-.05h0s0,0,0-.08h0a.06.06,0,0,1,0-.06s0,0,0,0,0,0,0,0h0c.1-.06.14-.06.11,0s0,0,0,0,0,0,0,0,.08-.07.07,0,0,0,.05,0,0,0,0-.05,0,0,0,0l0,0s0,.05,0,0,.1-.17,0-.12a.07.07,0,0,0,0-.06s-.07,0,0,0-.08-.15-.09-.08.14-.26.1-.17c.09-.08,0,0,0,0v0s0,0,0,0,0-.07,0-.07,0,0,0,0,0,0,0,0h0s0,0,0,0,0,0,0,0,0,0,0,0,0,0,0,0,0-.08,0-.12h0s0-.05,0-.08h0a.91.91,0,0,0-.07-.14c0-.09-.08,0-.06,0h0a.22.22,0,0,0-.12-.13s-.2,0-.12-.06,0,.05-.07,0h0s0,0-.05,0h0s0,0,0,0,0,0,0,0h0s0,0,0,0,0,0,0,0h0s0,0,0,0,0,0,0,0,0,0,0,0,0,.1,0,.12c-.13.05-.16.05-.13,0s-.1-.09-.05-.1,0,.07,0,0,0,0,0,0-.2,0-.24,0-.09,0-.2,0c-.63,0,0,0-.22-.07,0-.06,0-.07,0,0s-.19-.12-.18-.16-.06,0,0,0-.15-.16-.09-.13-.07-.07-.06,0-.15,0-.05,0c-.08,0-.1,0-.07,0s0,0,0,0h0s0,0,0,0,0-.09,0-.1,0-.16,0-.16,0-.06,0,0,0,0,0,0,0-.08,0-.08,0,0,0,0,0,0,.08,0,0,0,0,0,0,0,0,0,0,0,0,0,0,0,0,0,0,0,0,0,0,0,0,0,0,0,0,0,0,0,0,0,.06,0,0-.07,0,0,0,0,0,0,0,0,.07-.05.07,0S134,8,134,8c0-.18,0-.24,0-.18s0,0,0,0a.5.5,0,0,1,0-.12c.06,0,0-.07,0-.08s0,0,0,0,0,0,0,0,0,0,0,0a0,0,0,0,0,0,0s0,0,0,0h0l0,0h0s0,0,0,0,0-.05,0,0,0,0,0,0,0-.2.11-.2.08-.08.07,0,.13,0,.1-.1.11-.1.06-.09c.14,0,.25.14.3,0s.07-.1.07-.1h0s0-.11,0-.07l.05,0,0,0s.06,0,.08,0h0s.14,0,.15,0h0a0,0,0,0,1,0,0s0,0,0,0c.22,0,.28-.08.19-.11.07,0,.07,0,0,0s.07,0,.05,0l0-.06c0,.1.12-.06.09,0h0l0,0c.2,0,.26-.08.18-.11s0,0,0,0h0s0,0,.07,0,0,0-.05,0a.07.07,0,0,0,.08.05s0,0,0,0,0,0,.07,0h0s0,0,0,0,0,0,0,0,0,0,0,0l0,0s0,0,.09,0,0,0,0,0c.16,0,.22,0,.15,0s.11-.07.08,0c.08-.11.12-.13.11-.06h0s0,0,0,0,.18,0,.16,0,0,0,0,0a0,0,0,0,1,0,0s0,0,0,0,.1-.16.06-.18l0,0c.06,0,.07,0,0,0,.17-.06.22-.06.13,0a.14.14,0,0,1,.09-.12v0s0,0,0,0,0,0,0,0,0,0,0-.06,0,0,0,0c.12-.09.16-.1.12,0s.15-.05.09-.07c.11,0,.13,0,.08,0s.12-.1.09,0a.08.08,0,0,0,.09,0l0,0c0-.06,0-.07,0-.06s0,0,0,0,.07-.06,0,0,0,0,.07,0,0,0,0,0,.06,0,.07,0,0,0,0,0,0,0,.09,0,.17-.06.15-.06.05,0,0,0,0,0,0,0,0,0,0,0l0,0V6s0,0,0,0,0,0,0,0,.14,0,.08.06S138,6,138,6h0c.09,0,.1,0,.05,0,.11,0,.14,0,.09,0l0,0s0,0,0,0,0,0,0,0v0l0,0,0,0s0,0,.05,0,0,0,0,0h0s0,0,.05,0,0,0,0,0,0,0,.05,0,0,0,0,0,.24-.09.14-.15,0,0,0,0,0-.05,0,0,0,0,0,0h0s0,0,0,0,.09-.11.06-.06,0,0,0,0,0,0,0,0,.06,0,0,0h0c.07-.06.09-.07.06,0s.08,0,.05,0h.11c.09-.05.11-.05.09,0s.07,0,.11,0,0,0,0,0,.11-.07.07,0a.15.15,0,0,0,.19,0s0,0,0,0,.12.07.09,0h0s0,0,0,0,0,0,0,0c.16-.1.21-.11.18,0s.14,0,.09,0a0,0,0,0,0,0,0l0,0,0,0c.22,0,.29,0,.2,0q.13,0,.09.09c.07,0,.09,0,.05,0l0,0s0,0,0,0,0,0,0,0h0s0,0,0,0,0,0,0,0,0,0,0,0h0s0,0,.05,0v0s.15-.07.09-.09c.11-.06.14-.09.11,0,.14,0,.19-.1.15-.17h0s0,0,0,0,0,0,0,0,.16-.07.1-.08h0q.09,0,0,0s.07,0,0,0,.15,0,.1,0,0,0,0,0,0,0,0,0,0,0,0,0,0,0,0,0,0,0,0,0,.1,0,.06,0v0s0,0,0,0,0,0,0,0,0,0,0,0,.09,0,.06,0,.08,0,0,0,0,0,0,0,0,0,0,0,0,0,0,0h0c.05,0,.06,0,0,0s.06-.07,0,0,0,0,0,0,.28-.1.11-.17c0,0,0,0,0,0h0S141.39,4.79,141.39,4.8Zm2.49.53a.17.17,0,0,0-.06-.06Zm-8.49,9.52s0,0,0,.05S135.4,14.87,135.39,14.85Zm5.49-6.72a.25.25,0,0,0-.2,0s0,0,0,0-.13.1-.08.07,0,.06,0,0,0,0,0,0,0,0,0,0,0,0,0,0,0,0,0,0-.06,0,0,0-.07.1-.09,0h0s0,0-.07.05,0,0,0,0-.09,0,0,0,0,0-.06,0,0,0,0,0,0,0,0,0v0s0,0,0,0,0-.09,0-.07-.09,0-.1-.07,0,0,0,0H140v0h0s0,.06-.06.06l0,0c-.09,0-.1,0-.08,0s0,0,0,0h0c-.12,0-.15,0-.1,0h0a0,0,0,0,0,0,0c0,.05,0,.06,0,0h0s0,0,0,0,0,0,0,0-.16.2-.15.25,0,0,0,0v0s-.38.28-.27.17c0,.13,0,.17-.07.13s0,0,0,0h0s-.05,0,0,0h0a.44.44,0,0,1,0,.1h0s0,0,0,0l0,0s0,0,0,0,0,0,0,0,0,0,0,0,0,0,.05,0,0,.14,0,.14v0s0,0,0,0,0,0,0,0,0,0,0,0,0,0,0,.07,0,0,0,0a.9.9,0,0,1-.09.1s0,0,0,0,0,.16,0,.11,0,0,0,.08h0c0,.1,0,.12,0,.07s.06.11,0,.12,0,.06,0,.07,0,0,0,0,0,0,0,.06l0,0s0,0,0,.06,0,0,0,0h0s.05,0,0,0,0,0,0,0c-.05.17,0,.21,0,.11,0,.06,0,.07,0,0s0,.08,0,.06h0s.07,0,.07,0,.1,0,.09,0,0,0,0,0,0,0,0,0,.11,0,.07,0a1.26,1.26,0,0,1,.43,0,.3.3,0,0,1,.08-.08h0c.56-.41.84-.45.83-.15.06-.1,1.18-1.44.48-1.08,0,0,0,0,0,0s.05,0,.05,0c.16.24,0-.23,0-.11s0-.08,0-.08h0s0-.14,0-.09S141.19,7.16,141,8l-.14.09C140.79,8.12,140.92,8.08,140.88,8.13Zm-.56.18,0,0Z"/><path class="cls-3" d="M144.45,14c.17,0,.22,0,.16,0s.06,0,0,0c.18,0,.25,0,.2,0s0,0,.1,0,0,0,0,0,.2.11.17.13.29.27.23.29.09,0,.05,0,.09.08.08.07.23.1.13.11c.07,0,.1,0,.07.05s0,0,0,0,0,0,0,0h0s0,0,0,0,.13.16.13.08l0,0c0,.07,0,.09,0,.06s0,0,0,0,.08.2.07.13c0,.14,0,.18-.05.13s0,.16,0,.16,0,0,0,.06h0s0,0,0,0l0,0,0,0s0,0,0,0,0,.05,0,.08-.06,0-.07,0,.08.11.12.07,0,0,0,.09,0,0,0,0,0,0,0,0,0,.29,0,.34,0,.1,0,.11h0l0,0h0s0,0,0,0,0,0,0,0,0,0,0,.08h0s.05,0,0,0,0,0,0,0h0s0,0,0,0,0,0,0,0,.06.21.07.28-.05.09,0,0q0,.19,0,.12c0,.14,0,.19,0,.13s.07.14,0,.17h0c0,.05,0,.06,0,.05s-.06.09,0,.07,0,0,0,0,0,0,0,0-.05.13-.05.08,0,0,0,0,0,0,0,0,0,0,0,.05,0,0,0,0l0,0s0,0,0,0,0,.05,0,.08h0s0,0,0,0h0s0,0-.05.05,0,0,0,0l-.11.08h0s0,0,0,0,0,0,0,0,0,0,0,0h0c0,.06,0,.08,0,0s0,.05,0,0,0,0,0,0h0s0,0,0,0,0,0,0,0,0,0,0,0,0,0,0,0,.06,0,0,0,0,0,0,0a0,0,0,0,1,0,0,0,0,0,0,1,0,0s-.06.08,0,.05.1,0,.07,0h0a0,0,0,0,0,0,0s0,0,0,.06,0,0,0,0c0,.31,0,.4,0,.29s-.12.11-.08.12c-.09.22,0,.11,0,.12s0,.13,0,.08,0,0,0,0,0,.08,0,.08.05,0,0,0,.1.09.05.07c-.06.14-.08.19,0,.13,0,.1-.05.12,0,.08s-.06.14,0,0c.2.09-.06.16,0,.16h0s0,0,0,0h0s0,0,0,0,0,0,0,0h0c.09.13.1.17,0,.15h0c.05,0,.07.05.09.07s0,0,0,0l0,0h0s0,0,0,0,0,0,0,0,0,0,0,.1l0,0c.13,0,.17.09.12.13h0c0,.09,0,.12,0,.1s-.12.07-.1.13,0,0,.07,0,0,0,0,0,0,0,0,0,0,0,0,0,0,.06,0,.1.05.21,0,.2v.06s0,0,0,0,0,0,0,0,0,0,0,0,0,0,0,0-.06.07,0,.05,0,.06,0,.09h0s0,0,0,0h0c0,.07,0,.09,0,.05l0,0v0s-.06,0-.05,0,0,0,0,0a.4.4,0,0,1-.1.12h0l0,0v0s-.06,0-.06,0,0,0,0,0-.07.07,0,.08h0l0,0a0,0,0,0,1,0,0l0,0s0,0,0,0,0,0,0,0,0,0,0,0-.06.08,0,.08,0,0,0,0h0c0,.06,0,.07,0,0s0,0,0,0,0,0,0,0l0,0h0c-.08.1-.07.09,0,.06s-.23.08-.11,0q-.21-.12-.12-.09c0-.07,0-.09,0,0s-.13,0-.05,0,0,0,0,0h0a.1.1,0,0,0-.07.06s-.11.12-.13.16-.05.11-.06.06,0,0,0,0,0,0,0,0,0,0,0,0,0,0,0,0h0c-.12,0-.16,0-.13,0s0,0-.06,0,0,0,0,0,0,0,0,0a0,0,0,0,1,0,0c-.06,0-.08,0-.06,0s-.16-.09-.18,0,0,0-.05,0h0s0,0,0,0,0,0,0,0-.13,0-.13,0,0,0,0,0,0,0,0,0,0,0,0,0,0,0,0,0v0s0,0,0,0,0,0,0,0,0,0,0,0,0,0,0,0l0,0a.13.13,0,0,1,0,.06s0,0,0-.06a.22.22,0,0,1-.07.07s0,0,0,0-.1.08-.05.06l0,0h0s0,0,0,0,0,0,0,0-.06,0,0,0,0,0,0,0-.06,0,0,0h-.07s-.15-.22,0-.17-.11-.12-.1-.12,0,0,0,0-.25-.12-.17-.1-.18-.12-.16-.12-.1.09-.07.05,0,0,0,0h0c0-.05,0,.06,0,0h0v0h0s0,0,0,0-.11.06-.07,0,0,0,0,0,0,0,0,0,0,0,0,0,0,0,0,0-.17,0-.11,0,0,0,0,0-.1,0-.1,0h0s0,0,0,0h0s0,0,0,0,0,0,0,0l0,.05s0,0,0,0h0c-.08.07-.05.06-.12.09s0,0,0,0a.94.94,0,0,1-.15.06s0,0,0,0,0,0,0,0,0,0,0,0,0,0,0,0h0s0,0,0,0-.11.11-.06.08,0,.07,0,.06v0h0s0,0,0,0,0,0,0,0a.08.08,0,0,1,0,0s0,0,0,0-.09.14-.06.08l0,0v0s0,0,0,0,0,0,0,0-.13,0-.08,0,0-.08,0,0,.08,0,0,0,0,0,0,0,0-.18,0-.12,0,0,0,0,0,0,0,0,0-.09,0-.06,0,0,0,0v0s0,0,0,0,0,0,0,0h0c0-.08-.08,0-.05,0s0,0,0,0,0,0,0,0,0,0,0,0l0,0h0s0,0,0,0h0s0,0,0,0,0,0,0,0,0,.09,0,.06h0c-.05,0,0,0,0-.07s0,0,0,0c.11-.32-.12.07-.08-.05s0,0,0,0-.13.27-.07.11c0,0,0,0,0,0s0,0,0,0-.11,0-.1,0,0,0,0,0,0,0,0,0-.09,0-.06,0,0,0,0,0,0,0,0,0c-.2,0-.27,0-.19,0s0,.06,0,.08-.06,0,0,0-.09,0-.06,0-.1,0-.1,0,0-.06,0,0,0-.05,0,0,0,0,0,0,0,0,0,0,0,0,0,0h0s0,0,0,0,0,0,0,0,0,0,0,0,0,0,0,0a0,0,0,0,1,0,0q-.11,0-.06,0s0,0,0,0,0,0,0,0,0,0-.05,0,0,.06,0,0c-.17,0-.22,0-.16,0s0,0-.05,0,0,0,0,0l0,0c-.09,0-.11,0-.07,0s-.09,0-.06,0-.05,0-.1,0,0,0,0,0c-.16,0-.21,0-.14.06s-.5,0-.4,0,0,0,0,0,0,0,0,0a0,0,0,0,0-.07,0h0s0,0,0,0-.08,0,0,0,0,0,0,0h0s0,0-.06,0,0,0,0,0,0,0,0,0h0s0,0,0,0a0,0,0,0,1,0,0c-.09.15-.13,0-.16,0s0,0,0,0,0,0,0,0,0,0,0,0,0,0,0,0-.07-.06-.05-.05,0,0,0,0a0,0,0,0,1,0,0s0,0,0,0h0s-.05,0,0,0-.17.13-.12.08,0,.08,0,.05h0c-.29,0-.38,0-.27,0s0,0-.05,0,0,0,0,0,0,.05-.08,0a0,0,0,0,0,0,0s-.07,0,0-.07-.12.11-.05.05-.1.12-.09.06,0,0,0,0h0c-.05,0-.06,0,0,0s0,.11,0,.07,0,0,0,0-.07,0-.05,0-.06,0,0,0,0,0,0,0h0s0,0,0,0h0s0,0,0,0,0,0,0,.05h0c0,.11,0,.15,0,.09s-.14,0-.09.06,0,0,0,0h0c0-.09-.35,0-.28-.16s-.07,0-.06,0,0,0,0,0-.1.06-.06,0-.07.11-.05.05,0,0,0,0h0s-.05,0,0,0-.08,0-.09,0,0,0,0,0c-.19,0-.25-.06-.17-.13s0,.06-.06,0,0,0,0,0-.15,0-.1,0-.41.08-.45.09-.12,0,0-.05h0c0-.05,0-.05,0,0s0,0,0,0,0,0,0,0,0,0,0,0,0,0,0,0h0c-.08,0-.1,0-.08,0s0,0,0,0,0,0,0,0l0,0s0,0,0,0-.06.05-.11.05,0-.05,0,0h0c-.09.07-.1.13,0,.15s-.1.09-.09,0h0s0,0,0,0,0,0,0,0,0,.09,0,0c-.17.21-.2.28-.1.26s-.09.15-.09.12,0,0,0,0,0,0,0,0-.05.09-.05,0,0,0,0,.05,0,0,0,0,0,.07-.06.08h0c0,.06,0,.09,0,.06s0,0,0,0,0,0,0,0h0a.35.35,0,0,1,0,.1c0,.13,0,.15,0,.11-.24.19-.3.26-.19.2-.08.07.07.24,0,.32s0,0,0,0,0,0,0,0,0,0,0,0-.06.17,0,.12,0,0,0,0,0,0,0,0,0,0,0,0l-.16.09,0,0v0s-.06,0,0,0c-.11.21-.14.27-.09.2s-.09.06-.09,0-.06.07,0,0-.09.05-.06.05,0,.06,0,.1c0-.19-.16.16-.16.13s0,0,0,0,0,0,0,0,0,.06,0,0c-.11.18-.14.24-.1.16s-.09.06-.07,0h0s0,0,0,0-.28.08-.23,0c-.09.1-.11.13-.06.1l0,0s0,0,0,0,0,0,0,0a0,0,0,0,0,0,0l0,0s0,0,0,0,0,0-.05,0,0,0,0,0-.05.05-.09.05,0,0,0,0,0,0,0,0,0,0,0,0-.07,0-.05-.08c-.18,0-.22,0-.15,0s0,0,0,0,0,0,0,0,0,0,0,0,0,0,0,0l-.16-.06c-.1-.1-.13-.12-.11-.07s-.18-.06-.14-.12-.17,0-.11,0,0,0,0,0,0,0,0,0h0l0,0h0s0,0,0,0h0c0,.06-.09.12-.09.09s0,0,0,0h0s0,0,0,0,0-.23-.1-.23,0,0,0,0,0,0,0,0h0c-.12-.18-.15-.26-.06-.22s0,0,0,0,0-.11-.07-.05,0,0,0-.05h0s0,0,0,0h0s0,0,0-.06h0s0,0,0,0,0,0,0,0h0c0-.1.06-.13,0-.1,0-.13,0-.15,0-.12s0,0,0-.05h0s0,0,0-.06h0a.66.66,0,0,1,0-.19c0-.07.05-.1,0-.06s0,0,0,0a0,0,0,0,0,0,0s0,0,0-.05,0,0,0,0,0-.1,0-.07-.13-.09,0-.08,0,0,0,0,.16-.07.12-.07v0s0-.05,0-.06,0,0,0,0v-.14s0,0,0,0,0,0,0,0,0,0,0-.05,0,0,0,0,.06-.07,0,0,0-.14,0-.1,0,0,0,0,0,0,0,0,0,0,0-.05,0,0,0,0,0,0,0-.05h0s0-.06,0,0,0,0,0,0h0s0,0,0,0,0,0,0,0,0,0,0-.06,0,0,0,0c-.17.28,0-.47,0-.21,0-.05,0-.07.06,0s0,0,0,0,0,0,0,0,0,0,0,0,0,0,0,0-.08-.41-.11-.27c0,0,0-.19,0-.1s0,0,0-.05,0,0,0,0,0,0,0,0,0,0,0,0,0,0,0,0,0,0,0,0l0,0s0,0,0,0,.08-.17,0-.13,0,0,0,0,0-.14,0-.1h0a0,0,0,0,0,0,0s0,0,0,0l0,0h0c-.09,0-.09,0,0-.05s0,0,0,0,0,0,0,0,0,0,0,0,.09,0,0,0c.13-.09.18-.1.15,0l0,0,0,0c.11-.05,0-.06,0-.06s0,0-.07-.08,0,0,0,0,0-.05,0,0,0,0,0,0,0,0,0,0,.1-.15.11-.16,0,0,0,0,0,0,0,0h0c.09-.08.11-.11,0-.07s0-.05,0-.06h0s0,0,0,0,0,0,0,0,0,0,0,0,0,0,0,0h0s0,0,0-.05,0,0,0,0,0-.1,0-.08.09-.05.08,0q.22,0,.15-.18a0,0,0,0,0,0,0c0-.05,0-.27-.05-.19,0-.09-.13.07,0-.09s0,0,0,0,0,0,0,0c.08-.16.1-.22,0-.16a.14.14,0,0,1,0-.06h0q.06-.09,0-.06c0-.07,0-.09,0-.05s0,0,0,0h0c.05,0,.24-.06.16-.09s-.19-.06-.08-.1,0,0,0,0,0,0,0,0h0s.19,0,.22-.06,0,0,0,0,0,0,0,0,0,0,0,0,0-.05,0,0h0c0-.12,0-.16-.1-.12s-.06-.13,0-.1,0,0,0-.05,0,0,0,0c-.06-.14.1-.19.15-.18l0,0s0,0,0,0a.13.13,0,0,0,.09-.07h0s0-.07,0-.05h0s0,0,0,0,0,0,0,0,0,0,0,0,.08-.12.08-.1,0,0,0,0,0,0,0,0,.07,0,.08-.07,0,0,0,0,0,0,0-.08-.1,0-.08,0h0c.05,0,0-.22,0-.15.06-.18.07-.24,0-.18s0-.1,0-.06,0,0,0-.05-.06,0,0,0,0,0,0,0,0,0,0,0h0s0,0,0,0,0,0,0,0,0,0,0,0-.06,0,0,0-.12-.19,0-.13l0,0s0,0,0,0,0,0,0,0,.11-.19,0-.18l.11-.15c0,.51,0-.56,0-.4,0-.08,0-.1,0-.06s0,0,0,0,0,0,0,0c.07-.2.1-.27.1-.18.06-.07.07-.1,0-.08s0,0,0,0h0s0,0,0,0,0,0,0,0,.16-.17.11-.11v0s0,0,0,0,0,0,.1-.05,0,0,0,0v0h0l.14-.14s0,0,0,0,0,0,0,0h0s.07,0,0,0,.06,0,0,0l.05,0s0,0,0,0,0,0,0,0,.12,0,.07,0h0s0,0,0,0h0s0-.06.07,0h0s0,0,.11,0h0s0,0,0,0,0,.08,0,.06,0,0,0,0h.08s0,0,0,0,0,0,0,0,.08,0,.05,0,0,0,.08,0,0,0,0,0,0,0,.06,0,0,0,0,0,0,0,0,0,0,0,0,.06h0l.07,0s0,0,.05,0,0,0,0,0,0,0,0,0h0c.06,0,.08,0,.05,0h0s0,0,0,0h.08a.07.07,0,0,0,.08,0h0s0-.05,0,0,0,0,0,0,0,0,0,0h0s0,0,0,0,.15,0,.11.08,0,0,.06,0,0,0,0,0,0,0,0,0h0s0,0,0,0c-.08-.2.1,0,.05,0,.11.06.16.06.14,0s.1,0,.09,0l0,0v0h0s0,0,0,0,0,0,0,0,.06,0,0,0,0,0,0,0,0,0,0,0,.13,0,.1,0,0,0,0,.1l0,0s0,0,0,.06,0,0,0,0,0,0,0,0,0,0,0,0,.06,0,.05,0,0-.11,0-.11,0,0,0,0,0,0,0,0,.1,0,.06,0,0,0,.11,0,.08,0,0,0l.14,0s0,0,0,0,0,0,0,0,0,0,0,0,0,0,0,0,0,0,0,0v0c.07-.08.08-.1.05-.07v0c.07-.07.11-.07.11,0s0,0,0,0,0-.08,0-.05,0,0,0,0,0,0,0,0,.08-.11.06-.05,0,0,0,0,.18-.1.13,0,0,0,0,0,0,0,0,0h0s0,0,0,0c.07-.12.09-.17,0-.14s0,0,0,0,0,0,0,0,.09,0,.07,0,0,0,0,0,0-.08,0,0,0,0,0,0,0,0,0,0,.07,0,.05,0,0,0,0,0,0,.08,0,0,0,0,0,0l0,0s0,0,0,0l0,0s0,0,0,0,.08,0,0-.09c.14-.09.19-.1.15,0s0,0,0,0h0s0,0,0,0,0,0,0,0,0,0,0,0l0,0s-.1-.1.05-.1h0s0-.07,0,0l.17-.08c0,.06.1,0,.08,0s.05-.06.06,0a.76.76,0,0,1,.17,0s0,0,0,0,.13,0,.08,0,0,0,0,0,0,0,0,0,.11-.05.06-.07c.13,0,.06.09.17,0h0c.11,0,.14,0,.1,0s.09-.07.06,0H140c0,.06.11,0,.11,0h.07s.16-.14.16-.14,0,0,0,0,.2.05.12.08,0,0,0,0,0,0,0,0a.1.1,0,0,0,.13-.07l.13-.12s0,0,0,0a.06.06,0,0,0,.07,0l0,0,0,0s0,0,0,0,0,0,.06,0,0,0,0,0,.09,0,.14,0,0,0,0,0,0-.13,0-.13,0,0,0,0,0,0,0,0,0,0,0,0,0,0,0,0l0,0s.12-.12.11-.1,0,0,0,0,0,0,0,.07h0s0,0,0,.05.05,0,0,0h0c.06,0,.07-.06.05,0l.12-.07h0c.07-.07.09-.09.05,0,.12-.12.13-.13,0,0a.46.46,0,0,0,.07-.07h0c.16-.08,0,0,.12,0l0,0,0,0c0,.07.15.1.15.05s0-.11,0-.13,0,0,0,0,.05,0,.06,0h0s0,0,0,0,0,0,0,0,0,0,.05,0,0,0,0,0a.18.18,0,0,0,.13.06c0-.05,0-.07,0-.08s0,0,0,0l.05,0c.1-.14.12-.19.07-.14s0,0,0,0,0-.14,0-.09.09-.11,0,0c0-.1,0-.13,0-.08s.08,0,.07,0l.06,0,0,0a.31.31,0,0,1,.13-.06s0,0,0,0l0,0h0c.06-.09.31.09.28-.11,0,0,.07,0,.06,0s.16,0,.1,0a.06.06,0,0,0,.07,0s0,0,0,0,.09,0,.05,0c.06.18.13.23.2.17s0,0,0,0,.07,0,0,0,.07,0,0,0h0c-.06.06.14.2.08.19s0,0,0,0,0,.18.1.16h.07s.09,0,.09.05,0,0,0,0,0,0,0,0,0,0,0,0l0,0s0,0,0,0,0,0,0,0l0-.05h0c0-.08,0-.1,0-.07s0,0,0,0h0s0,0,0,0,0,0,0,0,0,0,0,0,0,0,0,0,0,0,0,0,0-.11,0-.07,0-.08,0-.05,0,0,0,0,0,0,0,0l0,0s0,0,0,0,0,0,0,0,0-.14,0-.06c.07-.13.1-.16.1-.1s.05,0,0-.05,0,0,0,0,0-.1,0-.07,0-.09,0-.07l0,0s0,0,0,0l0,0h0s0,0,0,0,0,0,0,0,0,0,0,0h0s.07-.07.09-.07,0,0,0,0,.1-.07.12,0ZM138,16.25l0,0S138,16.27,138,16.25Zm3.79.63c-.12,0-.15,0-.09,0s0,0,0,0,0,.18-.06.13,0,.06,0,0,0,0,0,0l0,0,0,0s0,0,0,0l0,.05h0s-.14.17-.13.11h0v0s0,0,0,0,0,0,0,0h0l0,0s0,0-.07,0,0,0,0,0-.12,0-.08,0l0,0h-.06c-.42,0-.54,0-.4,0,0,0,0,0,0,0v0h0s0,0,0,0,0,0,0,0-.06-.05,0,0-.08,0-.06,0a.06.06,0,0,0-.07,0s0,0,0,0-.1.17-.12.08h0c-.08,0-.1,0-.06,0s0,0,0,0,0,0,0-.05,0,0,0,0l-.08,0s0-.06-.06,0h0s0,0,0,0h0s0,0,0-.05h0a.14.14,0,0,0,0,0l-.07,0s0,0,0,0a0,0,0,0,0,0,0s0,0,0,0,0,0,0,0-.15.07-.12,0-.08,0,0,0l0,0c-.06-.07-.16,0-.2,0-.09.12-.13.15-.13.08h0c-.13.09-.33.1-.31,0s0,0,0,0,0,0,0,0-.09.07,0,0-.23.18-.12.07a0,0,0,0,1,0,0c0-.05,0,.05,0,.06s0,.19,0,.18,0,0,0,0,0,.05,0,0,0,0,0,0,0,.06,0,.09,0,0,0,0,0,0,0,0,0,0,0,0,0,.06,0,0,0,.06,0,0,0,0,0,0-.09,0,0,0,0,0,0,0,0,0,0,0c-.16.1.09,0,0,.06h0S139,18,139,18l0,.05s0,0,0,0,0,0,0,0,0,.08,0,.05c-.06.14-.28.22-.16.27a.69.69,0,0,1-.24.18h0s-.13.14-.1.19c0-.13-.17.26-.14.14-.1.08-.14.09-.11,0s0,0-.05,0,0,0,0,0,0-.1-.05-.07-.18,0-.14,0,0,.07,0,.05,0,0,0,0,0,0,0,0-.06.12,0,.1,0,0,0,0,0,0,0,0,0,0,0,.05,0,0,0,0,.09.16.06.12,0,0,0,0,0,.05,0,0,0,.06-.07.18h0s0,0,0,0,0,0,0,0,0,0,0,0,0,0,0,0a0,0,0,0,1,0,0c0,.2,0,.26,0,.18s0,0,0,.06,0,0,0,0,0,0,0,0,0,0,0,0,0,0,0,0,0,.06,0,.07,0,0,0,0,0,.07.1.05,0,0,0,0h0a0,0,0,0,0,0,0s.1-.06.05,0a.14.14,0,0,0,.09,0s0,0,0,0,0-.06,0,0,.17,0,.15,0,0,0,.06,0h0s0,0,0,0,0,0,0,0,0,0,.08-.07,0,0,0,0,.08-.07.05,0l.08,0s0,0,0,0l0,0s.07,0,.06,0,0,0,0,0,.21.06.21,0,.13,0,.06.06.09,0,.09,0a0,0,0,0,0,0,0c.07-.06.09-.08.06-.08s.1-.07,0-.09.07-.06,0-.06,0,0,0,0,0,0,0,0,0,0,0,0,0,0,0,0l0,0h0s.07,0,.07,0,0-.06,0,0,.07-.11.05-.07a0,0,0,0,0,0,0s0,0,0,0,0,0,0,0,0,0,0,0,.16-.06.12,0h0s0,0,0,0,0,0,0,0h0s0,0,0,0h0l0,0h0s.17-.13.16-.07.19,0,.26,0,0,0,.06,0,0,0,0,0,0,0,0,0,0,0,0,0,.11.07.11.1,0,0,.09,0,0,0,0,0,0,0,0,0,0,0,0,0,.17,0,.1,0,.09,0,.07,0,.07,0,.09,0,0,0,0,0,0,0,0,0h0s0,0,0,0a.07.07,0,0,0,0,.05s0,0,0,0,0,0,0,0,0,0,0,0,0,0,0,0,.09-.08.13,0,0-.07,0,0,0,0,0,0a.12.12,0,0,0,.08,0s0,0,0,0,.1-.07.07,0,0,0,0,0,0,0,0,0,0,0,0,0,0,0,0,0h0s0,0,0,0,0,0,0,0,0,0,0,0,0,0,0,0,0,0,0,0,0,0,0,0,0,0,0,0h0c0,.05.06.05.08,0s0,0,0,0,.09,0,.07,0h0s0,0,0,0,.12-.06.08,0,0,0,0,0,0,0,0,0,0,0,0,0-.07,0-.06,0,0-.07,0,0,.09,0,.08-.05.15-.08.13,0,.09-.07.07,0,.06.09.06.08h0s0,0,.07,0,0,0,0,0l0,0c.12-.25.15-.33.08-.25s0,0,0,0,0-.07,0,0,0-.05,0,0,0,0,0,0,0,0,0,0,0,0-.05,0,0,0,0,0,0,0,0,0,0,0,0,0h0s0,0,0,0,0,0,0,0,0,0,0,0v0c0-.07,0-.09,0-.06,0-.14.06-.19.06-.12,0-.11,0-.11,0,0s0,0,0,0,0,0,0,0,0-.05,0,0,0-.05,0-.05.11,0,.07,0a0,0,0,0,1,0,0c0-.08.05-.09,0-.06h0s0,0,0,0,.08-.15.12-.18,0,0,0,0,0,0,0,0h0s0,0,0,0h0s0-.05,0,0,0,0,0,0h0c.07,0,.09-.07,0,0s0,0,0,0,0,0,0,0,0,0,0,0,0,0,0,0,0,0,0,0,0,0,0,0,0,0,0-.05,0,0,0,0l0,0s0,0,0,0a.33.33,0,0,0,0-.14h0c0-.05.1-.09.08-.05s.1-.27.07-.25h0c0-.08,0-.1,0-.07s0,0,0,0,0,0,0,0,0,0,0,0,0,0,0,0-.09-.09,0-.07.09-.08.09-.08,0,0,0,0l0,0s0,0,0,0-.06-.07,0-.08,0,0,0,0v-.11l0,0c-.2,0-.25,0-.17,0-.16,0-.21-.09-.14-.11s0,0,0,0,0,0,0-.07,0,0,0,0-.09.05,0,0,0,.06,0,0h0s0,0,0,0,0,0,0,0-.11,0,0,0,0,0,0,0,0-.11,0-.09-.07,0,0,0,0,0,0,0-.1,0-.09,0,0,0,0,0,0,0,0,0S141.77,16.86,141.77,16.88Z"/><polygon class="cls-4" points="85.51 9.13 86.21 8.74 86.45 8.91 87.95 8.87 88.07 9.13 88.64 8.96 89.08 9.04 89.49 8.91 89.86 8.53 90.71 8.87 91.11 8.57 91.56 8.18 92.01 8.13 92.21 7.87 92.5 7.53 93.06 7.19 93.63 7.14 93.87 6.97 94.36 7.14 94.64 6.71 95.25 6.49 95.7 6.19 96.02 5.88 96.35 5.88 96.59 5.8 96.99 5.8 97.11 5.41 97.32 5.28 97.64 5.28 97.84 4.98 98.42 4.63 98.62 4.8 98.94 4.68 99.27 4.68 99.67 4.68 99.79 4.45 100.2 4.84 100.2 5.36 99.87 5.45 99.87 5.67 99.11 6.32 98.91 7.44 98.54 8.09 98.58 9.08 98.5 9.65 98.17 10.09 98.21 10.56 97.89 11.26 97.93 11.43 97.45 12.16 97.32 12.77 97.36 13.15 97.4 14.03 97.28 14.54 97.49 15.11 97.69 15.67 97.6 16.63 97.6 17.23 97.52 17.88 97.69 18.23 97.36 18.83 97.52 19.48 97.52 19.92 97.57 20.35 97.36 20.95 97.45 21.43 96.92 22.25 96.71 22.82 96.55 23.16 96.79 23.38 96.31 23.68 95.65 23.94 95.54 23.64 95.09 23.38 95.21 22.82 94.93 22.42 94.72 22.08 94.56 21.82 94.44 21.52 94.12 21.3 94.4 21.04 94.4 20.44 94.28 20.09 94.24 19 94.32 18.44 94.2 17.71 94.4 17.27 94.24 15.59 94.48 14.93 94.61 14.15 94.32 13.07 94.48 12.56 94.24 12.29 94.32 12.12 94.28 11.47 94.36 11.17 94.08 10.73 93.71 10.61 92.82 10.95 92.09 10.95 91.8 11.17 91.4 11.26 91.03 11.21 90.39 11.73 89.98 11.73 89.9 12.16 89.57 12.94 89 13.11 88.68 13.64 88.23 13.51 87.91 13.81 87.26 13.9 86.65 14.54 86.17 14.67 86 14.81 85.27 14.67 84.83 14.2 84.91 13.24 85.16 12.16 85.43 12.08 85.6 11.69 85.8 11.43 85.68 11.08 85.89 10.91 85.56 10.17 85.51 9.7 85.51 9.13"/><path class="cls-4" d="M103.27,5.6l.33-.15.09-.45.37-.15.19-.15h.4l0-.3.68.21.48.21.08.39-.14.93.42.27.39-.09.37-.15V5.9l.34-.39h.33l.17-.27h.43l.59.39.19.12.17.21,0,.39.2.24.19,0,.06.36.22.24.93.54.48.36.31.33.28.15-.06.78-.36.39L111,10l-.28,0-.17.27-.37,0h-.45l-.39-.27h-.26l-.36-.15L108,9.62l-.31-.06-.34.15-.25-.21-.34.12-.5-.09-.39.42-.18.6-.11.9,0,.51.31.12,0,.9.11.3.11.36,0,.42.25.33.51.19.16,0,.71,0,.34.35.36.31.39.15.11.18h.26l.56.38.65.22.39-.07.48.42h.59l.31.25.65.12h.44l.4.26.33-.06.52.19.33-.22.53.22.93-.07.53-.32.34-.43.65,0,.5-.12.11.27,1.27-.45.68-.57.56-.18.25-.26.37-.1.08-.27-.13-.2.78-.63.14-.31v-.5l.37-.58.2-.21-.12-.39.12-.15.3-.05.45-.31.43,0,.64.28.06.26.28.06.13.63-.08.75-.16.09-.31.81.08.24-.76.42-.11.24-.22.33-.23.57-.37.16-.3.5,0,.43-.15.06-.41,1.05-.45.35-.4.55-.22.09-.09.33-.31-.06-.08.36-.34.33-.25.08-.4.28-.23.39-.5.3-.39.18-.06.3-.62.39-.22,0a2,2,0,0,0-.54.36c-.11.14-.44.72-.44.72l-.43-.18-.3-.27h-.23l-.26-.33-.5-.45-.67-.15-.59-.57h-.4l-.5-.37-.51-.35-.57-.63-.27.06-.48-.25-.2.06-.53-.2-.48-.15-.39-.24-.26-.31-.36.1-.37-.24-.73-.07-.56.07-.36-.25-.8-.45-.36-.17-.62-.3-.53-.21-.4-.82,0-.23-.17-.13-.31-.69-.06-.33-.2-.24,0-.39-.22-.57-.2-.35.11-.25-.28-.75-.14-.24,0-.51.17-.53-.25-.34.12-.24,0-.32,0-.31-.15-.18.11-.3,0-.66-.15-.48.28-.42.2-.63.09-.39-.17-.24.36-.81Z"/><path class="cls-4" d="M56.77,35.24c.22.41.43.81.65,1.2h0c.25-.41.49-.87.72-1.31L59,33.46a5,5,0,0,0,.72-1.68,6.48,6.48,0,0,0,.7,0l.83,0c.06,0,.06.18,0,.22l-.19,0c-.59,0-.67.21-.66.83,0,.93,0,2.54.1,3.8,0,.44,0,.67.46.71l.3,0a.14.14,0,0,1,0,.21l-1.11,0-1.13,0a.16.16,0,0,1,0-.21l.27,0c.47,0,.47-.19.47-.75l0-3.64h0c-.07.09-.43.79-.61,1.14l-.84,1.53c-.42.76-.84,1.59-1,2a.13.13,0,0,1-.1,0,.12.12,0,0,1-.09,0c-.16-.45-.6-1.31-.82-1.74l-.85-1.69c-.19-.4-.39-.85-.6-1.25h0c0,.54-.06,1-.09,1.55s-.07,1.31-.07,2.06.06.78.43.81l.35,0c.07,0,.06.19,0,.21l-1,0-1,0s-.08-.17,0-.21l.21,0c.39,0,.52-.11.58-.72s.1-1,.16-1.92.08-1.47.1-1.95-.06-.68-.63-.75l-.15,0c0-.05,0-.19,0-.22l.74,0a7.7,7.7,0,0,0,.78,0,3,3,0,0,0,.49,1.44Z"/><path class="cls-4" d="M62.88,33.14c0-.93,0-1.08-.58-1.12l-.23,0c-.06,0,0-.19,0-.22l1.18,0,1.16,0c.06,0,.08.18,0,.22l-.23,0c-.56,0-.57.19-.57,1.12v3.11c0,.92,0,1,.57,1.11l.23,0c.06,0,0,.19,0,.21l-1.16,0-1.18,0c-.06,0-.08-.16,0-.21l.23,0c.56-.06.58-.19.58-1.11Z"/><path class="cls-4" d="M71.09,36.09c0,.26,0,1.3,0,1.53,0,.06-.07.1-.17.1s-.38-.46-1.2-1.33l-2.18-2.31c-.25-.26-.89-1-1.09-1.17h0a1.91,1.91,0,0,0,0,.57v1.9a6.37,6.37,0,0,0,.17,1.81c0,.1.24.15.48.17l.29,0a.15.15,0,0,1,0,.21l-1.1,0-1,0a.14.14,0,0,1,0-.21l.25,0c.22,0,.37-.08.41-.18a7.93,7.93,0,0,0,.12-1.8V32.85a.74.74,0,0,0-.2-.62,1,1,0,0,0-.58-.21l-.16,0c-.06-.05-.06-.19,0-.22.4,0,.9,0,1.07,0a2.81,2.81,0,0,0,.43,0,12.43,12.43,0,0,0,1.6,1.93l.91.94c.65.67,1.11,1.17,1.55,1.59h0a1,1,0,0,0,0-.37V34a5.71,5.71,0,0,0-.18-1.81c-.06-.08-.21-.13-.59-.17l-.16,0a.15.15,0,0,1,0-.22l1.11,0c.41,0,.65,0,1,0a.15.15,0,0,1,0,.22l-.13,0c-.3,0-.49.11-.52.18a6.55,6.55,0,0,0-.14,1.8Z"/><path class="cls-4" d="M73.38,33.14c0-.93,0-1.08-.57-1.12l-.23,0c-.06,0,0-.19,0-.22.46,0,.78,0,1.18,0l1.16,0S75,32,75,32l-.23,0c-.56,0-.58.19-.58,1.12v3.11c0,.92,0,1,.58,1.11l.23,0c.06,0,0,.19,0,.21l-1.16,0-1.18,0c-.06,0-.08-.16,0-.21l.23,0c.56-.06.57-.19.57-1.11Z"/><path class="cls-4" d="M77.45,37.72A3,3,0,0,1,76,37.39a3.85,3.85,0,0,1-.26-1.22.17.17,0,0,1,.23,0,1.67,1.67,0,0,0,1.61,1.31,1,1,0,0,0,1.17-1A1.28,1.28,0,0,0,78,35.22l-.89-.54a1.87,1.87,0,0,1-1-1.51c0-.83.7-1.5,1.92-1.5a3.81,3.81,0,0,1,.86.11,1.88,1.88,0,0,0,.34.06,3.64,3.64,0,0,1,.16,1.06.2.2,0,0,1-.23,0,1.21,1.21,0,0,0-1.28-1c-.91,0-1.11.58-1.11,1a1.36,1.36,0,0,0,.8,1.07l.75.44a2,2,0,0,1,1.17,1.68C79.45,37.06,78.67,37.72,77.45,37.72Z"/><path class="cls-4" d="M83.38,36.27c0,.91,0,1,.57,1.09l.3,0s0,.19,0,.21l-1.23,0-1.3,0a.13.13,0,0,1,0-.21l.33,0c.54,0,.58-.18.58-1.09V32.36c0-.27,0-.28-.28-.28h-.51a2.07,2.07,0,0,0-1.16.22,1.68,1.68,0,0,0-.42.6.19.19,0,0,1-.24-.06,7.75,7.75,0,0,0,.35-1.31.37.37,0,0,1,.18,0c.06.28.37.28.8.28h3.8c.51,0,.59,0,.73-.25,0,0,.15,0,.17,0a4.57,4.57,0,0,0-.14,1.32c0,.08-.2.08-.25,0,0-.22-.09-.55-.23-.64a2,2,0,0,0-1.09-.22h-.66c-.29,0-.28,0-.28.3Z"/><path class="cls-4" d="M87.32,33.13c0-.83,0-1-.42-1l-.29,0a.14.14,0,0,1,0-.22c.53,0,1.18-.07,2.1-.07a3.63,3.63,0,0,1,1.56.26,1.3,1.3,0,0,1,.78,1.23,1.62,1.62,0,0,1-1.17,1.45c0,.06,0,.14,0,.22a9.65,9.65,0,0,0,1.89,2.32,1.19,1.19,0,0,0,.64.25.06.06,0,0,1,0,.11,1.37,1.37,0,0,1-.41.06,2.16,2.16,0,0,1-2-1.11c-.24-.32-.62-.93-.91-1.32a.71.71,0,0,0-.67-.28c-.42,0-.44,0-.44.19v1.11c0,.91,0,1,.56,1.09l.2,0a.17.17,0,0,1,0,.21l-1.12,0-1.17,0c-.06,0-.07-.15,0-.21l.24,0c.54-.06.56-.18.56-1.09Zm.77,1.25a.91.91,0,0,0,0,.29,2.26,2.26,0,0,0,.65,0,1.61,1.61,0,0,0,1-.23,1.22,1.22,0,0,0,.47-1.08,1.34,1.34,0,0,0-1.5-1.35c-.59,0-.61,0-.61.28Z"/><path class="cls-4" d="M94.9,36.25c0,.93.06,1.07.56,1.11l.36,0c.06,0,0,.19,0,.21l-1.28,0-1.22,0c-.06,0-.08-.16,0-.21l.29,0c.54,0,.56-.18.56-1.11V35.8a1.61,1.61,0,0,0-.3-1.08l-1.1-2c-.32-.58-.46-.62-.74-.67l-.27,0c0-.07,0-.19,0-.22.3,0,.64,0,1.09,0s.77,0,1,0a.14.14,0,0,1,0,.22l-.12,0c-.33,0-.39.08-.39.16a5.32,5.32,0,0,0,.28.67c.35.65.7,1.34,1.07,1.93.29-.46.6-1,.88-1.47a8.68,8.68,0,0,0,.61-1.15c0-.06-.17-.12-.4-.14l-.16,0c-.07-.07-.06-.19,0-.22l.9,0,.87,0a.14.14,0,0,1,0,.22l-.27,0c-.48.08-.77.63-1.23,1.38l-.6,1a1.92,1.92,0,0,0-.44,1.41Z"/><path class="cls-4" d="M99.91,34.75a3.13,3.13,0,0,1,3.34-3.08,3,3,0,0,1,3.25,3,3.1,3.1,0,0,1-3.25,3A3.07,3.07,0,0,1,99.91,34.75Zm5.65.19c0-1.44-.69-3-2.47-3a2.26,2.26,0,0,0-2.25,2.54c0,1.29.68,3,2.53,3A2.22,2.22,0,0,0,105.56,34.94Z"/><path class="cls-4" d="M108.9,34.27c0,.24,0,.24.3.24h.64a4.22,4.22,0,0,0,.8,0c.1,0,.18-.08.23-.31l.09-.35a.21.21,0,0,1,.24,0c0,.21,0,.56,0,.88s0,.64,0,.85a.18.18,0,0,1-.24,0l-.1-.34a.42.42,0,0,0-.29-.33,4,4,0,0,0-.73,0h-.64c-.28,0-.3,0-.3.23v1.22c0,.91,0,1,.56,1.09l.33,0s0,.19,0,.21l-1.25,0-1.17,0c-.06,0-.08-.16,0-.21l.23,0c.55-.06.57-.18.57-1.09V33.12c0-.92,0-1-.57-1.1l-.15,0a.18.18,0,0,1,0-.22c.4,0,.72,0,1.09,0h1.72a12,12,0,0,0,1.27,0c0,.4,0,.82,0,1.16a.18.18,0,0,1-.22,0c-.08-.39-.19-.71-.66-.83a4.54,4.54,0,0,0-.91-.05h-.57c-.28,0-.28,0-.28.35Z"/><path class="cls-4" d="M115.9,32.41a4.26,4.26,0,0,1,2.54-.74,7.39,7.39,0,0,1,1.66.21.63.63,0,0,0,.26,0c0,.2,0,.76.13,1.29a.2.2,0,0,1-.25,0c-.14-.59-.56-1.28-1.92-1.28a2.49,2.49,0,0,0-2.66,2.67,2.67,2.67,0,0,0,2.78,2.85,2,2,0,0,0,2-1.25.21.21,0,0,1,.25,0,3.31,3.31,0,0,1-.45,1.2l-.32.08a5.54,5.54,0,0,1-1.49.21,4.31,4.31,0,0,1-2.33-.59,2.78,2.78,0,0,1-1.33-2.41A2.84,2.84,0,0,1,115.9,32.41Z"/><path class="cls-4" d="M126.51,34a5.87,5.87,0,0,0-.18-1.81.59.59,0,0,0-.47-.18l-.23,0a.14.14,0,0,1,0-.21c.35,0,.7,0,1.06,0s.65,0,1,0a.16.16,0,0,1,0,.21l-.23,0c-.23,0-.41.09-.46.21A7.34,7.34,0,0,0,126.9,34v1a2.86,2.86,0,0,1-.67,2.08,2.52,2.52,0,0,1-1.79.65,2.79,2.79,0,0,1-1.75-.49,2.38,2.38,0,0,1-.73-2.06V33.11c0-.91,0-1.06-.56-1.1l-.24,0s0-.18,0-.21l1.16,0c.39,0,.7,0,1.16,0,0,0,.07.18,0,.21l-.23,0c-.54,0-.56.19-.56,1.1V35c0,1.41.47,2.34,1.9,2.34s1.88-1,1.88-2.33Z"/><path class="cls-4" d="M129,33.12c0-.92,0-1.06-.61-1.1l-.23,0c-.06,0,0-.19,0-.22l1.21,0,1.15,0c.06,0,.08.18,0,.22l-.22,0c-.56,0-.57.18-.57,1.1v3c0,.55,0,.78.19.94s.28.21,1,.21a2.52,2.52,0,0,0,1.14-.12,1.79,1.79,0,0,0,.62-.87c.05,0,.24,0,.24.06a6.82,6.82,0,0,1-.4,1.22l-2.33,0h-.87l-1.21,0c-.06,0-.08-.16,0-.21l.28,0c.54,0,.56-.18.56-1.09Z"/><path class="cls-4" d="M135.52,36.27c0,.91,0,1,.57,1.09l.3,0c.05,0,0,.19,0,.21l-1.22,0-1.3,0a.13.13,0,0,1,0-.21l.33,0c.54,0,.58-.18.58-1.09V32.36c0-.27,0-.28-.28-.28H134a2.07,2.07,0,0,0-1.16.22,1.68,1.68,0,0,0-.42.6.19.19,0,0,1-.24-.06,7.75,7.75,0,0,0,.35-1.31.37.37,0,0,1,.18,0c.06.28.37.28.8.28h3.8c.5,0,.59,0,.73-.25,0,0,.15,0,.16,0a4.91,4.91,0,0,0-.13,1.32c0,.08-.2.08-.25,0,0-.22-.09-.55-.23-.64a2,2,0,0,0-1.09-.22h-.66c-.29,0-.28,0-.28.3Z"/><path class="cls-4" d="M143.93,34a5.87,5.87,0,0,0-.18-1.81.57.57,0,0,0-.46-.18l-.24,0a.15.15,0,0,1,0-.21c.36,0,.7,0,1.07,0s.65,0,1,0a.14.14,0,0,1,0,.21l-.22,0c-.24,0-.42.09-.47.21a7.34,7.34,0,0,0-.13,1.78v1a2.9,2.9,0,0,1-.66,2.08,2.53,2.53,0,0,1-1.79.65,2.82,2.82,0,0,1-1.76-.49,2.41,2.41,0,0,1-.72-2.06V33.11c0-.91,0-1.06-.57-1.1l-.23,0c-.06,0,0-.18,0-.21l1.16,0,1.15,0c.06,0,.08.18,0,.21l-.22,0c-.55,0-.57.19-.57,1.1V35c0,1.41.47,2.34,1.9,2.34s1.88-1,1.88-2.33Z"/><path class="cls-4" d="M146.45,33.13c0-.83,0-1-.41-1l-.3,0a.14.14,0,0,1,0-.22c.52,0,1.17-.07,2.09-.07a3.63,3.63,0,0,1,1.56.26,1.28,1.28,0,0,1,.78,1.23A1.62,1.62,0,0,1,149,34.72c0,.06,0,.14.05.22a9.66,9.66,0,0,0,1.88,2.32,1.19,1.19,0,0,0,.65.25.06.06,0,0,1,0,.11,1.37,1.37,0,0,1-.41.06,2.16,2.16,0,0,1-1.95-1.11c-.24-.32-.62-.93-.91-1.32a.7.7,0,0,0-.67-.28c-.42,0-.44,0-.44.19v1.11c0,.91,0,1,.56,1.09l.2,0c.05,0,0,.19,0,.21l-1.12,0-1.17,0s-.07-.15,0-.21l.24,0c.54-.06.56-.18.56-1.09Zm.77,1.25a.62.62,0,0,0,0,.29,2.15,2.15,0,0,0,.64,0,1.61,1.61,0,0,0,1-.23,1.22,1.22,0,0,0,.47-1.08,1.34,1.34,0,0,0-1.5-1.35c-.58,0-.61,0-.61.28Z"/><path class="cls-4" d="M152.5,33.12c0-.91,0-1-.57-1.1l-.16,0a.18.18,0,0,1,0-.22c.41,0,.73,0,1.11,0h1.76a12,12,0,0,0,1.27,0,9.06,9.06,0,0,1,.15,1.16.2.2,0,0,1-.24,0c-.14-.41-.22-.71-.71-.83a5.16,5.16,0,0,0-.91-.05h-.67c-.28,0-.28,0-.28.35v1.75c0,.24,0,.24.31.24h.53a4.36,4.36,0,0,0,.81-.05c.11,0,.17-.09.22-.31l.08-.35a.18.18,0,0,1,.24,0c0,.21,0,.55,0,.89s0,.64,0,.83a.17.17,0,0,1-.24,0l-.09-.34a.39.39,0,0,0-.29-.33,3,3,0,0,0-.73-.05h-.53c-.29,0-.31,0-.31.24V36.2c0,.46,0,.75.18.9s.3.21,1.13.21a2.82,2.82,0,0,0,1.2-.14,2.08,2.08,0,0,0,.66-.85.19.19,0,0,1,.24.07,8.18,8.18,0,0,1-.42,1.21l-2.51,0h-.85l-1.27,0c-.06,0-.08-.16,0-.21l.3,0c.54,0,.59-.18.59-1.09Z"/></svg>