<svg id="圖層_1" data-name="圖層 1" xmlns="http://www.w3.org/2000/svg" viewBox="0 0 149.04 40"><defs><style>.cls-1,.cls-2{fill:#eee;}.cls-2,.cls-3,.cls-4,.cls-5,.cls-6,.cls-7{fill-rule:evenodd;}.cls-3{fill:#0062a7;}.cls-4{fill:#060001;}.cls-5{fill:#008041;}.cls-6{fill:#e89300;}.cls-7{fill:#6bb262;}</style></defs><title>footerCYC</title><path class="cls-1" d="M52,30.68l.58.14a.45.45,0,0,0,.25-.07.31.31,0,0,0,.15-.21h.19l.09,1.93h-.21a2.89,2.89,0,0,0-.47-.93,1.86,1.86,0,0,0-1.5-.66,2,2,0,0,0-1.55.71,2.94,2.94,0,0,0-.61,2,2.58,2.58,0,0,0,.64,1.84,2.11,2.11,0,0,0,1.6.68,2.64,2.64,0,0,0,1.3-.32,4.16,4.16,0,0,0,.75-.54l.16.16a3,3,0,0,1-.74.63,3.12,3.12,0,0,1-1.65.46,3.08,3.08,0,0,1-2.32-.88,3,3,0,0,1,.05-4.15,3.05,3.05,0,0,1,2.29-.9A4,4,0,0,1,52,30.68Z"/><path class="cls-1" d="M53.76,36.21a.78.78,0,0,0,.48-.17,1,1,0,0,0,.11-.58v-4a.76.76,0,0,0-.06-.35A.37.37,0,0,0,54,31h-.19v-.15l.48-.13.39-.11.43-.13v2.61a3.14,3.14,0,0,1,.5-.45,1.5,1.5,0,0,1,.84-.25,1,1,0,0,1,1,.57,2,2,0,0,1,.14.79v1.72a1.08,1.08,0,0,0,.1.58.68.68,0,0,0,.45.17v.12H56.18v-.12a.82.82,0,0,0,.49-.17,1,1,0,0,0,.11-.58v-1.7a1.4,1.4,0,0,0-.14-.66.57.57,0,0,0-.54-.25,1.09,1.09,0,0,0-.67.23c-.22.16-.32.26-.32.31v2.07a.55.55,0,0,0,.6.75v.12h-2Z"/><path class="cls-1" d="M58.39,36.21a1.12,1.12,0,0,0,.59-.15.91.91,0,0,0,.13-.6v-2a1.43,1.43,0,0,0,0-.38.27.27,0,0,0-.28-.18h-.1l-.26.07v-.13l.19-.06c.51-.16.87-.28,1.07-.36l.16,0a.13.13,0,0,1,0,.06v3a.56.56,0,0,0,.67.75v.12H58.39Zm.7-5.61a.44.44,0,0,1,.33-.13.44.44,0,0,1,.32.13.4.4,0,0,1,.13.31.42.42,0,0,1-.13.31.47.47,0,0,1-.32.12.48.48,0,0,1-.33-.12.43.43,0,0,1,0-.62Z"/><path class="cls-1" d="M61.7,34.48a9.08,9.08,0,0,1,1.62-.68v-.36a1.38,1.38,0,0,0-.09-.6.64.64,0,0,0-.62-.28.92.92,0,0,0-.43.11A.34.34,0,0,0,62,33a.86.86,0,0,0,0,.17c0,.08,0,.13,0,.15a.35.35,0,0,1-.17.33.42.42,0,0,1-.52-.07.4.4,0,0,1-.11-.27.89.89,0,0,1,.38-.62,1.74,1.74,0,0,1,1.12-.32,1.24,1.24,0,0,1,1.17.53,1.71,1.71,0,0,1,.16.84v1.69a.85.85,0,0,0,0,.33.22.22,0,0,0,.24.17.38.38,0,0,0,.16,0,1.37,1.37,0,0,0,.23-.15V36a1.27,1.27,0,0,1-.3.27.93.93,0,0,1-.51.16.5.5,0,0,1-.43-.18.83.83,0,0,1-.15-.44,4.28,4.28,0,0,1-.57.41,1.59,1.59,0,0,1-.77.22,1,1,0,0,1-.66-.25.85.85,0,0,1-.28-.64A1.19,1.19,0,0,1,61.7,34.48ZM63.32,34a4.22,4.22,0,0,0-.84.36c-.43.25-.64.53-.64.85a.63.63,0,0,0,.27.56.64.64,0,0,0,.38.12,1.13,1.13,0,0,0,.56-.16.44.44,0,0,0,.27-.39Z"/><path class="cls-1" d="M64.86,32.47h1.87v.12a1.22,1.22,0,0,0-.33,0c-.13,0-.2.11-.2.22a.5.5,0,0,0,0,.12l.08.19,1,2.1.85-2.12s0-.07,0-.15a1,1,0,0,0,0-.17.18.18,0,0,0-.08-.16A.35.35,0,0,0,68,32.6h-.13v-.12H69v.12a.43.43,0,0,0-.27.12,1,1,0,0,0-.16.28l-1.39,3.5a5.27,5.27,0,0,1-.69,1.31,1,1,0,0,1-.84.41,1,1,0,0,1-.47-.12.38.38,0,0,1-.21-.37.32.32,0,0,1,.13-.27.43.43,0,0,1,.32-.11,1.22,1.22,0,0,1,.34.08,1.3,1.3,0,0,0,.32.08q.24,0,.51-.57a2.47,2.47,0,0,0,.28-.76.51.51,0,0,0,0-.09l0-.09-1.39-2.86a1.37,1.37,0,0,0-.26-.41.62.62,0,0,0-.34-.13Z"/><path class="cls-1" d="M69.44,36.21a1.13,1.13,0,0,0,.6-.15c.08-.07.12-.28.12-.6v-2a1.1,1.1,0,0,0,0-.38.26.26,0,0,0-.28-.18h-.09l-.27.07v-.13l.19-.06q.78-.24,1.08-.36l.16,0a.13.13,0,0,1,0,.06v3a1,1,0,0,0,.12.6.92.92,0,0,0,.55.15v.12H69.44Zm.7-5.61a.48.48,0,0,1,.66,0,.4.4,0,0,1,.13.31.42.42,0,0,1-.13.31.51.51,0,0,1-.66,0,.43.43,0,0,1,0-.62Z"/><path class="cls-1" d="M78.4,30.68l.58.14a.44.44,0,0,0,.24-.07.32.32,0,0,0,.16-.21h.19l.08,1.93h-.2a2.71,2.71,0,0,0-.48-.93,1.85,1.85,0,0,0-1.49-.66,2,2,0,0,0-1.56.71,3,3,0,0,0-.6,2A2.62,2.62,0,0,0,76,35.4a2.13,2.13,0,0,0,1.61.68,2.64,2.64,0,0,0,1.3-.32,4.13,4.13,0,0,0,.74-.54l.17.16A2.92,2.92,0,0,1,79,36a3.35,3.35,0,0,1-4-.42,2.83,2.83,0,0,1-.79-2.05,2.9,2.9,0,0,1,.83-2.1,3.07,3.07,0,0,1,2.29-.9A4,4,0,0,1,78.4,30.68Z"/><path class="cls-1" d="M80.87,33a1.89,1.89,0,0,1,1.44-.58,2,2,0,0,1,1.45.55,1.91,1.91,0,0,1,.57,1.45,2,2,0,0,1-.56,1.45,1.85,1.85,0,0,1-1.44.62,2,2,0,0,1-1.43-.59,2,2,0,0,1-.59-1.49A2,2,0,0,1,80.87,33Zm.7-.11a1.7,1.7,0,0,0-.44,1.32,2.86,2.86,0,0,0,.36,1.4,1.08,1.08,0,0,0,1,.64.84.84,0,0,0,.76-.43,2.12,2.12,0,0,0,.27-1.13,2.84,2.84,0,0,0-.34-1.37,1.08,1.08,0,0,0-1-.65A1,1,0,0,0,81.57,32.86Z"/><path class="cls-1" d="M86,32.44v2.69a1,1,0,0,0,.08.46.62.62,0,0,0,.6.32,1.11,1.11,0,0,0,.59-.19,1.71,1.71,0,0,0,.33-.29v-2.3c0-.22,0-.36-.13-.43a1.24,1.24,0,0,0-.53-.12v-.14h1.42v3a.55.55,0,0,0,.11.39.72.72,0,0,0,.46.1V36l-.36.1-.38.11-.51.18s0,0,0,0,0,0,0,0v-.68a2.76,2.76,0,0,1-.55.51,1.37,1.37,0,0,1-.79.25,1.21,1.21,0,0,1-.73-.26,1,1,0,0,1-.34-.86V33.11a.54.54,0,0,0-.15-.45.93.93,0,0,0-.42-.1v-.12Z"/><path class="cls-1" d="M89.29,36.21a.73.73,0,0,0,.44-.15c.09-.07.13-.24.13-.49V33.43a1,1,0,0,0,0-.37.35.35,0,0,0-.35-.16h-.08l-.1,0v-.15l.85-.26.42-.13,0,0v.68a4.82,4.82,0,0,1,.64-.5,1.34,1.34,0,0,1,.71-.2,1,1,0,0,1,.55.16A1.26,1.26,0,0,1,93,33.68v2a.61.61,0,0,0,.12.43.58.58,0,0,0,.43.14v.12H91.63v-.12a.68.68,0,0,0,.45-.17.78.78,0,0,0,.13-.55v-1.8a1.14,1.14,0,0,0-.14-.59.55.55,0,0,0-.52-.24A1,1,0,0,0,91,33a2.66,2.66,0,0,0-.38.32V35.7a.45.45,0,0,0,.14.4.73.73,0,0,0,.44.11v.12H89.29Z"/><path class="cls-1" d="M96,32.46v.3h-.9v2.42a1.48,1.48,0,0,0,.06.48.39.39,0,0,0,.41.29.51.51,0,0,0,.28-.07,1.58,1.58,0,0,0,.26-.23l.12.1-.1.12a1.32,1.32,0,0,1-.48.42,1.18,1.18,0,0,1-.5.12.71.71,0,0,1-.71-.44,1.91,1.91,0,0,1-.1-.66V32.76h-.48l0,0s0,0,0,0,0-.05,0-.06a.72.72,0,0,1,.12-.11,3.24,3.24,0,0,0,.44-.39l.64-.78h.06a.1.1,0,0,1,0,.07v1Z"/><path class="cls-1" d="M96.29,32.47h1.87v.12a1.22,1.22,0,0,0-.33,0c-.13,0-.2.11-.2.22a.5.5,0,0,0,0,.12l.08.19,1,2.1.85-2.12s0-.07,0-.15a1,1,0,0,0,0-.17.18.18,0,0,0-.08-.16.35.35,0,0,0-.21-.06h-.13v-.12h1.21v.12a.43.43,0,0,0-.27.12A1,1,0,0,0,100,33l-1.39,3.5A5.27,5.27,0,0,1,98,37.8a1,1,0,0,1-.84.41,1,1,0,0,1-.47-.12.38.38,0,0,1-.21-.37.32.32,0,0,1,.13-.27.43.43,0,0,1,.32-.11,1.22,1.22,0,0,1,.34.08,1.3,1.3,0,0,0,.32.08q.24,0,.51-.57a2.47,2.47,0,0,0,.28-.76.51.51,0,0,0,0-.09l0-.09-1.39-2.86a1.37,1.37,0,0,0-.26-.41.62.62,0,0,0-.34-.13Z"/><path class="cls-1" d="M107.34,30.68a4.65,4.65,0,0,0,.59.14.46.46,0,0,0,.27-.07.55.55,0,0,0,.14-.21h.2l.07,1.81h-.21a3.19,3.19,0,0,0-.57-.93,1.88,1.88,0,0,0-1.39-.54,2.15,2.15,0,0,0-1.53.63,2.73,2.73,0,0,0-.67,2.07,2.51,2.51,0,0,0,.66,1.85,2.18,2.18,0,0,0,1.63.67l.38,0a2.59,2.59,0,0,0,.42-.09,1.16,1.16,0,0,0,.4-.18.25.25,0,0,0,.09-.21V34.22c0-.33,0-.54-.15-.62a1.29,1.29,0,0,0-.65-.15v-.16h2.31v.16a.92.92,0,0,0-.45.1.68.68,0,0,0-.19.56V35.8c0,.1-.26.23-.78.4a4.81,4.81,0,0,1-1.5.25,3.42,3.42,0,0,1-2.23-.73,2.66,2.66,0,0,1-1-2.18,2.9,2.9,0,0,1,.8-2.05,3.06,3.06,0,0,1,2.34-.95A4,4,0,0,1,107.34,30.68Z"/><path class="cls-1" d="M110.28,33a1.89,1.89,0,0,1,1.44-.58,2,2,0,0,1,1.45.55,1.91,1.91,0,0,1,.57,1.45,2.08,2.08,0,0,1-.55,1.45,1.85,1.85,0,0,1-1.44.62,2,2,0,0,1-1.44-.59,2,2,0,0,1-.59-1.49A2,2,0,0,1,110.28,33Zm.71-.11a1.67,1.67,0,0,0-.44,1.32,2.85,2.85,0,0,0,.35,1.4,1.09,1.09,0,0,0,1,.64.83.83,0,0,0,.76-.43,2.12,2.12,0,0,0,.27-1.13,2.84,2.84,0,0,0-.34-1.37,1.07,1.07,0,0,0-1-.65A.93.93,0,0,0,111,32.86Z"/><path class="cls-1" d="M116,32.43v.13a1.19,1.19,0,0,0-.32.07.19.19,0,0,0-.1.18.51.51,0,0,0,0,.13s0,.1.07.18l.93,2.11.79-1.86.11-.29a1,1,0,0,0,.05-.23.25.25,0,0,0-.17-.24,1.2,1.2,0,0,0-.26,0v-.13h1.25v.13a.41.41,0,0,0-.31.14,3,3,0,0,0-.27.55l-1.28,3a.48.48,0,0,1-.06.11.07.07,0,0,1-.06,0,.1.1,0,0,1-.08,0l-.06-.12-1.35-3.07a1.28,1.28,0,0,0-.35-.51.86.86,0,0,0-.33-.1v-.13Z"/><path class="cls-1" d="M121.71,32.8a1.46,1.46,0,0,1,.47,1.16h-2.81a2.18,2.18,0,0,0,.47,1.42,1.3,1.3,0,0,0,1,.44,1.24,1.24,0,0,0,.78-.23,2.21,2.21,0,0,0,.59-.65l.16.05a2.52,2.52,0,0,1-.68,1,1.75,1.75,0,0,1-1.22.45,1.51,1.51,0,0,1-1.28-.6,2.26,2.26,0,0,1,.07-2.82,1.72,1.72,0,0,1,1.37-.62A1.62,1.62,0,0,1,121.71,32.8Zm-2.12.32a1.66,1.66,0,0,0-.2.57h1.86a1.62,1.62,0,0,0-.16-.62.78.78,0,0,0-.73-.37A.87.87,0,0,0,119.59,33.12Z"/><path class="cls-1" d="M122.6,36.19a1.22,1.22,0,0,0,.54-.13.55.55,0,0,0,.13-.44v-1.9a1.45,1.45,0,0,0-.08-.59.29.29,0,0,0-.3-.18h-.11l-.15,0v-.14l.51-.17.37-.13.45-.18a.05.05,0,0,1,0,0v.78a3.47,3.47,0,0,1,.55-.58.88.88,0,0,1,.55-.21.57.57,0,0,1,.37.12.45.45,0,0,1,.14.33.39.39,0,0,1-.11.28.34.34,0,0,1-.27.12.55.55,0,0,1-.34-.14.46.46,0,0,0-.27-.15.61.61,0,0,0-.38.24.68.68,0,0,0-.22.48v1.9a.63.63,0,0,0,.17.5.94.94,0,0,0,.59.13v.14H122.6Z"/><path class="cls-1" d="M125.74,36.21a.73.73,0,0,0,.44-.15.68.68,0,0,0,.13-.49V33.43a.83.83,0,0,0-.06-.37c0-.11-.17-.16-.34-.16h-.08l-.11,0v-.15l.86-.26.42-.13s0,0,0,0a.11.11,0,0,1,0,.06v.62a4.88,4.88,0,0,1,.63-.5,1.35,1.35,0,0,1,.72-.2,1,1,0,0,1,.55.16,1.28,1.28,0,0,1,.47,1.14v2a.61.61,0,0,0,.13.43.57.57,0,0,0,.43.14v.12h-1.89v-.12a.72.72,0,0,0,.45-.17.84.84,0,0,0,.13-.55v-1.8a1.14,1.14,0,0,0-.14-.59.56.56,0,0,0-.52-.24,1,1,0,0,0-.53.17,2.63,2.63,0,0,0-.39.32V35.7a.45.45,0,0,0,.15.4.73.73,0,0,0,.44.11v.12h-1.93Z"/><path class="cls-1" d="M130.25,36.22a1,1,0,0,0,.46-.11c.12-.08.17-.24.17-.48V33.46a.64.64,0,0,0-.08-.41.35.35,0,0,0-.29-.1h-.13l-.11,0v-.15l.31-.1.57-.2.42-.14a0,0,0,0,1,0,0,.17.17,0,0,1,0,.08v.57a3.19,3.19,0,0,1,.75-.52,1.52,1.52,0,0,1,.66-.15,1,1,0,0,1,.72.29,1.4,1.4,0,0,1,.24.44,3,3,0,0,1,.57-.47,1.62,1.62,0,0,1,.85-.26.92.92,0,0,1,1,.55,2.64,2.64,0,0,1,.14,1v1.75a.49.49,0,0,0,.14.4,1,1,0,0,0,.5.14v.11h-2v-.12a.93.93,0,0,0,.5-.14.61.61,0,0,0,.13-.47V33.8a1.5,1.5,0,0,0-.1-.61.65.65,0,0,0-.64-.34,1.06,1.06,0,0,0-.57.18,2.5,2.5,0,0,0-.4.34v2.15a.82.82,0,0,0,.13.51c.08.12.26.18.53.19v.11h-2v-.11a.81.81,0,0,0,.53-.19,1.3,1.3,0,0,0,.12-.71V34.15a2.94,2.94,0,0,0-.09-.89.6.6,0,0,0-.62-.41,1.17,1.17,0,0,0-.53.14,1.63,1.63,0,0,0-.46.37v2.29a.66.66,0,0,0,.12.45.75.75,0,0,0,.51.12v.11h-2Z"/><path class="cls-1" d="M140.31,32.8a1.46,1.46,0,0,1,.47,1.16H138a2.18,2.18,0,0,0,.46,1.42,1.31,1.31,0,0,0,1,.44,1.24,1.24,0,0,0,.78-.23,2.35,2.35,0,0,0,.59-.65L141,35a2.33,2.33,0,0,1-.68,1,1.73,1.73,0,0,1-1.21.45,1.53,1.53,0,0,1-1.29-.6,2.19,2.19,0,0,1-.45-1.37,2.14,2.14,0,0,1,.53-1.45,1.71,1.71,0,0,1,1.37-.62A1.62,1.62,0,0,1,140.31,32.8Zm-2.12.32a1.66,1.66,0,0,0-.2.57h1.86a1.6,1.6,0,0,0-.17-.62.75.75,0,0,0-.72-.37A.86.86,0,0,0,138.19,33.12Z"/><path class="cls-1" d="M141.32,36.21a.73.73,0,0,0,.44-.15c.09-.07.13-.24.13-.49V33.43a1,1,0,0,0,0-.37.35.35,0,0,0-.35-.16h-.08l-.1,0v-.15l.85-.26.42-.13,0,0v.68a4.82,4.82,0,0,1,.64-.5,1.34,1.34,0,0,1,.71-.2,1,1,0,0,1,.55.16,1.26,1.26,0,0,1,.48,1.14v2a.61.61,0,0,0,.12.43.58.58,0,0,0,.43.14v.12h-1.89v-.12a.68.68,0,0,0,.45-.17.78.78,0,0,0,.13-.55v-1.8a1.14,1.14,0,0,0-.14-.59.55.55,0,0,0-.52-.24,1,1,0,0,0-.53.17,3.37,3.37,0,0,0-.38.32V35.7a.45.45,0,0,0,.14.4.74.74,0,0,0,.45.11v.12h-1.94Z"/><path class="cls-1" d="M148,32.46v.3h-.9v2.42a1.48,1.48,0,0,0,.06.48.4.4,0,0,0,.41.29.51.51,0,0,0,.28-.07,1.27,1.27,0,0,0,.27-.23l.11.1-.1.12a1.32,1.32,0,0,1-.48.42,1.18,1.18,0,0,1-.5.12.71.71,0,0,1-.71-.44,1.91,1.91,0,0,1-.1-.66V32.76h-.48l0,0s0,0,0,0,0-.05,0-.06a.72.72,0,0,1,.12-.11,3.24,3.24,0,0,0,.44-.39l.64-.78h.07a.35.35,0,0,1,0,.07v1Z"/><path class="cls-2" d="M105.31,14.2a7.41,7.41,0,0,1-1.72.38l0-.06c.09-.71.82-1,1.19-1.48s.46-.83.78-1.18a1,1,0,0,0-.22-1.21c-.27-.16-.74,0-1.08-.08-.12-.29.24-.71.35-1,.22-.52.4-1,.65-1.48s1.16-1.29.62-2.15a1.4,1.4,0,0,0-.59-.41c-1.48-.73-2.09,1.15-3,.75l0-.16,2.07-3.25c.32-.82-.43-1.34-1.21-1.32-.72.29-1.62-.07-2.23.32a13.27,13.27,0,0,0-1.13,3.88l.08,0a2.43,2.43,0,0,0,.86-1.48l.14-.11c.5.31.15,1.81,0,2.24a9.24,9.24,0,0,1-1,1.85c-.31.44-.88.79-1,1.35a3,3,0,0,0,.7,2.07c.68,0,.79-.47,1.08-.89l1.07-.94c.15-.11.67-.56.84-.35.33.42-.57,1.48-.76,1.64-.34.3-.56.73-.91,1-.75.62-1.93.84-2.34,1.8a7.48,7.48,0,0,0,.16,1.83l.32.32c.86.14,1.18-.77,2-.78l.11.17c-.08.71-1.2,1.69-1.8,1.9l-1,.3c-.2.11-.18.37-.3.57s-.58,1.05-.32,1.58a1.41,1.41,0,0,0,1.67.49,2.43,2.43,0,0,0,.43-.52l.54-.43a6.53,6.53,0,0,1,2-2l.19,0c.19.26.25.87,0,1.08-.14.09-.28.07-.38.19-.13.42.62.58.75.88s-.12.75,0,1.16c.13.84.68,3.29.16,4.09s-3.26,0-3.55-.65v-.83c-.06-.25-.15-.7-.24-1-.65-.38-1.64.55-1.8,1a3.68,3.68,0,0,0,0,2.13,2.49,2.49,0,0,0,1.37.46c.24-.07.34-.21.7-.22.51.58,2.83,1.31,3.74,1.53a1.14,1.14,0,0,0,1.4-.67,5.23,5.23,0,0,0-.27-2.58,9.45,9.45,0,0,1-.11-3c.77-.48,1.81,1.78,2.24,2.18a.83.83,0,0,0,1.21-.29c.42-1.26-1.43-2.23-2.32-2.42-.62-.14-1.17.11-1.34-.49a.66.66,0,0,1,0-.48c.25-.49,1.23-.57,1.75-.81a4,4,0,0,0,2.53-2.53c.09-.46-.17-.69-.3-.94A2.36,2.36,0,0,0,105.31,14.2Zm-1.5,3.85c-.3-.15-.21-.53-.27-.92-.2-1.29,1.07-1.28,1.8-1.72a1,1,0,0,1,.43.08C106.27,16.31,104.38,18.18,103.81,18.05ZM82.4,23c-.15-.61-.35-1.25-.46-2l-.21-.11c-.6.63.45,2.27-.54,2.77l-.16,0c-.16-.1-.16-.32-.27-.46a23.89,23.89,0,0,1-2-2.93,6.59,6.59,0,0,1,.89-2l.61-.27c.23-.94-.76-1.14-1.42-.73l-.65.65a1,1,0,0,1-.53.21c-1.54-1.48.25-1.3.32-2.28-.48-.27-.89.23-1.43.11l-.45-.27c-.16-.1-.27-.12-.35-.3-.16-.43.41-.73.64-.89.51-.35,2.35-.94,2.15-1.74s-1.09-.39-1.69-.33a.8.8,0,0,1,0-.78c.69-.36,1.27-.63.94-1.75-.2-.13-.54-.18-.7-.37-.16-1.06,1.66-2,1.38-3-.23-.12-.59-.11-.73-.32.48-.91,1.68-1.3,2-2.29s0-1.61-1-1.59c-.89.42-1.45-.16-1.91.81.15.08.44,0,.69,0l.14.14c.11.64-1,1.45-1.35,1.83A17.81,17.81,0,0,1,74,7.53c-.25.18-.52.25-.78.43l-.14.3-.37.16-.14.24v0c-.4.28-.58.09-.86.62a1.39,1.39,0,0,0,.14.56c.27.16.46,0,.72,0s.68.2,1.08.07a15.87,15.87,0,0,1,2-.77c.31.21-.13,1.07-.35,1.2l-1,.38a15.69,15.69,0,0,1-2.07.86c-.47.14-1.12.46-1,1.05l.16.08c.38-.12.66-.31,1-.4l.73-.08a3,3,0,0,1,1.05-.3,1.09,1.09,0,0,1,0,.57,1.91,1.91,0,0,0-.8.59v.13a1.21,1.21,0,0,0,.16.16l.35-.1c.2-.39.15-.56.59-.73l.22.06c.36.63-.32.57-.65.83l-.22.43a1.84,1.84,0,0,1-1,.4c-.23-.1-.28-.31-.52-.37a.71.71,0,0,0-.48.91c.91.57,1.75-.18,2.72-.19.09.48-.81.91-1,1.21a12.12,12.12,0,0,1-2.1,1.88l-1,1c-.55.37-1.48.67-1.16,1.53.71.47,1.25-.21,1.92-.14,0,.33-.67.69-.92.86-.58.41-2.51,1.84-2.53,2.64v0l.16.08c.37-.19.51-.5.81-.73l1.29-.83c.3-.22.54-.53.86-.76.17-.11.89-.63,1.11-.29a4.63,4.63,0,0,1-.17,1.45c-.18.92-.49,2.19-1.31,2.45a7.88,7.88,0,0,1-1.75,0,.34.34,0,0,0,0,.27c1.47.87,3.94.43,4.65-.84a4.58,4.58,0,0,0,.46-1.64l0-3c.15-.55.69-.8,1-1.21s.72-1,1.27-.86a2.76,2.76,0,0,1,.64,1.72,1.56,1.56,0,0,1-.78.59l-.51,0c-.45.22-.65,1.69-.08,1.93s1.76-.17,2.34,0c.35.17.45.55.64.89.5.85,1.41,2.87,2.48,3a2.85,2.85,0,0,0,1-.27c.41-.12.82-.07,1-.41.26-.49-.13-1-.24-1.26S82.45,23.3,82.4,23ZM72.77,9.09c0-.11-.11-.23-.16-.35v0a23.84,23.84,0,0,0,2.2-1.05,20.71,20.71,0,0,0,2-.89h0C76.71,7.67,73.91,9.37,72.77,9.09ZM71.43,20c-.07-.06-.05,0-.08-.11a.76.76,0,0,1,.08-.11h.13l0,.13Zm4-3.5a3.79,3.79,0,0,1-1.31.35l0,0c0-.56.44-.78.78-1.05a.58.58,0,0,1,.59.68ZM61.5,15.38c-.08.22,0,.45.08.65l-.26.4c-.09.06-1.82.49-1.86.49l0-.06c.16-.58,1.16-1,1.27-1.53.16-.9-1.11-1-1.21-1.34-.15-.53,1.84-.88,2.31-1,.46-.67-.19-.59-.3-1.07s.6-.77.38-1.51a2.64,2.64,0,0,0-2-.7l-.78.51c-.17,0-.2-.05-.27-.16,0-1.5,2-1.12,2.48-1.91v-.3C61,6.94,60,7.72,59.46,7.56c-.36-.24.1-1,.24-1.21.38-.52,3.1-.88,2.5-2-.09-.19-.18-.17-.37-.25l-.41-.21c-.52-.13-1,.4-1.69.29-.09-.15-.11-.39-.22-.56a2.65,2.65,0,0,0-2.07-.75c-.13.08-.21.1-.29.24,0,.37.34.33.51.56a2.32,2.32,0,0,1,.4,1.16.68.68,0,0,1,0,.4,20,20,0,0,1-2.45,1.24c-.31.1-1,0-.86.56.06.21.25.2.45.27a3.26,3.26,0,0,0,2.07,0c.24-.1.32-.28.65-.3a1.14,1.14,0,0,1,.11.67c-.18,1.22-1.24,1.06-2.18,1.48l-.06.11c0,.88,1.11.62,1.73.48,1,.77-.88,1.55-1.37,1.7-.3.09-.9-.3-1.3-.33-.34.49.13.76.38,1.11.38.53.63,1.05,1,1.64.19.31.47.45.62.83-.33.86-2,1-2.7,1.59a1.32,1.32,0,0,1-.5.35c-.43.12-1.22-.21-1.38,0-.41.56.88,1.62.89,2.23-.49.52-1.61.6-2.37.83-1.65.52-3.38,1.13-5.13,1.62a5.4,5.4,0,0,1-.7,0,1.59,1.59,0,0,0-1.37.84c-.11.16-.31.34-.19.64.26.67,1.46,1.91,2.66,1.4l.89-.64c1-.64,2.1-1.24,3.09-1.91l1-.49c1-.52,1.91-1,3-1.45l.51-.38c.35-.13.73-.11,1-.24l.11,0c.24,1.1-1.08.65-1.46,1.13-.05.44.15,1.05-.11,1.45s-1.85.59-1.28,1.45c.15.17.32.34.48.51a10.59,10.59,0,0,1-1.48,2.56l-.54.37a1.26,1.26,0,0,0,.08,1.11c1.47.36,2.2-1.6,2.74-2.42l.52-.62c.21-.46.51-1.75,1.26-1.62,1.05.19.52,1.49.32,2.18,0,.25-.07.51-.1.76-.37.72-1.12.45-2.07.61l-.09.11c.05.41,1.45,1.2,1.86,1.29a1.78,1.78,0,0,0,1.26-.27c.51-.29.71-1.43.95-2,.11-.27,0-.55.05-.86.23-1.23.63-2.56-.51-3.28-.43-.27-1.44,0-1.62-.54s.32-.63.46-.78l1.59-2a7,7,0,0,1,2.42-.64c.89-.23,1.81-.46,2.8-.62s1.93.13,2.23-.56C66.13,14.83,61.94,14.56,61.5,15.38Zm-4.19,1.29c-.47.77-.92,1.62-2.15,1.62l-.06-.08c-.13-.36.26-.67.41-.86l1-1.21.86-.51C57.9,15.68,57.42,16.5,57.31,16.67ZM58.87,13l-.57.11c-.25.14-.33.53-.43.84h0c-.25-.52-1.14-1.33-1-2,.87-.5.91.64,1.53.32.3-.15.44-.68.65-.94s.5-.16.7-.27l.16.06c.35.24,0,.81-.08,1.07A1.34,1.34,0,0,1,58.87,13Zm38.91,3.88c.2-.53-.37-.67-.51-.94a4,4,0,0,1,0-1.38l0,0c-.37.29-.33.8-.56,1.23h-.14c-.51-.51-.22-2.29-.11-3V11.14a24.77,24.77,0,0,1,.19-4.44c.08-.39.47-1.59.22-2A9.27,9.27,0,0,0,94,3.82c-1.65.79-3.8,1.51-4.49,3.23a13.45,13.45,0,0,0-.27,2.58c-.18,1.12-.27,2.43-.45,3.47v1.8c-.12.74-.13,1.6-.24,2.42a3.44,3.44,0,0,0,.24,1.61c.1.25.37.38.29.73s-.73.5-1.05.73a13.32,13.32,0,0,1-3,1.82c-.57.22-1.33-.08-1.77.19-.33,1.26,1.49,1,2.29.73.32-.1.57-.31.86-.4.61-.21,1.11-.22,1.74-.46s1.26-.57,1.91-.86A12.69,12.69,0,0,1,92,20.49l.16.14a3.56,3.56,0,0,1-.35,2.31l-1.58.83a8.9,8.9,0,0,0-1.91,1.64l-.6.57c-.55.87,0,1.15.54,1.51a1.05,1.05,0,0,0,.86.21c.48-.12.51-.57.84-.83l.24,0c.78.78.77,1.56,2.23,1.75a1.23,1.23,0,0,0,.57-.51,15.4,15.4,0,0,0,.24-2.67c.16-1,.19-2.27.4-3.14.73-.41,1.12,1.18,2.23.56s.76-2.41,1-3.79l0-1C96.93,17.44,97.57,17.33,97.78,16.84Zm-6.45,8.9a1.14,1.14,0,0,1-1.13-.49l0-.16a16.76,16.76,0,0,1,1.4-1.26h.13l.06,0A1.7,1.7,0,0,1,91.33,25.74Zm2.23-8.39c-.3.18-.76.56-1.26.43l-.14-.11a3.68,3.68,0,0,1,.11-1.08c.08-.53-.23-1.08-.08-1.48.25-.67,1.76-.6,2.34-1h.19l.13.11a6.22,6.22,0,0,1,.05,1.18C95,16.8,94.44,16.81,93.56,17.35Zm1.13-5.46c-.33,0-.83-.16-.92-.43a5.73,5.73,0,0,1,1.11-1.27H95A1.48,1.48,0,0,1,94.69,11.89Zm.4-2.21a.6.6,0,0,1-.08.08l-.83-.61L93.26,9c-.22-.12-.44-.24-.67-.35-.4-.14-.84,0-.86.4s1.17.6,1.37,1a.85.85,0,0,1-.13.67l-.54.78c0,.22,0,.43.08.65.06.41-.25,1.37-.65,1.29s-.36-1-.5-1.4c-.45-1.22-1.27-5.43-.17-6.27l2.34-.64c.43-.09.7,0,1-.19a1,1,0,0,1,.4.08,12.76,12.76,0,0,1,.16,3.36C95.09,8.9,95.36,9.32,95.09,9.68Zm39.24-1L136,8.28a3.78,3.78,0,0,1,1.51-.48l.13.27a.82.82,0,0,0-.08.65l.14.16c.68.14,1-.37,1.45-.65l.94-.51c.7-.51,1.5-1.56,2.82-1.18.08.16,0,.23,0,.4l.13.14a5.6,5.6,0,0,0,1.72-.25h.76a.6.6,0,0,0,.42-.51c.07-.25-.17-.37-.29-.51-1.18-1.35-2.21.38-3.36.08-.11-.23,0-.53-.19-.78a4.51,4.51,0,0,0-2.48-1c-.54.23-1.78.17-2.06.59.3.52,1.2.64,1.47,1.16s-.64,1.17-1,1.31a19.47,19.47,0,0,1-3.39.78,10.21,10.21,0,0,0-1.58.19C132.92,8.76,133.73,8.77,134.33,8.66Zm-5.25,10.7c.95-.26.53-1.42.11-1.93-.24-.29-.71-.35-1.07-.51-1.19-.54-2.66-1.07-3.9-1.54-.77-.28-2-.36-2.43-.94-.07-.45.22-.79.36-1.13.37-.91.58-1.77.94-2.77a1.88,1.88,0,0,0,.27-1.23,3.38,3.38,0,0,0-1-1.54c-.16-.12-.41-.18-.48-.4-.26-.88,2-3.28-.32-3.23-1.27.51-1.5.6-2,1.83-.15.32-.49.5-.3.92.64.08.74-1.31,1.53-1.43h0c.44,1-1.38,2.08-.73,3.71.5.28,1.24-.3,1.45.11s-.09,1-.16,1.37c-.23,1.18-.55,3.29-1.34,3.82-.6-.06-2.93-.91-3.31-.11v.19c.92.16,2.54.16,2.9.81,0,.47-.47.49-.7.78-.47.62-.8,1.29-1.64,1.56a2.07,2.07,0,0,1-1.34-.11c-.13-.08-.23-.34-.43-.35s-.19.34-.13.51a1.89,1.89,0,0,0,2.41,1.08A11.09,11.09,0,0,0,120.42,17c.33-.24.39-.74.76-.94.49,0,.61.26.91.4a22.24,22.24,0,0,1,2.34,1.19c.18.11.36.07.59.16a4.25,4.25,0,0,1,.94.56c0,.44-.25.49-.56.62a1,1,0,0,0-.05.16.54.54,0,0,0,.05.11,11.9,11.9,0,0,0,2.07,0A5.59,5.59,0,0,0,129.08,19.36ZM71.19,7a4.94,4.94,0,0,0,1.93.72c.77-.69.37-1.88.19-2.9l-.24-.11c-1.14.62-1.86.1-2.45,1.43-.1.23-.26.27-.27.64l.11.14Zm45.58,5c.24-.33,1.41-2.28,1.21-2.77l0-.08h-.08c-.19.31-.45,1.11-1,1.05a2.31,2.31,0,0,0-.78-.08c-.3.06-.6.3-.94.22a7.14,7.14,0,0,1,.35-2.13c.19-.45.79-1.1.62-1.75-.32-1.2-2.27-.22-3.18-.56-.45-.17-.33-.83-.72-1l-.19,0c-.87.78-.6,1.35-.19,2.31.11.26.15.59.35.75.43.34,1.06.38,1.51.68a11.44,11.44,0,0,1-.27,3.22l-.06.89c-.12.28-.25.56-.37.83-.15.55.19,1.21,0,1.64a1.66,1.66,0,0,1-1.26.73l0,0c-.33-.56.53-1,.45-1.69a7,7,0,0,0-1.07-2.26l-.11,0c-.76.36-.38,1.94-.54,2.88-.1.68-.2,1.36-.29,2l-.62,1.34c-.06.25.11.38.16.52.28.72.4,1.32,1.23,1.47.48.09,1.67-.88,1.86-1.15s.27-.58.4-.86l.68-1a49,49,0,0,1,2.6-4.17C116.62,12.68,116.58,12.2,116.77,11.94Zm-1.24.41a.58.58,0,0,1-.35-.3c0-.47.29-.64.54-.86H116A.68.68,0,0,1,115.53,12.35Zm33.4-.54c-.22-.53-1.38-.78-2.1-.57-.39.12-.63.51-1.1.41-.27-.48.15-.92,0-1.51a2.6,2.6,0,0,0-2.24-1.78c-.28.15-.58.18-.59.6l.57.48c.22.34.63,2.61.32,3.07s-2.34,1-3.12,1.26c-.41.12-.95.76-1.53.54a.7.7,0,0,1-.46-.89c.3-.75,1.31-1.15,1.51-2,.25-1-1.65-1.91-2.61-1.64-.31.16.17,1.09-.08,1.69-.59,1.39-1.81,2.3-2.45,3.63,0,1.41,1.78,0,2.26.14l.16.1c.39,1.79-1.86,5,.06,5.92a.87.87,0,0,0,.72-.27c.15-.21.09-.5.16-.81.24-1,.33-2.41.59-3.44.14-.56-.06-1.13.43-1.34a1,1,0,0,1,.59.05,2.62,2.62,0,0,0,1.27-.19l.54-.29,1.34-.46c.22-.09.25-.24.59-.24l.09,0c.22.38.1,1.07.18,1.59.17,1,.08,2.09.24,3,0,.4-.05.8-.08,1.21s.18,1.22-.13,1.56-1.36.06-1.94.64c0,.36.41.39.62.57.55.47,2.35,2.05,3.09,1a4.29,4.29,0,0,0,.43-1l.3-.46c.08-.31-.21-.53-.27-.75,0-.54-.09-1.07-.13-1.61,0-.16,0-.33.05-.49L146,19c-.06-.76-.11-1.52-.16-2.28-.11-.55,0-1.34-.08-2a1.77,1.77,0,0,1-.09-.78C146,12.92,149.72,13.66,148.93,11.81Zm-15.11-1.27c-.26.11-.39.07-.51.3.05.6.42,1,.53,1.64a6.91,6.91,0,0,1-.4,2.85,17.82,17.82,0,0,1-.51,2.18,8.36,8.36,0,0,1-.59.91c-.07.31-.15.61-.22.92-.29.45-.59.89-.89,1.34S129.57,23.29,129,23c-.27-.13-.26-.46-.54-.59l-.14,0c-.91.86-.2,2.1,1.27,1.8a4.68,4.68,0,0,0,1.78-.94c1.92-1.52,3-6.2,3.68-9C135.34,12.86,135.42,10.58,133.82,10.54ZM81.3,14.23l1.93,1.32.46.45c.51.21,1.66-1,1.5-1.66-.23-1-.8-1.09-1.74-1.4a2.39,2.39,0,0,0-1-.22c-.78.35-2.37.64-2.68,1.37C80,14.49,80.82,14.05,81.3,14.23Zm16.21-.92-.16-.08a2.16,2.16,0,0,0-.11,1.13C97.5,14.25,97.55,13.63,97.51,13.31Zm17.64,3.53,0,.08.08,0,0,0a.63.63,0,0,0-.1-.25Zm27.35.83c-.18-.24-.48-.27-.75-.43s-.32-.3-.73-.3l-.13.09c-.1.36.18.78.08,1.34s-.49,2.15.65,1.88A1.7,1.7,0,0,0,142.5,17.67Zm-78.74,4c-.18-.51.22-.81.3-1.13.21-.86-1.16-1.2-1.88-1.21l-.7.16a4.75,4.75,0,0,0-1.29,1.24c-.71,0-1.93-.4-2.26.27.17.39.56.61.8.94.52.7,1.17,2.27,2.4,1.4.14-.66-.34-1.32.11-1.77l.16,0a1.6,1.6,0,0,1-.11,2.1c-.3.24-.64.37-.81.73,0,.05,0,.1,0,.16a1.11,1.11,0,0,0,.75-.11l.91-.51c.55-.23,2.09-.33,2.29-.81C64.76,22.35,64,22.17,63.76,21.7Z"/><path class="cls-3" d="M34.1,31.94a1.63,1.63,0,0,0,.38-.24,11.18,11.18,0,0,1-3.77,3.53h0a.74.74,0,0,0-.28.14h0a.74.74,0,0,0-.31.14.76.76,0,0,1-.24.07,3,3,0,0,0-.48.13h0a10.49,10.49,0,0,1-2.3.14h0a8.81,8.81,0,0,0-.93-.07h0a2.65,2.65,0,0,0-.59-.07h0a3.47,3.47,0,0,0-.69-.1h0c0-.07-.12,0-.17,0h0c0-.08-.12,0-.17,0h0a1.6,1.6,0,0,0-.52-.1h0s-.09,0-.14,0h0a4,4,0,0,0-.76-.18h0c-.42-.14-.88-.23-1.34-.34h0a3.17,3.17,0,0,0-.72-.2h0a.24.24,0,0,0-.2-.07h0a.24.24,0,0,0-.2-.07h0a.33.33,0,0,0-.21-.07h0a1.8,1.8,0,0,0-.54-.17h0a.3.3,0,0,0-.2-.07h0a.67.67,0,0,0-.31-.1h0A1.77,1.77,0,0,0,18.2,34h0A.28.28,0,0,0,18,33.9h0a2.79,2.79,0,0,0-.69-.21h0a5.4,5.4,0,0,0-.86-.24,1.78,1.78,0,0,1-.44-.1,1.29,1.29,0,0,0-.42-.11h0a1.42,1.42,0,0,0-.45-.1h0a2.79,2.79,0,0,0-.75-.13h0a3.67,3.67,0,0,0-.86-.11h0c-.08-.08-.31,0-.45,0h0a8.82,8.82,0,0,0-1.78,0h0A5.83,5.83,0,0,0,9.63,33h0a6.53,6.53,0,0,0-1.41.27.18.18,0,0,1-.17,0,2.59,2.59,0,0,0-.68.21s0,0,0,0-.06,0-.07,0-.2.1-.27,0,.06-.13,0-.25.08-.1.07-.2v0a.24.24,0,0,0,.07-.2c0-.07,0-.09,0-.14s.06-.07.06-.14v0a6,6,0,0,1,2.88-2.54.29.29,0,0,1,.1,0,6.54,6.54,0,0,1,1-.34h0a4,4,0,0,0,.72-.11h0c.1,0,.27.05.31,0h0c.83,0,1.73,0,2.61,0h0c.09.07.31,0,.45,0h0c0,.08.24,0,.35,0h0a5.08,5.08,0,0,0,.82.11h0a1.16,1.16,0,0,0,.41.07h0c0,.07.12,0,.18,0h0c.32.09.68.14,1,.21h0a1.45,1.45,0,0,0,.41.1.22.22,0,0,1,.17,0,.45.45,0,0,0,.24.07h0a4.91,4.91,0,0,0,.82.24h0a1.61,1.61,0,0,0,.51.17c.07,0,.09,0,.14,0a6.18,6.18,0,0,0,1.54.44h0a8.77,8.77,0,0,0,1.34.31h0a2.7,2.7,0,0,0,.62.14h0s.08,0,.13,0h0s.08,0,.13,0h0a2.74,2.74,0,0,0,.68.13h0a.59.59,0,0,0,.34.07h0a8.16,8.16,0,0,0,1.19.21h0c0,.07.14,0,.2,0h0a1,1,0,0,0,.44.07h0a3.16,3.16,0,0,0,.79.1h0c0,.08.19,0,.27,0h0a3.2,3.2,0,0,0,.72.07h0c.1.07.33,0,.48,0h0a11.63,11.63,0,0,0,2.29,0h0c.07,0,.22,0,.24,0h0c.05,0,.18,0,.17,0h0a1.38,1.38,0,0,0,.54-.14.21.21,0,0,1,.14,0A.52.52,0,0,0,34,32,.18.18,0,0,1,34.1,31.94Z"/><path class="cls-4" d="M23.58,9.7c0-.33.45-.4.65-.62a.71.71,0,0,0,0-.31,11.35,11.35,0,0,1,1.44-1.5c.06,0,0-.2.06-.24.66-.46,1.21-1,1.86-1.48a.88.88,0,0,0,.89-.13,2.66,2.66,0,0,1,1.4,1.4v0c0,.27.22.31.31.48a9.18,9.18,0,0,1,.17,2.16c0,.17.11.36.14.52.11.62.07,1.25.21,1.85v0a.86.86,0,0,0,0,.72c-.31.53.08,1,.07,1.61a.85.85,0,0,0-.1.69c-.21.21-.15.85-.1,1.2,0,0,.06,0,.06,0,.41-.12.59-.48.86-.75.08,0,.08.06.17,0A1.74,1.74,0,0,1,33,15c.11,0,.07.18.21.17s.26,0,.44,0,0,.29.14.28.05-.28.27-.21c0,.19-.17.12-.17.27a4.38,4.38,0,0,1,.28.42,1.71,1.71,0,0,1,.2-.18c0,.14.14.14.17.24s-.15.12-.06.21.16-.09.27-.1.24.1.27.24-.06.19,0,.34c.72.53.68,1.84,1.1,2.67a.37.37,0,0,0-.11.31,4.77,4.77,0,0,1,.17,2.05c0,.46.26.91,0,1.21.09.18,0,.23,0,.41s.2.23.27.37-.08,0-.07.11c.38.28,0,1.07,0,1.3,0,.39.08.67,0,1s-.32.46-.31.83a9.89,9.89,0,0,1-3.46.44c.15-.4.62-.69.62-1.2,0-.17-.11-.3-.14-.48s0-.58-.14-.82c0-.09.16-.08.14-.21,0-.31-.2-.41-.27-.58-.22-.53.14-1-.14-1.37a6.24,6.24,0,0,0-.45-2.5c0-.12.11-.13.11-.24s-.21-.25-.28-.41.12-.09.14-.17c-.17-.3-.22-.68-.58-.66s-.49.63-.52,1v0c-.09,0-.14.06-.24.07-.36,1.21-.88,2.26-1.3,3.42,0,.14.1.11.07.24s-.22.11-.27.21c.25.37-.06,1-.24,1.27.06.24.11.64-.11.75-.08-.06,0-.33-.14-.31a.72.72,0,0,0,.14.72,1.15,1.15,0,0,1-.17.83,31.3,31.3,0,0,1-3.73-.69c.06-.56,0-1.24.34-1.51,0-.09.07-.27,0-.48v0c-.13-.38.05-.61,0-1,.35-.1.27-.74.07-.93a.11.11,0,0,0,.17,0c.06-.15.17-.61-.07-.65a.27.27,0,0,0,.25-.07c.18-.76-.24-1.52.1-2.15a12.79,12.79,0,0,1,.2-1.93v0c.32-.27.05-.69.14-1.1.05-.25.29-.34.24-.54s-.16-.08-.14-.21.28-.2.28-.44c-.36-.29-.21-1-.14-1.72.1-1,.35-2.26.41-3-1.22.49-1.47,1.95-2.5,2.64a1.66,1.66,0,0,1-.65,1c0,.61-.55.73-.55,1.37-.08.23-.29.38-.41.59s-.2.6-.34.89a16.9,16.9,0,0,0-1.41,2.94.21.21,0,0,0,0,.14,6.2,6.2,0,0,0-.92,2.54v0a3.68,3.68,0,0,1-.55,1.2,3.54,3.54,0,0,1-.27,1.27c-1.27-.21-2.64-.33-4-.45a16.55,16.55,0,0,0-.07-2.15c0-.07-.13-.08-.17-.14a4.86,4.86,0,0,0-1.65,2.29,14.67,14.67,0,0,0-4.21.72c.05-.23.43-.42.24-.68-.24,0-.35.2-.52.31v.24c-.59.63-1.51.95-2.09,1.61.12-.61.78-1,.93-1.65a73.24,73.24,0,0,1,5-6,10.89,10.89,0,0,1,2.64-2.33c.16,0-.11.16,0,.24.47,0,.33-.29.54-.48.3,0,.44-.07.59,0s.13.15.24.24.18.07.27.14a1.63,1.63,0,0,1,.55,1.13c0,.35,0,.77.27.82s.24-.09.34-.17.12-.33.08-.52c.93-1.4,1.44-3.24,2.39-4.62.11,0,.18-.12.28-.17a3.75,3.75,0,0,1,.68-1c0-.06,0-.2,0-.2s.15-.11.2-.17,0-.14,0-.24c.45-.33.57-1.09,1.13-1.2,0-.49.43-.6.65-.9Zm6.69-.17c0,.09-.14.29,0,.27S30.37,9.53,30.27,9.53Zm-.31,1c.08,0,.28-.11.17-.21C30.08,10.36,29.86,10.38,30,10.49Zm.1.41c.07,0,.13,0,.1.17-.2-.11-.47.09-.34.31.48.13.95-.52.62-.86C30.41,10.75,30.17,10.76,30.06,10.9ZM24.61,12c.11.07.35,0,.31-.14S24.6,11.84,24.61,12Zm-1.34,2.43c.14-.09.32-.44.21-.55A.84.84,0,0,0,23.27,14.43Zm-8.46,3.46c.15-.2.21-.5.41-.65C14.94,17,14.39,17.71,14.81,17.89Zm5.86,1.75c.14,0,.19-.33.07-.38S20.59,19.53,20.67,19.64Zm-1,2.67c.07.07.25.05.2-.1A.16.16,0,0,0,19.71,22.31Zm-.24.45A2,2,0,0,0,19,24.61c.29-.23.16-.89.41-1.17a.51.51,0,0,1,0-.23c.08-.13.23-.18.2-.42C19.53,22.79,19.52,22.75,19.47,22.76Zm-9.36,1.3a.21.21,0,0,0,0-.24C9.83,23.78,9.89,24.08,10.11,24.06Zm26,2s0-.17,0-.17S36,26.05,36.13,26.05Z"/><path class="cls-5" d="M24.64.52A.71.71,0,0,1,25,.58a.27.27,0,0,0,.24.07,1.32,1.32,0,0,1,.38.1.26.26,0,0,0,.2.07c.06,0,.13,0,.14,0a3.8,3.8,0,0,0,.72.24,1.7,1.7,0,0,1,.48.17.18.18,0,0,0,.17.07,1.21,1.21,0,0,1,.35.13.13.13,0,0,0,.13.07s.1,0,.11,0a.17.17,0,0,0,.13.07c.05,0,.1,0,.11,0a.29.29,0,0,0,.24.1.69.69,0,0,1,.27.14,3.59,3.59,0,0,0,.62.31.5.5,0,0,1,.27.14.34.34,0,0,0,.24.13s.06,0,.07,0,.09.09.17.1a.06.06,0,0,1,.07,0,1.67,1.67,0,0,0,.52.31s.09,0,.1.07a.42.42,0,0,0,.27.17,1.41,1.41,0,0,1,.31.21.4.4,0,0,0,.24.17s.1,0,.1.07A22,22,0,0,1,36.4,8.5a.36.36,0,0,1,.07.1,2.67,2.67,0,0,0,.41.62.26.26,0,0,1,.07.1c0,.08,0,.15.1.17s.1.09.1.18a.1.1,0,0,0,.07.1s0,0,0,.07,0,.15.1.17,0,0,0,.07,0,.14.11.17,0,0,0,.07a.42.42,0,0,0,.14.24,7.6,7.6,0,0,1,.51,1,.18.18,0,0,0,.07.17.13.13,0,0,1,.07.13.18.18,0,0,0,.07.18s0,.06,0,.1a.21.21,0,0,0,.07.14,2.36,2.36,0,0,1,.21.51.16.16,0,0,0,.07.17.29.29,0,0,1,0,.1.16.16,0,0,0,.07.17,7.54,7.54,0,0,1,.24.76.24.24,0,0,0,.07.2,5.71,5.71,0,0,1,.24.86.49.49,0,0,0,.07.28v0a.43.43,0,0,0,.06.27v0a5.17,5.17,0,0,0,.18.82v0s0,.17,0,.17v0a.84.84,0,0,0,.07.41v0c0,.07,0,.22,0,.23v0c0,.07,0,.22,0,.24v0c0,.1,0,.28,0,.31v0A5.37,5.37,0,0,0,40,19v1.92c-.08.12,0,.38,0,.55v0c-.07.06,0,.27,0,.38v0a2.49,2.49,0,0,0-.07.58v0c-.07,0,0,.15,0,.21v0c-.08,0,0,.15,0,.21v0a2.59,2.59,0,0,0-.1.59v0s0,.08,0,.14v0s0,.09,0,.14v0s0,.09,0,.14v0c-.08,0,0,.13,0,.18v.1s0,0,0,0a4.81,4.81,0,0,0-.21.79.43.43,0,0,1-.06.27.28.28,0,0,0-.07.21c0,.06,0,.13,0,.14a.67.67,0,0,0-.1.31.61.61,0,0,1-.07.24.39.39,0,0,0-.1.27.74.74,0,0,1-.07.21s-.07.08-.07.17a1.08,1.08,0,0,1-.1.27c-.05,0-.06.07-.07.14v0a.15.15,0,0,0-.07.14c0,.05,0,.1,0,.1a.15.15,0,0,0-.07.14c0,.05,0,.1,0,.1a.16.16,0,0,0-.06.17c0,.06,0,.18-.11.21a.34.34,0,0,0-.1.24,3.26,3.26,0,0,1-.31.62.32.32,0,0,0-.13.24.17.17,0,0,1-.07.13c-.09.05-.11.14-.14.24s0,.06,0,.07a.75.75,0,0,0-.2.35c0,.08-.06.11-.1.17a1.23,1.23,0,0,0-.28.44,2.42,2.42,0,0,1-.27.41.38.38,0,0,0-.17.24s0,.1-.07.11a3.5,3.5,0,0,0-.52.68s0,0,0,0c-.42.47-.82,1-1.27,1.43,0,.1-.16.14-.21.24a1.44,1.44,0,0,0-.27.28c-.09,0-.11.13-.2.17-.46.45-1,.85-1.44,1.27,0,0,0,0,0,0a3.5,3.5,0,0,0-.68.52.2.2,0,0,1-.11.06.44.44,0,0,0-.24.18,2.42,2.42,0,0,1-.41.27,1.3,1.3,0,0,0-.44.27.28.28,0,0,1-.17.11.81.81,0,0,0-.35.2s0,0-.07,0-.19,0-.24.14,0,0-.06,0-.25.07-.31.17a3.59,3.59,0,0,1-.62.31.34.34,0,0,0-.24.1c0,.08-.15.06-.2.11s-.15,0-.18.06-.06,0-.1,0a.15.15,0,0,0-.14.07s-.06,0-.1,0a.15.15,0,0,0-.14.07h0a.14.14,0,0,0-.14.07h0c-.07,0-.12,0-.14.07a.24.24,0,0,1-.1,0c-.09,0-.14,0-.17.07s-.1.08-.21.07a.39.39,0,0,0-.27.1.61.61,0,0,1-.24.07.67.67,0,0,0-.31.1s-.09,0-.14,0a.24.24,0,0,0-.2.07h0a.24.24,0,0,0-.2.06c-.06,0-.14,0-.14,0a2.91,2.91,0,0,0-.69.17h0a.43.43,0,0,0-.27.07h0a1.7,1.7,0,0,0-.48.1h0a2.59,2.59,0,0,0-.59.1h0c-.06,0-.2,0-.21,0h0c-.06,0-.2,0-.21,0h0c-.08,0-.25,0-.27,0h0c-.08,0-.25,0-.27,0h0c-.11,0-.31,0-.37,0h0c-.16,0-.41,0-.51,0H19c-.1-.08-.35,0-.51,0h0c0-.07-.26,0-.37,0h0c0-.08-.21,0-.31,0h0c0-.08-.17,0-.24,0h0c0-.08-.17,0-.24,0h0a.86.86,0,0,0-.41-.07h0c0-.07-.12,0-.17,0h0a6.24,6.24,0,0,0-.82-.17h0a2.36,2.36,0,0,0-.58-.13,3.43,3.43,0,0,1-.51-.14.28.28,0,0,0-.21-.07h0a.6.6,0,0,0-.31-.1,5.07,5.07,0,0,1-.75-.24v0c-.09,0-.08-.06-.18,0a1.49,1.49,0,0,1-.37-.14.21.21,0,0,0-.14-.07h0a.17.17,0,0,0-.14-.06.45.45,0,0,1-.28-.11.34.34,0,0,0-.2-.1s-.1,0-.1,0a.32.32,0,0,0-.24-.11,8.22,8.22,0,0,1-1-.51c0-.08-.14-.11-.24-.14s-.11,0-.14-.07a.77.77,0,0,0-.34-.2s-.06,0-.07,0a.62.62,0,0,0-.27-.17c-.09,0-.12-.06-.18-.1a.39.39,0,0,0-.27-.17,1.69,1.69,0,0,1-.31-.21.4.4,0,0,0-.24-.17s-.09,0-.1-.07a6.3,6.3,0,0,0-.82-.62s-.06-.06-.11-.06-.1,0-.1-.11c-.68-.59-1.35-1.21-2-1.85,0-.07-.09-.06-.1-.14-.51-.53-1-1.14-1.44-1.71a.09.09,0,0,0-.07-.1,1.05,1.05,0,0,0-.27-.38,4.59,4.59,0,0,1-.35-.51,1.35,1.35,0,0,0-.27-.45s-.1-.08-.1-.17a3.17,3.17,0,0,0-.38-.65.35.35,0,0,1-.1-.21A.75.75,0,0,0,2.09,29,.17.17,0,0,1,2,28.86a.67.67,0,0,0-.17-.38.32.32,0,0,1-.1-.2c0-.09,0-.14-.07-.17A.17.17,0,0,1,1.61,28a.16.16,0,0,0-.07-.17,3.54,3.54,0,0,1-.27-.69.18.18,0,0,0-.07-.17c0-.07-.08-.1-.07-.21a.16.16,0,0,0-.07-.17,1.89,1.89,0,0,1-.13-.44.67.67,0,0,0-.11-.31.26.26,0,0,1,0-.14c0-.09,0-.16-.07-.2v0a.24.24,0,0,0-.07-.2A1,1,0,0,1,.58,25a1,1,0,0,0-.1-.41v0a1.87,1.87,0,0,0-.1-.45v0c0-.06,0-.14,0-.14v0c0-.06,0-.13,0-.14v0a.71.71,0,0,0-.07-.34v0a.84.84,0,0,0-.07-.41v0A4.18,4.18,0,0,0,.07,22v0A5.33,5.33,0,0,0,0,21.18v-2.4c.08-.08,0-.3,0-.44v0c.07,0,0-.24,0-.34v0c.08,0,0-.19,0-.27v0c.08,0,0-.17,0-.24v0c.08,0,0-.14,0-.2v0c.08,0,0-.14,0-.2v0c.07,0,0-.12,0-.17v0c.07,0,0-.12,0-.17v0a2.58,2.58,0,0,0,.14-.65v0c.08,0,0-.12,0-.17v-.11s0,0,0,0a2.21,2.21,0,0,0,.14-.55,3.74,3.74,0,0,1,.17-.62s0-.06,0-.1c.09-.34.2-.66.31-1a.16.16,0,0,0,.07-.17c0-.06,0-.06,0-.1a.15.15,0,0,0,.07-.17,2.45,2.45,0,0,1,.21-.52.18.18,0,0,0,.07-.17.06.06,0,0,1,0-.07.16.16,0,0,0,.07-.17c.05-.06,0-.18.1-.2a.32.32,0,0,0,.11-.24,4.13,4.13,0,0,1,.37-.76.3.3,0,0,0,.14-.24.14.14,0,0,1,.07-.14c.07,0,.09-.09.1-.17s0-.06,0-.07a.77.77,0,0,0,.2-.34c0-.09.06-.12.1-.17A2.06,2.06,0,0,0,3.26,9a.74.74,0,0,1,.13-.21.39.39,0,0,0,.18-.23s0-.1.06-.11h0c0-.07.09,0,.07-.13s0-.1.07-.11C4.43,7.43,5,6.66,5.72,6A1.36,1.36,0,0,1,6,5.72c.57-.56,1.18-1.06,1.79-1.57,0,0,0,0,0,0a1.4,1.4,0,0,0,.41-.3.16.16,0,0,1,.11-.07c.08,0,.1-.06.13-.11a.21.21,0,0,1,.1-.06.39.39,0,0,0,.25-.18A.58.58,0,0,1,9,3.26,8.62,8.62,0,0,0,10,2.6s.05,0,.07,0,.15,0,.17-.1a.17.17,0,0,1,.14-.07c.12,0,.25-.07.31-.17a4.83,4.83,0,0,1,.68-.35.29.29,0,0,0,.25-.1c0-.05.08-.07.17-.07a.35.35,0,0,0,.2-.1s0,0,.07,0a.7.7,0,0,0,.34-.14,1.22,1.22,0,0,1,.35-.14A.16.16,0,0,0,13,1.23a.2.2,0,0,1,.1,0,.37.37,0,0,0,.27-.1A6.18,6.18,0,0,1,14,.89a.57.57,0,0,0,.31-.1h0a.24.24,0,0,0,.2-.07,1.12,1.12,0,0,1,.38-.1,1.17,1.17,0,0,0,.41-.1s0,0,0,0h.1a.48.48,0,0,0,.31-.07h0s.13,0,.14,0h0a.68.68,0,0,0,.31-.07h0A3.71,3.71,0,0,0,17.1.17h0c.06,0,.2,0,.21,0h0c.08,0,.25,0,.27,0h0c.08,0,.24,0,.27,0h0c.11,0,.3,0,.35,0h0c.14,0,.37.05.45,0h2.33c.09.08.33,0,.48,0h0c.05.08.24,0,.35,0h0c0,.08.19,0,.27,0h0c0,.08.17,0,.24,0h0a1.47,1.47,0,0,0,.45.07h0a5.46,5.46,0,0,0,.76.13h0a1.49,1.49,0,0,0,.45.11h0A.51.51,0,0,0,24.64.52Zm-5.38.82h-.2c-.13,0-.34-.05-.41,0h0c-.11,0-.32,0-.38,0h0c-.08,0-.25,0-.27,0h0c-.08,0-.25,0-.27,0h0c-.06,0-.2,0-.2,0h0c-.07,0-.21,0-.21,0h0s-.17,0-.17,0h0a6.22,6.22,0,0,0-1.3.27,1.84,1.84,0,0,1-.42.1s-.12,0-.13,0a.85.85,0,0,1-.38.1.28.28,0,0,0-.21.07,7.39,7.39,0,0,1-.71.24.17.17,0,0,0-.18.07s0,0-.1,0a.18.18,0,0,0-.17.07,1.31,1.31,0,0,1-.38.14.13.13,0,0,0-.13.07.06.06,0,0,1-.07,0c-.09,0-.14,0-.17.07s-.06,0-.11,0a.17.17,0,0,0-.13.07.62.62,0,0,1-.28.14,2.07,2.07,0,0,0-.68.34.36.36,0,0,1-.21.11.32.32,0,0,0-.24.13s0,0-.07,0-.15,0-.17.1,0,0-.07,0a.44.44,0,0,0-.27.18s0,0-.07,0a.09.09,0,0,0-.1.07c-.06,0-.09.1-.17.1a2.75,2.75,0,0,0-.66.45s-.07,0-.1.07a2.58,2.58,0,0,0-.65.47s0,0,0,0a.6.6,0,0,0-.3.24.06.06,0,0,1-.07,0A19.51,19.51,0,0,0,5.55,8.16s0,.07,0,.07a.58.58,0,0,0-.24.31,0,0,0,0,1,0,0,2.38,2.38,0,0,0-.48.65.26.26,0,0,1-.07.1,2.9,2.9,0,0,0-.45.65c0,.09-.06.12-.1.17a.1.1,0,0,0-.07.11.53.53,0,0,1-.14.24.09.09,0,0,0-.07.1s0,.07,0,.07-.09.09-.1.17,0,.07,0,.07a.32.32,0,0,0-.13.24.36.36,0,0,1-.11.21,2.07,2.07,0,0,0-.34.68.67.67,0,0,1-.14.28s-.07.08-.07.17,0,.06,0,.06-.07.09-.07.18,0,.07,0,.07a.13.13,0,0,0-.07.13,1.31,1.31,0,0,1-.14.38.18.18,0,0,0-.07.17.13.13,0,0,1,0,.1.18.18,0,0,0-.07.17c-.07.26-.15.49-.24.73-.05,0-.06.11-.07.2v0h0c0,.1-.06.09,0,.2s-.09.48-.17.69a6.22,6.22,0,0,0-.27,1.3v0c-.08,0,0,.12,0,.17v0c-.07,0,0,.14,0,.2v0c-.08,0,0,.14,0,.2v0c-.08,0,0,.19,0,.27v0c-.08,0,0,.2,0,.28v0c-.08.06,0,.27,0,.38v0c-.08.08,0,.3,0,.44v.17a5.78,5.78,0,0,0,0,1.44v.21c0,.12-.05.34,0,.41v0c0,.12,0,.32,0,.38v0c0,.1,0,.28,0,.31v0c0,.07,0,.22,0,.24v0a1,1,0,0,0,.06.45v0a3.32,3.32,0,0,0,.14.76v0c0,.05,0,.13,0,.14v0a5,5,0,0,0,.23,1c.09.12.08.34.14.48s0,.1,0,.11.05.06,0,.13a.71.71,0,0,0,.1.32s0,0,0,.1a.39.39,0,0,0,.1.27.65.65,0,0,1,.07.21.16.16,0,0,0,.07.17,2.52,2.52,0,0,1,.2.55.17.17,0,0,0,.07.13s0,0,0,.07,0,.14.06.17,0,.12.07.14a.32.32,0,0,0,.11.24,7,7,0,0,1,.41.82.32.32,0,0,0,.13.24s0,0,0,.07a.93.93,0,0,0,.24.41s0,0,0,.07a2.66,2.66,0,0,0,.41.65,1.69,1.69,0,0,1,.21.31A15.91,15.91,0,0,0,7,33.38c0,.12,0,.14,0,.25s.15-.06.27,0a.18.18,0,0,1,.11.1,6.14,6.14,0,0,0,.75.69s.07,0,.07,0a5.74,5.74,0,0,0,1,.79.23.23,0,0,1,.1.07,7.85,7.85,0,0,0,1.44.92s.07,0,.07,0a.32.32,0,0,0,.24.13.21.21,0,0,1,.14.07c0,.09.14.11.23.14a2.17,2.17,0,0,1,.55.27.32.32,0,0,0,.24.11c.06,0,.18,0,.21.1s.07.07.14.07.09,0,.1,0,.07.07.14.07.09,0,.1,0a.69.69,0,0,0,.34.13,3.35,3.35,0,0,1,.38.14s.08.08.17.07a6.45,6.45,0,0,1,.62.21.81.81,0,0,0,.31.1.84.84,0,0,1,.37.1,1.17,1.17,0,0,0,.41.11h.11s0,0,0,0a2.46,2.46,0,0,0,.58.14h0c0,.05.08,0,.14,0h0a.69.69,0,0,0,.34.07h0c0,.07.12,0,.17,0h0c0,.07.12,0,.17,0h0c0,.07.14,0,.2,0h0c0,.08.17,0,.24,0h0c0,.07.17,0,.24,0h0c.05.08.24,0,.35,0h0c.07.08.29,0,.41,0h0c.1.08.35,0,.51,0h.31a1.46,1.46,0,0,0,.72,0h.31c.16,0,.41.05.51,0h0c.12,0,.34,0,.41,0h0c.1,0,.27,0,.31,0h0c.08,0,.24,0,.27,0h0c.07,0,.2,0,.21,0h0c.07,0,.21,0,.21,0h0a1.72,1.72,0,0,0,.59-.11h0a7.4,7.4,0,0,0,1.23-.27,4,4,0,0,1,.62-.17s.1,0,.11,0,.06,0,.13,0a2.34,2.34,0,0,0,.69-.24.59.59,0,0,1,.2-.07.16.16,0,0,0,.17-.07c.05,0,.05,0,.11,0a.7.7,0,0,0,.34-.14.46.46,0,0,1,.27-.1c.07,0,.12,0,.14-.07s.07-.06.14-.07a.16.16,0,0,0,.17-.07c.35-.19.71-.39,1.09-.55.09,0,.15,0,.18-.1a.17.17,0,0,1,.13-.07.75.75,0,0,0,.35-.2s0,0,.07,0a.55.55,0,0,0,.27-.17c0-.05.08,0,.1-.07a.75.75,0,0,0,.38-.24v0a.24.24,0,0,0,.1,0,.6.6,0,0,0,.31-.25,11.18,11.18,0,0,0,3.77-3.53s0,0,0,0a1.7,1.7,0,0,0,.44-.55A.26.26,0,0,1,35,31a.88.88,0,0,0,.27-.38,6.58,6.58,0,0,1,.42-.61,1.23,1.23,0,0,0,.24-.38.62.62,0,0,1,.13-.24,1,1,0,0,0,.24-.41s0-.07,0-.07a.63.63,0,0,0,.17-.31c0-.07,0-.08,0-.14a.58.58,0,0,0,.14-.27c.07,0,.06-.17.14-.21a.47.47,0,0,0,.13-.31s0,0,0-.06a.21.21,0,0,0,.07-.14v0a.17.17,0,0,0,.06-.14v0a.76.76,0,0,0,.14-.3v0c.05,0,.07-.07.07-.14v0s.06-.08.07-.14v0s.06-.08.07-.14v0a.21.21,0,0,0,.07-.14v0s.07-.08.07-.17a1.79,1.79,0,0,1,.13-.41s0-.05,0-.1,0-.36.13-.48,0-.05,0-.1,0-.31.1-.38a.51.51,0,0,0,.07-.27v0a1,1,0,0,0,.1-.41v0s0-.09,0-.14v0c.05,0,0-.08,0-.13v0a.69.69,0,0,0,.07-.34v0c.07,0,0-.13,0-.18v0A9.84,9.84,0,0,0,38.63,21v0c.08-.16,0-.47,0-.68v-.65a2.87,2.87,0,0,0,0-.73v-.13c0-.11,0-.3,0-.35v0c0-.1,0-.29,0-.34v0c0-.08,0-.25,0-.27v0c0-.07,0-.22,0-.24v0c0-.06,0-.2,0-.21v0a1.66,1.66,0,0,0-.11-.58v0A8.77,8.77,0,0,0,38,15.11S38,15,38,15a.33.33,0,0,0-.07-.21v0a.28.28,0,0,0-.07-.21c-.18-.56-.4-1.09-.58-1.64,0-.07,0-.12-.07-.14s0,0,0-.07,0-.14-.06-.17,0,0,0-.07a.35.35,0,0,0-.1-.24,1.2,1.2,0,0,1-.17-.34.51.51,0,0,0-.17-.34.82.82,0,0,1-.17-.35.42.42,0,0,0-.14-.24s0,0,0-.06,0-.15-.1-.18,0,0,0-.06a3.18,3.18,0,0,0-.45-.73,3.48,3.48,0,0,1-.34-.51,3.45,3.45,0,0,0-.55-.75s0,0,0,0a8.07,8.07,0,0,0-1.17-1.37c0-.07-.09-.06-.1-.14a6.47,6.47,0,0,0-.59-.58c-.07,0-.09-.11-.17-.14a7,7,0,0,0-1.2-1s0,0,0,0a4,4,0,0,0-.69-.51l-.1-.07a3.36,3.36,0,0,0-.82-.55.14.14,0,0,1-.1-.07,1.77,1.77,0,0,0-.52-.3s-.07,0-.07,0-.09-.09-.17-.1a.17.17,0,0,1-.14-.07c0-.08-.14-.11-.23-.14a3.6,3.6,0,0,1-.76-.38.41.41,0,0,0-.21-.1.15.15,0,0,1-.17-.07.17.17,0,0,0-.13-.07s-.1,0-.11,0-.07-.06-.13-.07a3,3,0,0,1-.55-.2v0c-.08,0-.08-.06-.17,0a.74.74,0,0,1-.21-.07,2.38,2.38,0,0,0-.68-.24.2.2,0,0,1-.14,0s-.06,0-.1,0-.37,0-.48-.14a5.85,5.85,0,0,0-1-.24h0c0-.05-.09,0-.14,0h0a6.41,6.41,0,0,0-1.24-.21h0c0-.07-.17,0-.24,0h0c0-.08-.21,0-.3,0h0c-.06-.07-.26,0-.38,0h0c-.07-.08-.29,0-.41,0H20.7A5.78,5.78,0,0,0,19.26,1.34Z"/><path class="cls-6" d="M13.2,6.34a1.59,1.59,0,0,1,.51.14.79.79,0,0,0,.31.13h0a5.19,5.19,0,0,1,2,1.75v0c.11.19.19.41.31.58V9a2.17,2.17,0,0,0,.17.47.23.23,0,0,1,0,.18c0,.05,0,.13,0,.13v0s0,.18,0,.17v.07c0,.1-.05.29,0,.34v.41c-.08.05,0,.24,0,.34v.07c-.08,0,0,.12,0,.18v0a1.06,1.06,0,0,0-.1.38v0a.63.63,0,0,0-.1.27v0a5,5,0,0,1-2,2.3h0c-.1.06-.23.08-.31.16h0a1.26,1.26,0,0,0-.31.14,1.59,1.59,0,0,1-.51.14c-.06,0-.13,0-.14,0h0s-.18,0-.18,0h0c-.07,0-.22,0-.24,0h-.75c0-.07-.2,0-.28,0h0c0-.08-.12,0-.17,0h0s-.08,0-.13,0a.55.55,0,0,1-.28-.07c-.22-.1-.46-.18-.69-.27-.05,0-.05,0-.1,0v0c-.13-.06-.25-.14-.38-.21h0v0a5.59,5.59,0,0,1-1.2-1.13v0c-.12-.14-.17-.35-.31-.48s-.07-.08-.06-.17A1.26,1.26,0,0,0,8,12.13v0a.85.85,0,0,0-.1-.27c0-.17-.11-.15-.08-.31s0-.14,0-.14v0c0-.06,0-.2,0-.21v-1c.07,0,0-.14,0-.21v0s0-.08,0-.14a.66.66,0,0,0,.08-.3A1.88,1.88,0,0,0,8,9.05V9a.47.47,0,0,0,.11-.21c0-.11.07-.16.1-.24h0l.1-.21v0h0A5,5,0,0,1,10,6.75c.09,0,.14-.09.24-.1a.41.41,0,0,0,.21-.1h0c.08,0,.19,0,.23-.11h0a.26.26,0,0,0,.2-.07.29.29,0,0,1,.18,0c.05,0,.13,0,.13,0h0c.05,0,.17,0,.17,0h0c.07,0,.23.05.24,0h.79c0,.08.19,0,.27,0h0c0,.05.09,0,.14,0h0S13.14,6.34,13.2,6.34Z"/><path class="cls-7" d="M14,24.68h.41c.11.08.36,0,.52,0h.37c.1.07.31,0,.45,0h.14c.06.08.26,0,.37,0h.1c.05.08.25,0,.35,0h.07c0,.08.21,0,.31,0h.06c0,.08.17,0,.25,0h.1c0,.08.14,0,.2,0h.07c0,.08.17,0,.24,0h0c0,.08.15,0,.21,0h.07c0,.07.15,0,.2,0h0c0,.08.14,0,.21,0h0c0,.07.12,0,.17,0H19c0,.07.12,0,.17,0h.14s0,0,.07,0h.1c.07.05.21,0,.31.07s.14.06.27,0,.12,0,.17,0h0c0,.05.08,0,.13,0h0c0,.05.08,0,.14,0h0c0,.05.08,0,.14,0h0c0,.05.09,0,.14,0h0a1.08,1.08,0,0,0,.41.1.24.24,0,0,0,.18,0,.43.43,0,0,0,.27.07.22.22,0,0,0,.17,0,.47.47,0,0,0,.28.07.21.21,0,0,0,.17,0,.43.43,0,0,0,.27.08h0a.51.51,0,0,0,.27.06h0a.49.49,0,0,0,.28.07h0a.49.49,0,0,0,.28.07h0a.43.43,0,0,0,.27.07h0c0,.05.09,0,.14,0h0a.45.45,0,0,0,.28.07h0c0,.05.09,0,.14,0h0a.44.44,0,0,0,.28.08h0s0,0,.07,0a.22.22,0,0,0,.17,0h0c0,.05.09,0,.14,0h0s.08,0,.13,0h0c0,.05.08,0,.13,0h0c0,.05.08,0,.14,0h0s.08,0,.14,0h0c0,.05.09,0,.14,0h0s.09,0,.14,0h0c0,.05.09,0,.14,0h0s.09,0,.14,0h0c0,.07.13,0,.18,0h0c0,.05.09,0,.14,0h0c0,.05.09,0,.14,0h.07c0,.05.09,0,.13,0h0c0,.07.12,0,.17,0h0c0,.05.09,0,.14,0h.07s.09,0,.14,0h.07s.08,0,.13,0h.07c0,.07.12,0,.17,0h.07c0,.07.12,0,.17,0s.09-.05.14-.06v0c-.09,0,0,.1.1.07h.14c0,.07.17,0,.24,0h.07c0,.05.08,0,.14,0h.17c.13,0,.16.06.31,0a6.35,6.35,0,0,0,.82.14H31s.09,0,.14,0h.24s.08,0,.13,0h.38c0,.07.17,0,.24,0h.34a.94.94,0,0,0,.55,0h.27c.13,0,.35,0,.42,0h.1c.08,0,.25,0,.27,0h.07c.07,0,.23,0,.24,0h0s.17,0,.17,0h.07c.05,0,.13,0,.13,0h.07c.06,0,.13,0,.14,0h0c.06,0,.13,0,.14,0a4,4,0,0,1,.55-.14.6.6,0,0,0,.31-.1c.06,0,.14,0,.17-.07a.16.16,0,0,0,.17-.07c.09,0,.19,0,.24-.1a1.8,1.8,0,0,0,.48-.24c.06,0,.09,0,.1-.07s.19-.16.35-.17v.07s-.07.07-.07.14v0a.15.15,0,0,0-.07.14v0a.14.14,0,0,0-.07.14v0a.17.17,0,0,0-.07.14v0a.6.6,0,0,0-.14.3v0s-.06.07-.06.14v0c-.05,0-.07.07-.07.14s0,.06,0,.06,0-.06,0-.06-.11.16-.14.27a1.8,1.8,0,0,0-.17.31.73.73,0,0,0-.17.27.1.1,0,0,0-.07.1,1.14,1.14,0,0,0-.21.28.28.28,0,0,0-.13.17.32.32,0,0,0-.14.14s0,0,0,.07a4.08,4.08,0,0,0-.55.55c-.07.05-.17.08-.21.17S35,30,35,30.09s-.13,0-.14.1a1.41,1.41,0,0,0-.37.25c-.23.11-.47.22-.69.34s-.21,0-.27.1c-.25,0-.43.14-.69.17-.06.05-.2,0-.24.07s-.22,0-.24,0h-.2s-.18-.05-.17,0H30.23c0-.08-.12,0-.17,0h-.24c0-.05-.09,0-.14,0h-.17s-.08,0-.14,0H29.2c0-.05-.08,0-.13,0h-.18c-.59-.1-1.19-.19-1.81-.27,0-.08-.12,0-.17,0h0c0-.07-.18,0-.24-.07h-.1a4.92,4.92,0,0,0-.58-.14h-.1c0-.05-.09,0-.14,0s-.09,0-.14,0h0s-.09,0-.14,0c-.49-.14-1-.27-1.48-.38-.1-.07-.28-.06-.41-.1h-.1c0-.05-.09,0-.14,0h0s-.09,0-.14,0h0c0-.05-.09,0-.14,0h0s-.09,0-.14,0-.12,0-.17,0-.18,0-.24-.07h-.1s-.09,0-.14,0h0s-.08,0-.13,0h0s-.09,0-.13,0a.73.73,0,0,0-.35-.06c0-.07-.18,0-.24-.07h-.1c0-.05-.09,0-.14,0h0s-.09,0-.14,0h0c0-.05-.09,0-.14,0h0s-.09,0-.14,0a.71.71,0,0,0-.34-.07c-.11-.07-.29-.05-.42-.1h-.1c0-.05-.08,0-.13,0h0s-.09,0-.14,0h0c0-.05-.09,0-.14,0h0s-.09,0-.14,0h0c0-.05-.09,0-.14,0a11.05,11.05,0,0,0-1.37-.28h0c0-.07-.13,0-.18,0v0c-.47,0-.85-.15-1.33-.17h0s-.08,0-.14,0h-.2c0-.08-.12,0-.17,0H15c0-.07-.14,0-.21,0H13c-.06,0-.21,0-.21,0h-.34c-.05,0-.18,0-.17,0h-.24c-.06,0-.14,0-.14,0h-.21c-.05,0-.13,0-.13,0h-.18c-.05,0-.13,0-.13,0s-.23,0-.24,0a2,2,0,0,0-.69.11h0c-.05,0-.18,0-.17,0s-.18,0-.17,0a.48.48,0,0,0-.31.07,1,1,0,0,0-.41.1c-.06,0-.14,0-.14,0a5.15,5.15,0,0,0-1,.31.66.66,0,0,0-.27.1s-.07,0-.08,0-.19,0-.23.1a.34.34,0,0,0-.24.1s-.07,0-.07,0a.16.16,0,0,0-.18.07,2.09,2.09,0,0,0-.37.17s-.13,0-.14.1-.07,0-.07,0-.06,0-.06,0a.4.4,0,0,0-.24.13s-.07,0-.07,0a.88.88,0,0,0-.28.17.6.6,0,0,0-.2.14s-.13,0-.14.1a.09.09,0,0,0-.1.07c-.13,0-.16.16-.31.17v-.27s0-.09,0-.14v-.2c.08,0,0-.15,0-.21s0-.12,0-.17v0s0-.08,0-.13a3.59,3.59,0,0,0,.13-.52c.06-.06.07-.18.11-.27a1.21,1.21,0,0,0,.13-.35A4.44,4.44,0,0,0,6,27.93a.08.08,0,0,0,.07-.1s.07,0,.07-.1a.1.1,0,0,0,.07-.1h0c0-.06,0-.09.06-.14h0c0-.07.09,0,.07-.14s0,0,0,0a9.68,9.68,0,0,1,1.3-1.17h0c.08,0,.19-.08.24-.17H8c.09-.06.23-.07.28-.17a1,1,0,0,0,.17-.1s.1,0,.1,0a.15.15,0,0,0,.14-.07c.08,0,.19,0,.24-.1s0-.15.13-.14-.06.08,0,.11.12,0,.14-.07a5.47,5.47,0,0,1,1.06-.31c.06,0,.13,0,.14,0a.22.22,0,0,1,.17,0c.06,0,.13,0,.14,0h0c.06,0,.13,0,.14,0H11s.13,0,.14,0h.07s.17,0,.17,0h0c.06,0,.2,0,.21,0h0c.07,0,.22,0,.24,0h.07c.07,0,.22.05.24,0h.1c.09,0,.27,0,.31,0h.14c.15,0,.39,0,.48,0a.58.58,0,0,0,.24,0A.74.74,0,0,0,14,24.68Z"/></svg>